<?xml version="1.0" encoding="utf-8"?>
<!-- Generator: Adobe Illustrator 27.5.0, SVG Export Plug-In . SVG Version: 6.00 Build 0)  -->
<svg version="1.1" xmlns="http://www.w3.org/2000/svg" xmlns:xlink="http://www.w3.org/1999/xlink" x="0px" y="0px"
	 viewBox="0 0 3200 4800" style="enable-background:new 0 0 3200 4800;" xml:space="preserve">
<g id="BACKGROUND">
	<rect style="fill:#FFFFFF;" width="3200" height="4800"/>
</g>
<g id="OBJECTS">
	<g>
		<ellipse style="fill:#E6E7E8;" cx="1481.071" cy="4206.949" rx="837.106" ry="143.978"/>
		<g>
			<polygon style="fill:#ED9E7B;" points="1684.546,3923.386 1714.494,4061.98 1834.282,4147.02 1902.058,4133.126 
				1859.501,3862.571 			"/>
			<g>
				<path style="fill:#F1F2F2;" d="M1677.344,4131.503c0.232,4.515,0.631,8.631,1.095,12.05c0.797,6.174,4.88,11.386,10.722,13.61
					c49.295,18.789,285.05,110.807,381.815,82.823c25.594-7.403,40.631-17.395,48.665-28.349
					c25.992-35.354-20.88-80.632-20.88-80.632s-326.412-82.425-386.695-65.827
					C1680.231,4073.943,1676.182,4108.267,1677.344,4131.503z"/>
				<path style="fill:#F26522;" d="M2129.663,4196.38c0,0-70.368,62.187-211.746,15.301
					c-141.341-46.887-228.031-58.362-238.408-96.689c-0.076-0.228-0.114-0.455-0.19-0.682
					c-12.157-46.28-5.265-142.287,12.157-143.953c31.435-2.954,44.047,39.804,114.451,53.514c0,0,42.267-78.965,73.284-68.739
					c15.982,5.264,56.392,33.404,97.9,64.422c51.242,38.213,104.226,80.82,115.246,90.212
					C2112.28,4126.77,2148.259,4162.787,2129.663,4196.38z"/>
				<path style="fill:#E05E20;" d="M1977.111,4019.553c-32.532,19.201-78.586,40.675-143.765,63.095
					c-73.814,25.375-122.329,33.139-154.028,31.661c-12.157-46.28-5.265-142.287,12.157-143.953
					c31.435-2.954,44.047,39.804,114.451,53.514c0,0,42.267-78.965,73.284-68.739
					C1895.193,3960.395,1935.603,3988.535,1977.111,4019.553z"/>
				<g>
					<path style="fill:#F1F2F2;" d="M1876.47,4092.572c6.534-0.172,12.638-4.186,15.16-10.661
						c18.717-48.038,68.593-59.456,70.708-59.915c9.003-1.97,11.088-10.332,5.831-17.896c-5.362-7.714-15.057-13.828-24.084-11.927
						c-2.828,0.592-58.232,12.371-83.643,77.588c-3.356,8.612,0.906,18.315,9.518,21.669
						C1872.101,4092.262,1874.31,4092.629,1876.47,4092.572z"/>
					<path style="fill:#F1F2F2;" d="M1925.172,4125.94c6.296-0.166,12.233-3.897,14.914-10.056
						c24.733-56.78,72.822-61.034,73.299-60.953c3.253,0.552,8.615-3.78,4.469-12.036c-4.704-9.37-19.018-15.281-25.267-15.109
						c-2.801,0.077-50.467-0.391-83.19,74.737c-3.691,8.474,0.187,18.334,8.661,22.023
						C1920.377,4125.559,1922.8,4126.002,1925.172,4125.94z"/>
				</g>
			</g>
		</g>
		<g>
			<polygon style="fill:#ED9E7B;" points="1268.437,3881.724 1268.437,4004.665 1148.648,4110.269 1079.296,4047.973 
				1121.853,3873.843 			"/>
			<g>
				<path style="fill:#F1F2F2;" d="M1292.659,4131.503c-0.232,4.515-0.631,8.631-1.096,12.05c-0.797,6.174-4.88,11.386-10.722,13.61
					c-49.296,18.789-285.05,110.807-381.815,82.823c-25.594-7.403-40.631-17.395-48.665-28.349
					c-25.992-35.354,20.88-80.632,20.88-80.632s326.412-82.425,386.695-65.827
					C1289.771,4073.943,1293.82,4108.267,1292.659,4131.503z"/>
				<path style="fill:#F26522;" d="M1295.063,4089.086c-1.023,9.582-2.538,18.407-4.583,25.905
					c-10.376,38.327-97.029,49.802-238.408,96.689c-141.378,46.886-211.746-15.301-211.746-15.301
					c-18.557-33.593,17.422-69.61,37.305-86.615c0.606-0.492,1.325-1.098,2.158-1.818c27.042-22.61,176.373-141.378,210.989-152.816
					c31.056-10.226,73.284,68.739,73.284,68.739c70.443-13.71,83.017-56.468,114.489-53.514
					C1293.207,3971.757,1300.402,4039.928,1295.063,4089.086z"/>
				<path style="fill:#E05E20;" d="M1295.063,4089.086c-14.695,0.569-31.662-1.325-51.28-6.438
					c-49.729-12.908-146.444,49.244-203.173,57.037c-84.244,11.573-125.628-25.695-160.822-31.738
					c27.042-22.61,176.373-141.378,210.989-152.816c31.056-10.226,73.284,68.739,73.284,68.739
					c70.443-13.71,83.017-56.468,114.489-53.514C1293.207,3971.757,1300.402,4039.928,1295.063,4089.086z"/>
				<g>
					<path style="fill:#F1F2F2;" d="M1093.532,4092.572c-6.534-0.172-12.638-4.186-15.16-10.661
						c-18.717-48.038-68.593-59.456-70.708-59.915c-9.003-1.97-11.088-10.332-5.831-17.896c5.362-7.714,15.057-13.828,24.084-11.927
						c2.828,0.592,58.232,12.371,83.643,77.588c3.356,8.612-0.906,18.315-9.518,21.669
						C1097.901,4092.262,1095.692,4092.629,1093.532,4092.572z"/>
					<path style="fill:#F1F2F2;" d="M1044.83,4125.94c-6.296-0.166-12.233-3.897-14.914-10.056
						c-24.733-56.78-72.822-61.034-73.299-60.953c-3.253,0.552-8.615-3.78-4.469-12.036c4.704-9.37,19.018-15.281,25.267-15.109
						c2.801,0.077,50.467-0.391,83.19,74.737c3.691,8.474-0.187,18.334-8.661,22.023
						C1049.625,4125.559,1047.202,4126.002,1044.83,4125.94z"/>
				</g>
			</g>
		</g>
		<g>
			<path style="fill:#AD1B29;" d="M1902.05,3881.06c-7.84,54.42-193.79,59.69-236.36,37.19c-43.97-23.25-74.54-434.55-109.04-571.42
				c-50.18-199.29-89-430.31-133.69-432.55c-44.69-2.27-29.77,273.29-52.87,393.99c-33.29,173.84-41.77,572.79-68.28,589.38
				c-58.06,36.36-214.82,59.69-243.87,19.47c-18.25-25.3-11.05-211.26-2.95-389.07c0-0.04,0-0.04,0-0.04
				c4.36-95.74,9.01-189.1,10.07-253.75c1.9-111.57,4.51-299.72,4.7-452.01v-0.03c0.04-2.39,0.04-4.78,0.04-7.12v-0.04
				c0.02-16.5,0.02-32.53-0.03-47.95c-0.01-2.73-0.02-5.45-0.04-8.14c-0.03-6.82-0.07-13.51-0.12-20.07c0-3.9-0.04-7.77-0.08-11.59
				c-0.17-21.14-0.42-40.68-0.77-58.17c-0.92-46.47-2.52-78.36-5.04-86.77c-0.33-1.11-0.68-1.81-1.04-2.08l115.63-7.73l6.32-0.42
				l48.1-3.22l5.94-0.37l423.53-28.26l5.95-0.41l105.62-7.03l3.15-0.21c0,0,2.46,26.13,6.36,68.4c0.91,9.66,1.86,20.22,2.88,31.47
				c0.45,4.86,0.91,9.85,1.39,14.97c1.6,17.19,3.31,35.8,5.09,55.44c0.22,2.16,0.41,4.35,0.6,6.55
				c16.48,180.61,39.96,444.55,43.25,517.15c4.17,90.82,43.71,456.1,59.27,597.82C1899.66,3859.66,1902.05,3881.06,1902.05,3881.06z
				"/>
			<path style="fill:#991824;" d="M1902.051,3881.061c-7.84,54.424-193.795,59.688-236.364,37.191
				c-43.97-23.254-74.533-434.551-109.035-571.423c-50.181-199.286-89.001-430.31-133.691-432.544
				c-44.69-2.272-29.768,273.289-52.871,393.99c-33.289,173.836-41.773,572.787-68.284,589.375
				c-58.059,36.358-214.815,59.688-243.863,19.467c-18.254-25.299-11.058-211.254-2.954-389.066
				c26.019,87.903,66.277,193.264,118.883,230.38c95.098,67.111,108.884-45.864,117.064-150.43
				c8.218-104.566,100.476-601.948,61.884-661.939c-36.964-57.529-74.003-67.187-76.958-67.868
				c6.514,1.099,184.174,30.563,264.881-12.271c82.184-43.591,20.111-13.407-16.777,52.037
				c-36.926,65.406,41.925,317.487,80.517,484.203c38.592,166.715,112.254,490.489,160.126,485.452
				c24.655-2.575,81.653-33.631,131.153-63.171C1899.665,3859.663,1902.051,3881.061,1902.051,3881.061z"/>
			<path style="fill:#991824;" d="M1787.55,2647.48c-74.3,19.16-189.21,30.68-300.36,44.06c-158.84,19.1-327.59-1.06-418.43-22.4
				c-0.92-46.47-2.52-78.36-5.04-86.77l710.05-49.52l3.15-0.22v0.01c0,0,2.46,26.13,6.36,68.4c0.91,9.66,1.86,20.22,2.88,31.47
				C1786.61,2637.37,1787.07,2642.36,1787.55,2647.48z"/>
			<g>
				<path style="fill:#F1F2F2;" d="M1793.239,2717.49c-52.605-24.011-96.5-83.244-131.039-176.866l5.946-0.417
					c38.554,103.317,84.455,150.43,124.487,170.427C1792.861,2712.907,1793.051,2715.179,1793.239,2717.49z"/>
			</g>
			<g>
				<path style="fill:#F1F2F2;" d="M1431.184,2612.43l-55.337,11.248l-0.229,1.492c-0.888,5.538-4.958,150.781,17.08,196.833
					c3.353,7.001,12.896,16.584,25.906,21.118c4.528,1.578,9.027,2.353,13.412,2.353c5.359,0,10.517-1.177,15.302-3.529l1.319-0.66
					L1431.184,2612.43z M1420.007,2839.047c-11.319-3.931-20.375-12.481-23.441-18.909c-19.773-41.318-18.312-175.113-16.85-192.845
					l47.542-9.67l16.851,221.05C1434.91,2842.691,1425.997,2841.142,1420.007,2839.047z"/>
			</g>
			<g>
				<path style="fill:#F1F2F2;" d="M1184.63,2572.14c-2.71,14.64-6.54,29.12-11.5,43.39c-12.54,36.15-32.22,71.08-58.49,103.83
					c-15.14,18.87-30.79,34.86-44.87,47.75c-0.01-2.73-0.02-5.45-0.04-8.14c12.84-12.05,26.79-26.61,40.35-43.52
					c27.24-33.98,56.55-82.45,68.23-142.89L1184.63,2572.14z"/>
			</g>
		</g>
		<g>
			<path style="fill:#FAA878;" d="M1069.641,2046.58c0,0-40.535,48.388-94.119,106.187
				c-60.6,65.364-137.861,142.769-192.034,175.831c-42.956,26.216-121.618-17.368-107.862-81.934
				c7.473-35.077,74.565-134.248,134.288-217.504c50.194-70.01,95.193-128.764,95.193-128.764L1069.641,2046.58z"/>
			<path style="fill:#FA975D;" d="M1069.641,2046.58c0,0-40.535,48.388-94.119,106.187
				c-54.972-19.75-128.031-84.787-165.608-123.608c50.194-70.01,95.193-128.764,95.193-128.764L1069.641,2046.58z"/>
		</g>
		<path style="fill-rule:evenodd;clip-rule:evenodd;fill:#E78E4A;" d="M1779.28,2061.38c0,0,22.646,236.842,71.354,292.617
			c48.707,55.775,138.574,4.509,155.225-63.406s-113.612-383.57-113.612-383.57L1779.28,2061.38z"/>
		<g>
			<g>
				<defs>
					<path id="SVGID_1_" d="M1142.832,1938.168c0.052,51.543-3.416,91.057-9.109,95.323
						c-17.957,13.455-86.947,101.423-86.947,101.423s-231.705-122.168-240.108-165.15c0,0,3.927-5.393,10.876-14.738
						c43.716-58.741,206.863-273.549,263.825-285.172C1126.445,1660.667,1142.753,1827.257,1142.832,1938.168z"/>
				</defs>
				<use xlink:href="#SVGID_1_"  style="overflow:visible;fill:#F44D19;"/>
				<clipPath id="SVGID_00000145775819301191645620000017101131624138602174_">
					<use xlink:href="#SVGID_1_"  style="overflow:visible;"/>
				</clipPath>
				<path style="clip-path:url(#SVGID_00000145775819301191645620000017101131624138602174_);fill:#E64512;" d="M1142.832,1938.168
					c0.052,51.543-3.416,91.057-9.109,95.323c-17.957,13.455-86.947,101.423-86.947,101.423s-231.705-122.168-240.108-165.15
					c0,0,3.927-5.393,10.876-14.738c65.131,71.555,208.125,127.731,244.401,32.381
					C1070.877,1963.931,1111.184,1955.943,1142.832,1938.168z"/>
				<g style="opacity:0.7;clip-path:url(#SVGID_00000145775819301191645620000017101131624138602174_);">
					<path style="fill:none;stroke:#FED5C1;stroke-width:9.9582;stroke-miterlimit:10;" d="M823.89,1884.822
						c1.905,2.858,155.288,190.538,338.205,196.254"/>
					<path style="fill:none;stroke:#FED5C1;stroke-width:9.9582;stroke-miterlimit:10;" d="M878.534,1833.661
						c1.905,2.858,155.288,190.538,338.205,196.254"/>
					<path style="fill:none;stroke:#FED5C1;stroke-width:9.9582;stroke-miterlimit:10;" d="M926.863,1765.722
						c1.905,2.858,155.289,190.538,338.205,196.254"/>
					<path style="fill:none;stroke:#FED5C1;stroke-width:9.9582;stroke-miterlimit:10;" d="M980.405,1698.266
						c1.905,2.858,155.289,190.538,338.205,196.254"/>
				</g>
			</g>
		</g>
		<g>
			<g>
				<defs>
					<path id="SVGID_00000042007023929943242960000012787552908730683050_" d="M1699.625,1911.499
						c-17.355,48.533-27.355,86.918-23.425,92.848c12.397,18.703,68.399,186.53,68.399,186.53s238.719-99.08,261.066-136.746
						c0,0-1.888-6.398-5.297-17.534c-21.455-70.009-103.008-327.125-152.76-357.199
						C1808.234,1655.609,1736.938,1807.053,1699.625,1911.499z"/>
				</defs>
				<use xlink:href="#SVGID_00000042007023929943242960000012787552908730683050_"  style="overflow:visible;fill:#F44D19;"/>
				<clipPath id="SVGID_00000060006305453756372630000008501534000984389537_">
					<use xlink:href="#SVGID_00000042007023929943242960000012787552908730683050_"  style="overflow:visible;"/>
				</clipPath>
				<path style="clip-path:url(#SVGID_00000060006305453756372630000008501534000984389537_);fill:#E64512;" d="M1699.625,1911.499
					c-17.355,48.533-27.355,86.918-23.425,92.848c12.397,18.703,68.399,186.53,68.399,186.53s238.719-99.08,261.066-136.746
					c0,0-1.888-6.398-5.297-17.534c-85.375,45.532-238.93,50.436-241.085-51.559
					C1758.753,1959.926,1723.467,1938.868,1699.625,1911.499z"/>
				<g style="opacity:0.7;clip-path:url(#SVGID_00000060006305453756372630000008501534000984389537_);">
					<path style="fill:none;stroke:#FED5C1;stroke-width:9.9582;stroke-miterlimit:10;" d="M2017.963,1968.337
						c-2.754,2.052-219.662,171.003-393.88,114.971"/>
					<path style="fill:none;stroke:#FED5C1;stroke-width:9.9582;stroke-miterlimit:10;" d="M1983.669,1901.799
						c-2.754,2.052-208.107,161.366-382.324,105.334"/>
					<path style="fill:none;stroke:#FED5C1;stroke-width:9.9582;stroke-miterlimit:10;" d="M1960.957,1821.577
						c-2.754,2.052-201.933,160.659-376.15,104.627"/>
					<path style="fill:none;stroke:#FED5C1;stroke-width:9.9582;stroke-miterlimit:10;" d="M1933.172,1740.06
						c-2.754,2.052-210.249,127.337-384.465,71.306"/>
				</g>
			</g>
		</g>
		<g>
			<path style="fill-rule:evenodd;clip-rule:evenodd;fill:#FAA878;" d="M2119.154,1999.37c0,0-0.327,5.052-1.152,14.62
				c-2.29,26.452-8.455,87.431-22.381,171.813c-17.29,104.76-66.686,257.018-148.07,249.624
				c-53.846-4.882-117.953-51.556-126.238-122.22c-4.241-36.137,6.112-78.544,39.907-124.851
				c99.878-136.866,231.221-363.244,231.221-363.244L2119.154,1999.37z"/>
			<path style="fill:#FA975D;" d="M2118.002,2013.99c-2.29,26.452-8.455,87.431-22.381,171.813
				c-17.29,104.76-66.686,257.018-148.07,249.624c-53.846-4.882-117.953-51.556-126.238-122.22
				c38.337,86.794,133.536,118.043,174.374,64.529c138.09-180.951,6.011-300.501,114.292-359.805
				C2112.688,2016.451,2115.358,2015.129,2118.002,2013.99z"/>
			<path style="fill-rule:evenodd;clip-rule:evenodd;fill:#E78E4A;" d="M1994.717,2002.92
				c-0.855,6.162,33.163,65.126,101.598,47.554c68.435-17.571,153.647-183.5,98.159-235.289S2034.483,1716.231,1994.717,2002.92z"/>
		</g>
		<g>
			<defs>
				<path id="SVGID_00000025413157278285509710000002839949680241737403_" d="M1813.87,2446.235
					c14.573,49.119,36.943,108.565-12.469,146.156c-43.506,33.097-75.984,13.74-207.274,39.276
					c-131.317,25.56-557.441,9.861-557.441-41.235c0-79.594,62.311-351.478,58.95-435.948
					c-3.361-84.494-34.794-475.085-34.794-475.085s35.952-22.579,196.442-55.012c2.124-0.423,33.391-4.844,35.542-5.244
					c131.773-24.995,287.557-5.225,359.399,6.731c15.03,2.494,52.412,13.938,59.106,15.279
					c39.282,7.861,132.607,34.073,132.607,34.073s-58.192,257.268-48.029,423.407
					C1795.909,2098.634,1799.27,2397.116,1813.87,2446.235z"/>
			</defs>
			<use xlink:href="#SVGID_00000025413157278285509710000002839949680241737403_"  style="overflow:visible;fill:#F44D19;"/>
			<clipPath id="SVGID_00000103959923351677480430000010656412590538958269_">
				<use xlink:href="#SVGID_00000025413157278285509710000002839949680241737403_"  style="overflow:visible;"/>
			</clipPath>
			<g style="opacity:0.7;clip-path:url(#SVGID_00000103959923351677480430000010656412590538958269_);">
				<path style="fill:none;stroke:#FED5C1;stroke-width:9.9582;stroke-miterlimit:10;" d="M956.765,1677.3
					c0,0,287.633,124.368,541.806,98.782S1997.685,1665,1997.685,1665"/>
				<path style="fill:none;stroke:#FED5C1;stroke-width:9.9582;stroke-miterlimit:10;" d="M1000.622,1571.725
					c58.871,25.455,236.572,138.673,549.615,107.161c254.173-25.586,508.25-104.706,508.25-104.706"/>
				<path style="fill:none;stroke:#FED5C1;stroke-width:9.9582;stroke-miterlimit:10;" d="M956.765,1776.469
					c0,0,287.633,124.368,541.806,98.782s499.114-111.082,499.114-111.082"/>
				<path style="fill:none;stroke:#FED5C1;stroke-width:9.9582;stroke-miterlimit:10;" d="M956.765,1875.638
					c0,0,287.633,124.368,541.806,98.782s499.114-111.082,499.114-111.082"/>
				<path style="fill:none;stroke:#FED5C1;stroke-width:9.9582;stroke-miterlimit:10;" d="M956.765,1974.806
					c0,0,287.633,124.368,541.806,98.782c254.173-25.586,499.114-111.082,499.114-111.082"/>
				<path style="fill:none;stroke:#FED5C1;stroke-width:9.9582;stroke-miterlimit:10;" d="M956.765,2073.975
					c0,0,287.633,124.368,541.806,98.782c254.173-25.586,499.114-111.082,499.114-111.082"/>
				<path style="fill:none;stroke:#FED5C1;stroke-width:9.9582;stroke-miterlimit:10;" d="M956.765,2173.144
					c0,0,287.633,124.368,541.806,98.782s499.114-111.082,499.114-111.082"/>
				<path style="fill:none;stroke:#FED5C1;stroke-width:9.9582;stroke-miterlimit:10;" d="M956.765,2272.313
					c0,0,286.74,116.279,541.806,98.782c264.598-18.15,502.932-88.486,502.932-88.486"/>
				<path style="fill:none;stroke:#FED5C1;stroke-width:9.9582;stroke-miterlimit:10;" d="M935.409,2369.806
					c0,0,286.74,116.279,541.806,98.782c264.598-18.15,502.932-88.485,502.932-88.485"/>
				<path style="fill:none;stroke:#FED5C1;stroke-width:9.9582;stroke-miterlimit:10;" d="M902.818,2488.889
					c0,0,286.74,116.279,541.806,98.782c264.598-18.15,502.932-88.486,502.932-88.486"/>
			</g>
			<path style="clip-path:url(#SVGID_00000103959923351677480430000010656412590538958269_);fill:#FEE4D8;" d="M1627.958,1651.113
				c0,51.232-73.378,92.74-163.911,92.74c-90.512,0-163.911-41.507-163.911-92.74c0-18.464,9.561-35.682,26.018-50.152
				c103.669-24.946,226.227-5.215,282.747,6.719C1621.063,1620.646,1627.958,1635.421,1627.958,1651.113z"/>
		</g>
		<g>
			<path style="fill:#D1E0E0;" d="M2112.891,1208.608l434.542,294.655c2.171,1.472,3.687,3.855,4.292,6.745l4.311,20.613
				l-29.462,11.781l-419.193-275.368l-569.935,689.096l-33.204-18.784l-0.289-32.978l598.556-693.444
				C2105.484,1207.52,2109.811,1206.555,2112.891,1208.608z"/>
			<path style="fill:#ABB7B7;" d="M2556.03,1530.623l-58.487,67.741l-156.76,181.572l-365.805,423.721l-470.734-266.31
				l157.891-184.122l64.934-75.713l65.24-76.078l29.553-34.467l73.661-85.896l210.603-245.577c2.362-2.759,5.853-3.559,8.32-1.893
				l272.458,183.264l104.115,70.028L2556.03,1530.623z"/>
			<path style="fill:#A0B0B0;" d="M2340.783,1779.936l-365.805,423.721l-470.734-266.31l157.891-184.122
				c64.964,35.77,182.482,58.399,289.679,69.129C2095.044,1836.698,2232.227,1812.002,2340.783,1779.936z"/>
			<path style="fill:#B4C2C2;" d="M2556.03,1530.623l-58.487,67.741c-84.604,19.187-178.555,41.293-226.387,55.261
				c-201.513,58.818-385.705-6.934-478.847-52.19l29.553-34.467l73.661-85.896c0,0,115.431,16.797,155.119,15.803
				c47.769-1.185,144.927-15.286,193.17-28.484c36.06-9.857,143.093-51.525,143.093-51.525l104.115,70.028L2556.03,1530.623z"/>
			<g>
				
					<ellipse transform="matrix(0.4535 -0.8913 0.8913 0.4535 -42.3088 2624.0269)" style="fill:#473F41;" cx="2118.554" cy="1346.513" rx="26.936" ry="21.643"/>
				
					<ellipse transform="matrix(0.4535 -0.8913 0.8913 0.4535 -42.3088 2624.0269)" style="fill:#231F20;" cx="2118.554" cy="1346.513" rx="15.155" ry="12.177"/>
			</g>
		</g>
		<g>
			<path style="fill-rule:evenodd;clip-rule:evenodd;fill:#FAB58D;" d="M2266.307,1962.238v0.668
				c0,30.064-24.515,24.056-40.234,67.981c-13.874,24.502-34.213,16.648-34.213,16.648s-34.685,41.15-58.728,30.051
				c0,0-60.115,40.692-73.06-1.845c-1.466-4.817-2.997-10.17-4.555-15.863c-12.238-44.658-26.426-110.833-26.426-110.833
				s-6.937-49.946,22.656-38.847l-11.688-26.36c0,0-0.34-42.079,39.894-24.044c0,0,21.269-31.648,54.095-4.489
				c0,0,8.324-32.041,48.1-14.005c39.763,18.036,76.751,53.178,86.004,68.44C2277.328,1924.871,2266.477,1932.737,2266.307,1962.238
				z"/>
			<g>
				<g>
					<path style="fill:#BD5B32;" d="M2232.076,1996.91c0.244-11.072,0.683-22.388-1.57-33.305c-0.975-4.726-2.37-9.371-3.529-14.054
						c-1.484-5.997-2.843-12.511-5.987-17.904c-2.388-4.096-5.492-7.862-8.388-11.601c-3.609-4.66-7.314-9.258-11.212-13.682
						c-3.876-4.399-8.247-8.178-12.636-12.058c-5.113-4.521-10.247-9.019-15.5-13.377c-10.195-8.457-20.944-16.25-32.199-23.237
						c-1.764-1.095-3.536-2.178-5.312-3.253c-1.358-0.822-2.567,1.274-1.239,2.119c11.465,7.298,22.751,14.855,33.328,23.406
						c5.038,4.073,9.94,8.311,14.801,12.594c4.758,4.193,9.799,8.229,14.153,12.848c3.75,3.978,7.219,8.229,10.627,12.5
						c3.303,4.14,6.562,8.335,9.571,12.695c3.164,4.585,4.729,9.811,6.144,15.154c1.372,5.182,2.715,10.388,3.995,15.593
						c2.364,9.616,2.285,19.517,2.552,29.357c0.056,2.068,0.104,4.136,0.151,6.204
						C2229.859,1998.357,2232.044,1998.36,2232.076,1996.91L2232.076,1996.91z"/>
				</g>
			</g>
			<g>
				<g>
					<path style="fill:#BD5B32;" d="M2081.299,1858.757c6.377,4.318,12.248,9.4,17.902,14.613
						c5.266,4.855,10.423,9.833,15.321,15.061c8.602,9.182,16.236,19.166,23.294,29.57c7.597,11.199,14.758,22.705,22.007,34.131
						c6.749,10.638,13.464,21.493,17.995,33.297c2.372,6.18,4.111,12.594,5.068,19.147c0.518,3.547,0.786,7.135,0.864,10.718
						c0.085,3.897-0.418,7.84-0.026,11.709c0.114,1.122,1.718,1.487,2.059,0.279c0.945-3.348,0.88-6.916,0.867-10.38
						c-0.012-3.315-0.191-6.63-0.558-9.925c-0.68-6.104-1.973-12.119-3.887-17.956c-3.946-12.032-10.266-23.102-16.908-33.819
						c-7.307-11.791-14.762-23.525-22.434-35.082c-7.057-10.63-14.595-20.945-23.12-30.453c-4.683-5.222-9.631-10.179-14.836-14.88
						c-5.677-5.128-11.405-10.393-17.803-14.619c-1.594-1.052-3.22-2.052-4.877-3.001
						C2081.189,1856.572,2080.326,1858.098,2081.299,1858.757L2081.299,1858.757z"/>
				</g>
			</g>
			<g>
				<g>
					<path style="fill:#BD5B32;" d="M2051.042,1910.903c7.713,8.466,14.784,17.338,21.044,26.94
						c6.243,9.576,11.733,19.626,16.795,29.869c8.991,18.194,17.605,36.897,21.672,56.885c2.223,10.927,3.767,21.984,5.871,32.935
						c0.397,2.066,3.551,1.191,3.155-0.87c-3.584-18.655-5.953-37.557-12.636-55.445c-3.963-10.608-8.783-20.926-13.719-31.112
						c-5.074-10.474-10.549-20.771-16.77-30.613c-6.807-10.77-14.543-21.39-24.003-29.999
						C2051.502,1908.628,2050.176,1909.952,2051.042,1910.903L2051.042,1910.903z"/>
				</g>
			</g>
			<path style="fill:#FAAB7D;" d="M2266.307,1962.238v0.668c0,30.064-24.515,24.056-40.234,67.981
				c-13.874,24.502-34.213,16.648-34.213,16.648s-34.685,41.15-58.728,30.051c0,0-60.115,40.692-73.06-1.845
				c-1.466-4.817-2.997-10.17-4.555-15.863c21.844,12.159,45.862,19.731,62.484-2.781c0,0,68.97-1.559,66.771-30.092
				c0,0,37.498-0.316,44.814-27.382C2229.587,1999.622,2246.244,1964.101,2266.307,1962.238z"/>
		</g>
		<g>
			<g>
				<path style="fill:#FAB58D;" d="M1572.145,1670.555c-18.891,16.276-45.882,27.71-107.838,27.71
					c-53.877,0-98.682-10.858-113.928-40.011c-7.56-14.455-2.672-30.397,3.791-43.83c2.651-5.529,5.572-10.635,8.016-15.032
					c10.813-19.495,4.495-42.387,5.469-53.156c0.228-2.775-3.501-100.117-3.501-100.117l145.414,19.717l32.148,6.639
					c0,9.303,0.041,18.296,0.165,26.844c0.373,26.712,5.448,67.789,5.552,68.277c2.403,10.88,4.453,17.231,7.995,22.359
					c1.678,2.465,3.687,4.641,6.214,6.906C1581.59,1614.691,1596.546,1657.366,1572.145,1670.555z"/>
			</g>
			<path style="fill:#F08E54;" d="M1572.101,1611.777c-25.955,13.456-65.269,20.417-117.051,19.676
				c-37.934-0.544-76.003-10.013-100.881-17.029c2.651-5.529,5.572-10.635,8.016-15.032c10.813-19.495,4.495-42.387,5.469-53.156
				c0.228-2.775-3.501-100.117-3.501-100.117l145.414,19.717l32.148,6.639c0,9.303,0.041,18.296,0.165,26.844
				c0.373,26.712,14.875,21.605,20.053,63.17C1563.315,1573.571,1568.559,1606.648,1572.101,1611.777z"/>
		</g>
		<g>
			<g>
				<path style="fill:#FAB58D;" d="M1835.714,1343.675c9.418,1.821,21.765,1.79,37.493-0.34c1.677-0.218,3.407-0.458,5.178-0.746
					c47.381-7.374,114.279-93.779,92.271-157.109c-0.576-1.728-1.24-3.451-1.984-5.141c-2.797-6.46-6.605-12.631-11.499-18.39
					c-0.981-1.126-1.905-2.182-2.87-3.189c-0.01-0.027-0.047-0.043-0.057-0.07c-52.761-54.807-114.455,71.446-114.455,71.446
					s-21.838,39.966-28.074,68.817c-0.75,3.329-1.268,6.471-1.53,9.413C1808.529,1327.211,1815.433,1339.752,1835.714,1343.675z"/>
				<path style="fill:#FA9467;" d="M1872.126,1315.746c59.941-20.861,63.283-61.306,73.465-79.46
					c18.05-32.154-7.682-87.822-43.194-55.041c-2.239,2.068-4.304,4.191-6.213,6.405c-14.509,16.621-19.892,36.273-22.663,53.33
					c-2.654,16.417-2.94,26.693-22.332,38.922c-1.323,0.821-2.552,1.729-3.707,2.669
					C1827.787,1298.661,1828.553,1330.943,1872.126,1315.746z"/>
				<path style="fill:#F08659;" d="M1835.714,1343.675c9.418,1.821,21.765,1.79,37.493-0.34c1.557-0.45,3.224-0.851,5.033-1.123
					c47.292-7.369,114.011-93.451,92.416-156.732c-0.576-1.728-1.24-3.451-1.984-5.141c-2.812-6.579-6.646-12.895-11.645-18.767
					c-0.991-1.153-1.952-2.225-2.928-3.259c0.062,0.161,0.141,0.286,0.203,0.447c8.13,17.212,17.073,43.222,11.614,66.925
					c-9.203,39.973-59.479,95.088-59.479,95.088s-24.612,20.084-47.305,17.004
					C1852.707,1336.905,1843.453,1337.273,1835.714,1343.675z"/>
				<path style="fill:#F0723C;" d="M1857.713,1309.996c12.695-5.19,26.301-16.929,34.893-40.486
					c6.625-18.166,13.554-45.527,10.777-70.75c-0.686-6.228-5.253-7.482-7.2-11.111c-14.509,16.621-19.892,36.273-22.663,53.33
					c-2.654,16.417-2.94,26.693-22.332,38.922c-1.323,0.821-5.663,4.579-6.819,5.519
					C1830.479,1298.148,1850.055,1313.127,1857.713,1309.996z"/>
			</g>
			<g>
				<path style="fill:#FAB58D;" d="M1029.756,1327.188c-9.424,1.828-21.771,1.806-37.492-0.312
					c-1.676-0.217-3.405-0.455-5.176-0.742c-47.356-7.338-113.964-93.692-91.743-157.039c0.581-1.728,1.252-3.452,2.001-5.142
					c2.818-6.462,6.648-12.636,11.561-18.399c0.985-1.127,1.912-2.183,2.881-3.191c0.01-0.027,0.047-0.043,0.058-0.07
					c52.945-54.848,114.216,71.358,114.216,71.358s21.703,39.949,27.843,68.796c0.739,3.329,1.247,6.47,1.498,9.412
					C1056.996,1310.704,1050.05,1323.249,1029.756,1327.188z"/>
				<path style="fill:#FA9467;" d="M993.438,1299.287c-59.871-20.816-63.077-61.257-73.198-79.404
					c-17.942-32.14,7.977-87.828,43.379-55.074c2.232,2.067,4.29,4.187,6.192,6.4c14.453,16.61,19.771,36.258,22.484,53.313
					c2.599,16.415,2.85,26.691,22.201,38.905c1.32,0.82,2.546,1.727,3.698,2.666
					C1037.834,1282.168,1036.959,1314.451,993.438,1299.287z"/>
				<path style="fill:#F08659;" d="M1029.756,1327.188c-9.424,1.828-21.771,1.806-37.492-0.312
					c-1.556-0.448-3.222-0.848-5.029-1.119c-47.267-7.333-113.697-93.364-91.89-156.661c0.581-1.728,1.252-3.452,2.001-5.142
					c2.834-6.581,6.689-12.9,11.708-18.776c0.995-1.154,1.959-2.226,2.939-3.261c-0.063,0.162-0.142,0.286-0.204,0.447
					c-8.188,17.218-17.219,43.235-11.838,66.934c9.068,39.966,59.159,95.043,59.159,95.043s24.544,20.065,47.248,16.968
					C1012.786,1320.431,1022.038,1320.792,1029.756,1327.188z"/>
				<path style="fill:#F0723C;" d="M1007.869,1293.526c-12.677-5.181-26.244-16.909-34.757-40.46
					c-6.564-18.161-13.401-45.517-10.539-70.742c0.707-6.229,5.278-7.486,7.237-11.116c14.453,16.61,19.771,36.258,22.484,53.313
					c2.599,16.415,2.85,26.691,22.201,38.905c1.32,0.82,5.648,4.574,6.8,5.514
					C1035.144,1281.657,1015.518,1296.651,1007.869,1293.526z"/>
			</g>
			<path style="fill:#612400;" d="M1872.216,1227.716c6.064,0.19,17.759-31.76,20.648-37.246
				c13.149-24.97,23.35-75.026,63.54-232.347c47.668-186.591-348.561-660.055-755.614-457.746
				c-31.394,15.603-41.079,24.667-65.893,59.191c0,0-9.609,14.126,18.119-46.181c8.84-19.226,15.74-34.173,21.04-45.616
				c2.707-5.844-4.171-11.454-9.08-7.394c-45.465,37.601-65.795,87.181-48.68,135.54c0,0-33.465-51.879-77.979-32.996
				c-3.957,1.679-3.746,7.552,0.281,9.027c37.412,13.702,55.706,32.284,51.275,49.63c0,0-71.206-35.721-132.053,28.563
				c-5.617,5.935-3.444,16.307,4.314,18.497c22.028,6.218,32.602-47.409,83.678-25.17c0,0-205.487,219.32-71.056,504.1
				c0,0,52.612,119.168,257.975,75.044C1388.525,1189.137,1801.698,1225.509,1872.216,1227.716z"/>
			<path style="fill:#FAB58D;" d="M1938.811,907.678c-13.997,42.051-25.444,85.764-35.056,130.601
				c-2.616,11.966-5.106,24.039-7.422,36.177c-0.394,2.099-0.792,4.245-1.186,6.345c-3.867,20.306-7.39,40.788-10.654,61.389
				c-4.813,30.539-9.151,61.314-13.14,92.218c-18.363,142.028-134.616,362.705-407.136,347.173
				c-379.544-21.658-386.353-224.729-437.24-348.173c-0.506-1.263-1.013-2.526-1.564-3.794c-0.951-2.24-1.862-4.43-2.733-6.569
				c0,0-11.062-20.518-15.056-60.728c-0.074-0.613-0.103-1.221-0.177-1.834c-7.376-81.101,14.425-240.082,208.218-470.843
				C1508.415,341.062,1972.801,805.96,1938.811,907.678z"/>
			<path style="opacity:0.3;fill:#F36F51;" d="M1215.666,689.64c-193.807,230.811-215.597,389.74-208.194,470.849
				c-0.008-0.002-0.016-0.004-0.024-0.006c0.074,0.613,0.103,1.221,0.177,1.834c3.994,40.21,15.056,60.728,15.056,60.728
				c0.871,2.139,1.782,4.328,2.733,6.569c0.551,1.268,1.058,2.531,1.564,3.794c50.886,123.444,57.695,326.515,437.24,348.173
				c272.521,15.532,388.774-205.145,407.136-347.173c3.989-30.904,8.327-61.679,13.14-92.218
				c3.263-20.602,6.786-41.083,10.654-61.389c0.394-2.099,0.792-4.245,1.186-6.345c1.234-6.406,2.511-12.784,3.81-19.15
				c1.175-5.695,2.376-11.375,3.612-17.027l-0.026,0.008c9.648-44.832,21.067-88.559,35.082-130.609
				C1972.801,805.96,1508.415,341.062,1215.666,689.64z M1768.097,1405.017c-41.635,68.479-119.533,137.507-178.383,150.477
				c-58.899,13.011-154.146,15.174-260.628-17.278c-107.619-32.798-143.192-85.822-198.436-166.207
				c-37.878-55.075-53.243-126.435-59.166-165.925c7.005-35.601-3.218-86.515,3.248-150.397
				c8.325-82.25,59.559-172.157,59.559-172.157l36.884,31.272l67.758-77.707c0,0,154.815,128.363,281.319,117.492
				c126.504-10.871,15.804-29.017,15.804-29.017l194.875,20.392l-30.154-35.548c3.823,2.96,125.846,97.221,144.525,120.817
				c5.857,7.398,16.505,19.864,31.451,33.727C1859.594,1132.192,1803.054,1347.423,1768.097,1405.017z"/>
			<path style="fill:#692700;" d="M1599.102,761.994c0,0,43.467,114.392,194.193,160.284
				c65.666,19.994,134.447,144.131,144.787,162.288c10.34,18.157,75.749-366.276-265.019-518.276
				c-380.974-169.934-613.58,74.934-669.526,293.926c-55.945,218.993-70.608,290.818,61.62,344.854
				c0,0-113.596-141.397,84.712-388.792l10.809,59.314c0,0,43.799-38.551,60.975-105.786c0,0,148.844,183.469,300.03,162.34
				c0,0-63.663-28.315-71.245-41.631c-7.582-13.315,47.411,21.225,176.397,28.711c0,0-33.305-25.979-59.476-32.979
				c0,0,4.876-3.453,119.545,40.184C1686.904,926.431,1622.092,883.069,1599.102,761.994z"/>
			<g>
				<g>
					<g>
						<path style="fill:#692700;" d="M1059.603,638.344c-6.384-0.432-13.113,2.323-18.586,5.366
							c-6.561,3.648-12.726,8.031-18.558,12.748c-12.919,10.448-21.618,24.375-29.036,39.064
							c-18.024,35.693-31.774,73.311-41.494,112.062c-2.496,9.951-5.672,19.714-9.168,29.355
							c-3.545,9.773-7.66,19.333-10.379,29.386c-2.67,9.873-4.372,19.966-6.124,30.032c-1.823,10.478-3.646,20.892-4.671,31.488
							c-1.03,10.644-1.613,21.326-2.563,31.977c-0.862,9.673-2.571,19.201-3.821,28.823c-1.179,9.073-1.383,18.089-0.012,27.156
							c1.491,9.863,4.688,19.397,8.534,28.572c7.156,17.076,16.788,32.946,24.301,49.852c5.873,13.218,11.432,26.654,23.49,35.473
							c3.141,2.297,6.563,4.133,10.133,5.668c1.786,0.768,3.812,0.516,4.889-1.282c0.897-1.497,0.489-4.13-1.282-4.889
							c-6.723-2.881-12.632-6.892-17.315-12.55c-4.195-5.069-7.126-11.142-9.839-17.092c-3.201-7.02-6.215-14.106-9.704-20.993
							c-4.236-8.364-8.718-16.603-12.831-25.03c-8.227-16.854-15.046-34.83-14.379-53.872c0.304-8.676,1.934-17.214,3.147-25.79
							c1.423-10.061,2.137-20.188,2.885-30.317c0.778-10.525,1.587-21.067,3.263-31.494c1.578-9.814,3.336-19.642,5.252-29.396
							c1.912-9.734,4.361-19.343,7.93-28.611c3.66-9.503,7.278-19.02,10.383-28.723c3.044-9.515,5.238-19.211,7.742-28.872
							c2.474-9.547,5.272-19.009,8.36-28.375c6.206-18.82,13.612-37.201,21.671-55.298c6.888-15.468,14.039-31.74,25.463-44.475
							c4.477-4.991,9.745-9.313,15.135-13.277c5.907-4.343,12.254-8.499,18.925-11.578c2.58-1.191,5.409-2.271,8.258-2.536
							C1061.239,640.76,1061.27,638.456,1059.603,638.344L1059.603,638.344z"/>
					</g>
				</g>
				<g>
					<g>
						<path style="fill:#692700;" d="M1059.33,1168.675c-6.778-11.005-10.732-23.639-13.415-36.209
							c-2.88-13.492-4.441-27.286-4.072-41.093c0.169-6.322,0.939-12.491,1.991-18.718c1.36-8.048,2.49-16.132,3.707-24.203
							c2.373-15.737,5.401-31.331,10.96-46.293c2.87-7.724,5.375-15.443,7.282-23.468c1.838-7.73,3.303-15.542,5.099-23.281
							c3.55-15.3,8.254-30.108,17.221-43.169c16.827-24.509,43.161-42.144,55.347-69.887c3.19-7.262,5.574-14.825,8.271-22.274
							c1.38-3.812,2.833-7.6,4.559-11.271c1.574-3.347,3.427-6.552,5.088-9.855c6.204-12.332,11.305-25.782,20.942-35.961
							c1.248-1.319,2.016-2.696,2.916-4.255c0.938-1.625,2.226-2.947,3.533-4.282c1.011-1.032-0.261-2.528-1.489-1.929
							c-1.557,0.759-3.044,1.656-4.603,2.398c-1.828,0.872-3.526,1.536-4.947,3.033c-2.474,2.607-4.679,5.516-6.682,8.496
							c-3.956,5.884-7.052,12.286-10.035,18.701c-3.115,6.699-6.55,13.249-9.653,19.946c-3.443,7.432-5.889,15.249-8.545,22.981
							c-2.598,7.566-5.473,14.977-9.648,21.832c-3.861,6.339-8.453,12.185-13.297,17.797c-9.94,11.515-20.96,22.087-30.365,34.066
							c-4.595,5.853-8.886,12.014-12.14,18.726c-3.498,7.217-5.994,14.878-7.957,22.641c-3.984,15.75-6.111,31.93-10.981,47.463
							c-2.529,8.064-5.83,15.828-8.101,23.984c-2.126,7.635-3.713,15.404-5.027,23.216c-1.33,7.904-2.408,15.848-3.6,23.773
							c-1.086,7.216-2.574,14.396-3.231,21.669c-1.214,13.427-0.266,27.068,1.911,40.348c2.189,13.351,5.885,26.681,11.879,38.85
							c1.32,2.679,2.775,5.287,4.383,7.805C1057.709,1171.943,1060.392,1170.399,1059.33,1168.675L1059.33,1168.675z"/>
					</g>
				</g>
				<g>
					<g>
						<path style="fill:#692700;" d="M1205.469,743.786c-2.134,7.481-0.803,16.038,1.553,23.334
							c2.497,7.736,6.525,14.912,11.236,21.505c9.771,13.675,22.62,24.949,35.089,36.08c6.114,5.458,11.999,11.186,18.198,16.544
							c7.964,6.883,16.456,13.169,25.327,18.833c17.744,11.328,37.083,20.256,57.167,26.554c10.742,3.368,21.648,6.212,32.475,9.287
							c10.976,3.117,21.895,6.478,32.737,10.032c2.65,0.869,5.283,1.776,7.941,2.622c2.798,0.89,4.707-3.461,2.022-4.797
							c-10.158-5.054-21.044-8.46-31.911-11.612c-10.806-3.134-21.694-5.971-32.523-9.021c-10.039-2.827-19.931-6.022-29.583-9.988
							c-9.468-3.89-18.677-8.448-27.546-13.557c-8.841-5.093-17.388-10.754-25.419-17.052c-6.981-5.474-13.358-11.586-19.973-17.479
							c-12.119-10.797-24.605-21.31-35.12-33.739c-9.877-11.675-18.798-25.494-18.846-41.321c-0.006-1.951,0.014-3.89,0.029-5.84
							C1208.334,742.527,1205.918,742.212,1205.469,743.786L1205.469,743.786z"/>
					</g>
				</g>
				<g>
					<g>
						<path style="fill:#692700;" d="M1590.365,734.209c0.764,6.548,2.706,12.888,4.914,19.079
							c2.479,6.951,5.485,13.668,8.707,20.303c6.967,14.349,14.785,28.143,23.99,41.185c4.747,6.726,9.731,13.285,15.166,19.473
							c5.256,5.985,10.911,11.598,16.7,17.065c11.645,10.999,23.88,21.352,35.574,32.297c5.576,5.219,10.802,10.827,16.693,15.698
							c5.849,4.836,12.097,9.162,18.539,13.166c12.901,8.019,26.515,14.81,39.459,22.757c6.656,4.087,13.044,8.521,19.933,12.229
							c7.122,3.834,14.474,7.214,21.818,10.596c7.358,3.388,14.719,6.788,21.845,10.647c7.227,3.913,13.862,8.572,20.733,13.048
							c6.393,4.164,13.019,7.972,19.269,12.355c6.422,4.504,11.863,9.773,16.856,15.805c5.579,6.739,11.189,13.487,17.031,20
							c4.568,5.093,10.327,8.87,15.175,13.667c1.924,1.904,4.366,4.184,5.304,6.807c0.961,2.687,5.279,1.529,4.307-1.188
							c-2.311-6.462-6.784-11.275-11.567-16.071c-2.427-2.433-4.979-4.761-7.329-7.268c-2.745-2.928-5.263-6.096-7.846-9.165
							c-5.491-6.525-10.565-13.614-16.644-19.605c-5.512-5.432-11.877-9.916-18.365-14.096c-6.579-4.239-13.131-8.456-19.58-12.891
							c-6.686-4.599-13.8-8.503-21.075-12.082c-14.441-7.104-29.486-13.027-43.309-21.341c-6.57-3.952-12.879-8.289-19.527-12.124
							c-6.588-3.8-13.28-7.416-19.907-11.148c-13.003-7.324-25.983-15.121-36.703-25.626c-11.334-11.106-23.231-21.549-35.03-32.152
							c-11.675-10.492-23.219-21.305-33.296-33.372c-10.74-12.861-20.204-26.909-28.207-41.622
							c-3.298-6.063-6.511-12.174-9.48-18.405c-3.08-6.464-6.167-12.929-8.353-19.763c-0.916-2.866-1.686-5.778-2.174-8.749
							C1593.652,731.693,1590.124,732.142,1590.365,734.209L1590.365,734.209z"/>
					</g>
				</g>
				<g>
					<g>
						<path style="fill:#692700;" d="M1172.291,542.825c34.599-45.548,86.483-76.717,142.554-87.353
							c27.71-5.256,56.475-5.398,84.159,0.111c34.358,6.837,65.886,23.193,100.033,30.921c17.316,3.919,34.83,6.877,52.126,10.904
							c16.854,3.924,33.569,8.44,50.108,13.532c33.13,10.201,65.547,22.706,96.934,37.42c31.248,14.649,62.271,31.101,90.715,50.717
							c14.427,9.95,27.481,21.413,38.499,35.078c10.879,13.492,20.077,28.309,29.387,42.899
							c36.518,57.229,70.021,117.006,86.115,183.501c1.937,8.002,3.568,16.07,4.92,24.191c0.511,3.07,5.055,1.725,4.631-1.277
							c-9.727-68.874-42.528-131.624-78.737-190.062c-9.08-14.654-18.297-29.263-27.973-43.531
							c-9.778-14.419-20.481-28.217-33.608-39.761c-13.14-11.555-27.917-21.054-42.884-30.039
							c-15.299-9.184-30.927-17.82-46.843-25.888c-63.207-32.042-130.521-54.592-200.028-68.155
							c-18.538-3.618-36.758-7.717-54.642-13.873c-17.332-5.966-34.356-12.88-52.039-17.784
							c-27.493-7.625-56.392-9.503-84.692-6.063c-56.276,6.842-110.36,33.989-148.091,76.533
							c-4.676,5.272-9.079,10.775-13.249,16.456C1168.531,542.878,1171.137,544.343,1172.291,542.825L1172.291,542.825z"/>
					</g>
				</g>
			</g>
			<g>
				<g>
					<path style="fill:#692700;" d="M1670.497,1004.404c0.119,0.141,0.222,0.292,0.308,0.455c-0.309-0.732-0.618-1.464-0.927-2.197
						c0.458,1.564,1.314,3.3,2.516,4.403c1.401,1.286,2.874,1.895,4.63,2.633c-0.771-0.326-1.543-0.651-2.314-0.977
						c3.891,1.898,7.901,3.477,11.888,5.158c-0.962-0.406-1.923-0.812-2.885-1.218c2.948,1.249,5.93,2.494,8.978,3.494
						c2.186,0.717,4.449,1.241,6.656,1.894c4.435,1.313,8.791,2.85,13.198,4.244c8.823,2.791,17.517,5.916,26.047,9.509
						c-1.102-0.465-2.203-0.93-3.305-1.395c15.576,6.589,30.677,14.541,44.957,23.603c1.953,1.239,3.846,2.619,5.856,3.76
						c2.142,1.217,4.316,2.36,6.494,3.511c5.562,2.938,12.261,1.818,16.159-3.226c3.74-4.841,3.515-12.055-0.979-16.447
						c-6.997-6.838-15.222-12.171-23.527-17.282c-7.472-4.598-15.184-8.736-23.108-12.501
						c-16.695-7.931-34.117-14.812-52.181-18.863c-5.714-1.281-11.393-2.308-17.242-2.756c-2.384-0.182-4.825-0.047-7.215,0
						c-1.22,0.024-2.41,0.154-3.621,0.301c-0.569,0.069-1.137,0.131-1.707,0.191c-1.726,0.182-3.325,0.423-4.838,1.309
						c-1.494,0.874-2.545,2.169-3.529,3.567c0.479-0.62,0.959-1.241,1.438-1.861c-0.064,0.055-0.129,0.11-0.193,0.166
						c0.598-0.462,1.196-0.924,1.794-1.386c-0.092,0.064-0.183,0.128-0.275,0.192c-1.774,1.241-3.432,2.908-3.936,5.118
						C1669.157,999.894,1669.137,1002.614,1670.497,1004.404L1670.497,1004.404z"/>
				</g>
			</g>
			<g>
				<g>
					<path style="fill:#692700;" d="M1284.72,996.458c-0.543-0.438-0.973-0.872-1.548-1.317c-0.926-0.847-2.012-1.419-3.26-1.716
						c-0.994-0.136-1.988-0.269-2.982-0.399c0.859,0.115,1.719,0.231,2.578,0.346c-4.876-0.816-9.929-1.466-14.898-1.285
						c-5.319,0.194-10.544,1.012-15.778,1.938c-4.227,0.748-8.514,1.476-12.667,2.574c-4.161,1.1-8.297,2.297-12.403,3.588
						c-8.152,2.563-16.186,5.498-24.071,8.791c-8.947,3.737-17.768,7.693-26.278,12.349c-4.243,2.321-8.425,4.752-12.543,7.29
						c-2.94,1.812-5.726,3.67-8.462,5.789c-1.946,1.507-3.806,3.076-5.636,4.722c-2.213,1.991-3.801,5.9-3.669,8.857
						c0.127,2.828,0.95,5.338,2.689,7.59c1.599,2.07,3.884,3.891,6.507,4.489c1.11,0.149,2.22,0.298,3.33,0.448
						c2.261-0.007,4.369-0.577,6.322-1.71c2.125-1.015,4.241-2.033,6.342-3.098c1.958-0.992,3.807-2.215,5.705-3.32
						c3.865-2.25,7.783-4.408,11.75-6.472c7.982-4.152,16.122-8.04,24.411-11.538c-1.103,0.465-2.205,0.931-3.308,1.396
						c9.293-3.905,18.786-7.326,28.442-10.221c4.749-1.423,9.532-2.744,14.303-4.091c2.382-0.673,4.774-1.314,7.174-1.922
						c2.388-0.605,4.848-1.047,7.203-1.762c6.093-1.848,12.027-4.133,17.85-6.68c-0.772,0.326-1.544,0.652-2.316,0.977
						c1.685-0.664,3.358-1.234,4.634-2.625c0.669-0.728,1.215-1.584,1.755-2.402c-0.463,0.599-0.925,1.198-1.388,1.797
						c0.071-0.091,0.141-0.182,0.212-0.273c1.392-1.792,2.616-3.645,2.508-6.055
						C1287.133,1000.386,1286.453,997.856,1284.72,996.458L1284.72,996.458z"/>
				</g>
			</g>
			<g>
				<g>
					<g>
						<path style="fill:#94271C;" d="M1148.168,764.271c-16.637,19.063-31.767,39.301-45.111,60.801
							c-13.451,21.672-25.295,44.34-35.431,67.747c-10.137,23.41-18.483,47.556-25.019,72.215
							c-6.811,25.697-11.797,51.982-14.339,78.454c-1.354,14.1-1.931,28.277-1.397,42.437c0.264,6.986,0.792,13.963,1.622,20.905
							c0.835,6.98,1.843,14.136,3.705,20.925c0.924,3.368,1.936,6.71,3.022,10.03c0.674,2.061,3.649,1.22,3.231-0.891
							c-2.715-13.687-4.792-27.611-5.731-41.538c-0.943-13.995-0.761-28.063,0.218-42.051c1.845-26.37,6.465-52.579,12.815-78.223
							c6.051-24.434,13.931-48.378,23.32-71.729c9.357-23.27,20.436-45.857,33.063-67.526c12.599-21.62,26.675-42.554,42.064-62.287
							c1.931-2.476,3.887-4.933,5.863-7.373C1151.129,764.85,1149.317,762.954,1148.168,764.271L1148.168,764.271z"/>
					</g>
				</g>
				<g>
					<g>
						<path style="fill:#94271C;" d="M1251.93,755.961c10.07,15.455,23.285,28.457,37.041,40.616
							c13.795,12.194,27.947,24.022,42.126,35.765c14.26,11.81,28.739,23.37,43.674,34.319c14.754,10.815,30.19,20.812,46.12,29.805
							c7.95,4.488,16.055,8.707,24.318,12.59c4.171,1.96,8.384,3.826,12.632,5.615c4.197,1.767,8.402,3.247,12.771,4.531
							c2.208,0.649,4.423,1.27,6.645,1.867c2.148,0.578,2.816-2.423,0.891-3.231c-4.146-1.74-8.197-3.673-12.3-5.508
							c-4.13-1.847-8.38-3.432-12.514-5.278c-8.203-3.662-16.252-7.664-24.15-11.941c-15.957-8.642-31.289-18.404-46.144-28.817
							c-14.962-10.487-29.602-21.378-43.948-32.695c-14.383-11.346-28.555-22.961-42.708-34.592
							c-14.114-11.599-28.066-23.721-39.218-38.291c-1.374-1.796-2.7-3.627-3.983-5.489
							C1252.659,754.467,1251.415,755.171,1251.93,755.961L1251.93,755.961z"/>
					</g>
				</g>
				<g>
					<g>
						<path style="fill:#94271C;" d="M1277.086,686.98c4.625,8.886,9.481,17.651,14.573,26.279
							c5.006,8.484,10.412,16.719,15.998,24.831c11.266,16.359,23.401,32.124,36.344,47.192
							c12.805,14.908,26.385,29.264,41.604,41.743c15.8,12.956,33.443,22.963,51.355,32.657c9.577,5.183,19.172,10.334,28.76,15.499
							c9.686,5.219,19.313,10.547,29.185,15.407c2.396,1.18,4.793,2.36,7.189,3.539c1.597,0.786,2.977-1.494,1.409-2.411
							c-4.737-2.769-9.417-5.692-14.249-8.292c-4.696-2.527-9.399-5.04-14.098-7.56c-9.619-5.158-19.238-10.316-28.857-15.474
							c-18.07-9.69-36.382-19.105-52.784-31.518c-15.557-11.772-29.394-25.689-42.35-40.226
							c-13.138-14.741-25.475-30.195-36.952-46.263c-5.774-8.083-11.195-16.381-16.66-24.672
							c-5.429-8.236-10.661-16.6-15.659-25.105c-1.23-2.094-2.446-4.196-3.65-6.305
							C1277.814,685.552,1276.689,686.218,1277.086,686.98L1277.086,686.98z"/>
					</g>
				</g>
				<g>
					<g>
						<path style="fill:#94271C;" d="M1918.742,995.615c-2.222-2.85-4.445-5.699-6.674-8.543c-2.236-2.852-4.284-5.894-6.579-8.687
							c-4.591-5.588-9.346-11.055-14.13-16.478c-9.409-10.666-19.188-21.013-29.623-30.685
							c-10.346-9.588-21.347-18.59-33.069-26.451c-12.501-8.384-25.926-14.954-39.704-20.948
							c-13.989-6.086-28.163-11.846-41.405-19.479c-11.259-6.49-21.893-14.075-31.751-22.537
							c-19.947-17.123-36.825-37.522-51.793-59.058c-3.761-5.411-7.409-10.9-10.966-16.447c-1.829-2.851-3.649-5.707-5.444-8.579
							c-1.802-2.882-3.837-5.613-5.612-8.5c-7.047-11.457-13.815-23.083-20.496-34.756c-1.626-2.842-3.35-5.63-5.032-8.439
							c-0.965-1.612-3.358-0.192-2.507,1.466c6.166,12.01,12.733,23.814,19.44,35.531c1.685,2.943,3.381,5.88,5.102,8.802
							c0.821,1.395,1.444,2.893,2.224,4.311c0.853,1.552,1.834,3.046,2.761,4.555c3.498,5.697,7.096,11.331,10.803,16.895
							c14.704,22.068,31.114,43.235,50.535,61.375c9.448,8.825,19.618,17.045,30.528,24.004
							c12.467,7.952,25.824,14.094,39.437,19.799c14.288,5.988,28.711,11.722,42.173,19.456
							c12.179,6.996,23.572,15.283,34.158,24.501c10.826,9.427,20.905,19.674,30.584,30.265c4.879,5.338,9.648,10.775,14.348,16.271
							c2.291,2.678,4.475,5.48,6.843,8.089c2.422,2.668,4.917,5.254,7.289,7.977c2.306,2.646,4.605,5.298,6.904,7.95
							C1918.091,998.436,1919.647,996.775,1918.742,995.615L1918.742,995.615z"/>
					</g>
				</g>
				<g>
					<g>
						<path style="fill:#94271C;" d="M1720.649,703.912c10.607,16.372,23.313,31.255,36.836,45.275
							c13.547,14.046,27.954,27.209,42.106,40.634c14.348,13.61,28.305,27.591,41.228,42.575
							c13.017,15.092,25.073,31.014,36.199,47.548c5.587,8.302,10.918,16.777,15.984,25.408c5.07,8.637,10.216,17.233,15.016,26.025
							c1.191,2.181,2.374,4.365,3.581,6.536c0.537,0.967,2.286,0.296,1.837-0.774c-7.781-18.535-17.64-36.071-28.516-52.948
							c-10.884-16.887-22.857-33.035-35.809-48.393c-12.745-15.112-26.494-29.278-40.824-42.885
							c-14.207-13.49-28.778-26.592-42.79-40.287c-13.958-13.644-27.316-28.009-38.685-43.911c-1.411-1.973-2.789-3.969-4.137-5.985
							C1721.84,701.483,1719.823,702.637,1720.649,703.912L1720.649,703.912z"/>
					</g>
				</g>
				<g>
					<g>
						<path style="fill:#94271C;" d="M1361.473,642.01c4.136,17.763,9.364,35.222,16.068,52.187
							c6.673,16.886,14.392,33.358,23.125,49.277c8.685,15.834,18.364,31.123,28.969,45.741
							c10.599,14.611,22.067,28.668,34.509,41.753c12.367,13.006,25.586,25.161,39.517,36.473c1.815,1.474,3.592,2.808,5.616,3.98
							c1.881,1.089,3.789-1.423,2.301-2.982c-3.095-3.241-6.75-5.899-10.17-8.796c-3.38-2.863-6.713-5.783-9.997-8.756
							c-6.627-5.998-13.055-12.215-19.277-18.632c-12.383-12.771-24.072-26.226-34.807-40.413
							c-10.816-14.293-20.734-29.266-29.683-44.796c-8.983-15.589-17.016-31.741-23.96-48.34
							c-6.947-16.607-13.121-33.643-18.225-50.907c-0.628-2.123-1.237-4.251-1.832-6.384
							C1363.24,640.029,1361.147,640.611,1361.473,642.01L1361.473,642.01z"/>
					</g>
				</g>
				<g>
					<g>
						<path style="fill:#94271C;" d="M1446.031,639.123c5.905,19.563,13.126,38.77,21.697,57.322
							c8.528,18.459,18.165,36.395,28.617,53.833c10.484,17.491,21.746,34.534,33.687,51.064
							c12.018,16.637,24.595,32.867,37.504,48.82c12.849,15.879,25.905,31.584,39.786,46.572c1.732,1.871,3.476,3.719,5.278,5.522
							c1.124,1.125,3.295-0.404,2.28-1.759c-12.184-16.278-25.786-31.488-38.676-47.204c-12.905-15.734-25.504-31.721-37.574-48.106
							c-12.065-16.378-23.715-33.077-34.57-50.284c-10.807-17.13-20.849-34.753-29.833-52.909
							c-9.012-18.214-17.137-36.889-23.872-56.068c-0.853-2.429-1.683-4.865-2.494-7.309
							C1447.48,637.467,1445.676,637.944,1446.031,639.123L1446.031,639.123z"/>
					</g>
				</g>
				<g>
					<g>
						<path style="fill:#94271C;" d="M1639.871,569.418c9.981,5.273,19.864,10.759,29.718,16.266
							c9.752,5.45,19.369,11.142,28.842,17.064c19.103,11.943,37.703,24.684,55.623,38.34
							c17.912,13.649,35.145,28.198,51.646,43.522c16.588,15.405,32.433,31.609,47.46,48.54
							c7.476,8.423,14.764,17.023,21.906,25.731c3.619,4.412,7.183,8.868,10.692,13.367c1.73,2.218,3.366,4.531,5.16,6.696
							c0.866,1.045,1.863,1.974,2.691,3.053c0.928,1.208,1.852,2.419,2.772,3.633c1.665,2.197,3.316,4.405,4.955,6.621
							c1.13,1.528,3.711,0.108,2.604-1.522c-1.625-2.391-3.263-4.773-4.917-7.143c-0.785-1.126-1.574-2.249-2.366-3.37
							c-0.875-1.239-1.57-2.58-2.41-3.84c-3.11-4.667-6.738-9.072-10.162-13.511c-7.009-9.087-14.228-17.996-21.749-26.665
							c-14.887-17.159-30.606-33.596-47.082-49.234c-16.436-15.601-33.625-30.408-51.493-44.346
							c-17.914-13.975-36.466-27.208-55.721-39.278c-19.098-11.971-38.725-23.271-59.183-32.756
							c-2.537-1.176-5.082-2.336-7.634-3.482C1639.683,566.412,1638.318,568.597,1639.871,569.418L1639.871,569.418z"/>
					</g>
				</g>
				<g>
					<g>
						<path style="fill:#94271C;" d="M1156.712,675.128c-8.349,4.893-16.309,10.312-23.826,16.407
							c-7.479,6.064-14.583,12.588-21.312,19.474c-13.647,13.966-25.723,29.416-36.423,45.737
							c-11.123,16.966-20.716,34.888-29.127,53.341c-9.281,20.363-17.053,41.38-24.022,62.637
							c-7.017,21.405-13.228,43.045-18.98,64.821c-0.714,2.705-1.388,5.381-1.896,8.133c-0.341,1.845,2.145,2.526,2.8,0.772
							c1.946-5.213,3.343-10.624,4.918-15.96c1.577-5.341,3.178-10.675,4.732-16.023c3.106-10.692,6.314-21.355,9.702-31.961
							c6.778-21.213,14.318-42.181,23.091-62.655c8.066-18.825,17.272-37.175,28.02-54.619
							c10.125-16.433,21.59-32.069,34.553-46.382c12.848-14.185,27.261-26.883,42.828-38.012c1.944-1.39,3.912-2.746,5.9-4.072
							C1158.678,676.095,1157.777,674.504,1156.712,675.128L1156.712,675.128z"/>
					</g>
				</g>
			</g>
			
				<radialGradient id="SVGID_00000173879226797536615210000017229616535670932611_" cx="1154.3531" cy="1387.9229" r="118.8721" gradientTransform="matrix(0.9643 0.2701 -0.265 0.991 507.3283 -376.6014)" gradientUnits="userSpaceOnUse">
				<stop  offset="0" style="stop-color:#EF5363"/>
				<stop  offset="0.1524" style="stop-color:#EF5767"/>
				<stop  offset="0.3052" style="stop-color:#F06372"/>
				<stop  offset="0.4582" style="stop-color:#F27784"/>
				<stop  offset="0.6115" style="stop-color:#F5939D"/>
				<stop  offset="0.765" style="stop-color:#F8B8BE"/>
				<stop  offset="0.9166" style="stop-color:#FCE4E6"/>
				<stop  offset="1" style="stop-color:#FFFFFF"/>
			</radialGradient>
			<path style="opacity:0.3;fill:url(#SVGID_00000173879226797536615210000017229616535670932611_);" d="M1373.667,1344.426
				c-18.362,68.666-87.419,109.169-154.246,90.452c-66.819-18.715-106.099-89.562-87.737-158.228
				c18.362-68.666,87.417-109.16,154.235-90.445C1352.747,1204.922,1392.03,1275.759,1373.667,1344.426z"/>
			
				<radialGradient id="SVGID_00000053515911293059340120000005718386994458467769_" cx="1585.1091" cy="1254.5861" r="118.8721" gradientTransform="matrix(0.9643 0.2701 -0.265 0.991 507.3283 -376.6014)" gradientUnits="userSpaceOnUse">
				<stop  offset="0" style="stop-color:#EF5363"/>
				<stop  offset="0.1524" style="stop-color:#EF5767"/>
				<stop  offset="0.3052" style="stop-color:#F06372"/>
				<stop  offset="0.4582" style="stop-color:#F27784"/>
				<stop  offset="0.6115" style="stop-color:#F5939D"/>
				<stop  offset="0.765" style="stop-color:#F8B8BE"/>
				<stop  offset="0.9166" style="stop-color:#FCE4E6"/>
				<stop  offset="1" style="stop-color:#FFFFFF"/>
			</radialGradient>
			<path style="opacity:0.3;fill:url(#SVGID_00000053515911293059340120000005718386994458467769_);" d="M1824.376,1328.636
				c-18.362,68.666-87.418,109.169-154.246,90.452c-66.819-18.715-106.099-89.562-87.737-158.228
				c18.362-68.666,87.416-109.16,154.235-90.445C1803.456,1189.132,1842.738,1259.97,1824.376,1328.636z"/>
			<g>
				
					<ellipse transform="matrix(0.2303 -0.9731 0.9731 0.2303 -163.2502 2110.8071)" style="fill:#F08659;" cx="1252.724" cy="1158.602" rx="71.626" ry="77.451"/>
				<path style="fill:#494746;" d="M1324.053,1179.988c-6.929,38.15-43.167,63.347-85.27,55.368
					c-42.103-7.979-67.549-42.197-60.62-80.347c6.929-38.15,46.678-62.607,88.782-54.628
					C1309.048,1108.36,1330.982,1141.838,1324.053,1179.988z"/>
				<g>
					<defs>
						<path id="SVGID_00000047747296420237248280000008276686065743229885_" d="M1317.938,1187.7
							c-6.73,37.052-40.558,57.566-80.91,49.918c-40.351-7.647-58.492-38.01-51.762-75.063c6.73-37.052,44.897-60.89,85.248-53.243
							C1310.865,1116.96,1324.668,1150.648,1317.938,1187.7z"/>
					</defs>
					<clipPath id="SVGID_00000161629212062943376030000006032346078149122968_">
						<use xlink:href="#SVGID_00000047747296420237248280000008276686065743229885_"  style="overflow:visible;"/>
					</clipPath>
					<path style="clip-path:url(#SVGID_00000161629212062943376030000006032346078149122968_);fill:#FFFFFF;" d="M1317.938,1187.7
						c-6.73,37.052-40.558,57.566-80.91,49.918c-40.351-7.647-58.492-38.01-51.762-75.063c6.73-37.052,44.897-60.89,85.248-53.243
						C1310.865,1116.96,1324.668,1150.648,1317.938,1187.7z"/>
					<g style="clip-path:url(#SVGID_00000161629212062943376030000006032346078149122968_);">
						<path style="fill:#494746;" d="M1294.111,1136.363c-15.967-25.282-43.785-32.181-68.434-15.73s-34.511,48.5-18.545,73.781
							c15.967,25.282,47.262,29.859,71.911,13.408C1303.693,1191.37,1310.077,1161.645,1294.111,1136.363z"/>
						
							<ellipse transform="matrix(0.0392 -0.9992 0.9992 0.0392 76.0902 2415.7983)" style="fill:#FFFFFF;" cx="1294.21" cy="1168.334" rx="15.109" ry="14.71"/>
					</g>
				</g>
			</g>
			<g>
				
					<ellipse transform="matrix(0.3094 -0.9509 0.9509 0.3094 80.1286 2427.1697)" style="fill:#F08659;" cx="1711.208" cy="1158.415" rx="71.571" ry="77.51"/>
				<path style="fill:#494746;" d="M1637.652,1147.455c-9.256,37.63,13.41,75.978,54.934,86.668
					c41.524,10.69,78.605-9.569,87.861-47.199c9.256-37.63-16.903-76.802-58.428-87.492
					C1680.495,1088.742,1646.908,1109.825,1637.652,1147.455z"/>
				<g>
					<defs>
						<path id="SVGID_00000068673047748920623990000011059958831706852228_" d="M1640.066,1157.072
							c-8.99,36.548,13.396,69.611,53.192,79.856c39.796,10.245,68.666-9.623,77.656-46.171c8.99-36.548-15.984-74.481-55.78-84.727
							C1675.337,1095.785,1649.055,1120.524,1640.066,1157.072z"/>
					</defs>
					<clipPath id="SVGID_00000122001385295975095380000001737101328128684420_">
						<use xlink:href="#SVGID_00000068673047748920623990000011059958831706852228_"  style="overflow:visible;"/>
					</clipPath>
					<path style="clip-path:url(#SVGID_00000122001385295975095380000001737101328128684420_);fill:#FFFFFF;" d="M1640.066,1157.072
						c-8.99,36.548,13.396,69.611,53.192,79.856c39.796,10.245,68.666-9.623,77.656-46.171c8.99-36.548-15.984-74.481-55.78-84.727
						C1675.337,1095.785,1649.055,1120.524,1640.066,1157.072z"/>
					<g style="clip-path:url(#SVGID_00000122001385295975095380000001737101328128684420_);">
						<path style="fill:#494746;" d="M1735.569,1199.388c-19.791,22.328-48.344,24.571-70.043,4.291
							c-21.698-20.28-26.315-53.524-6.524-75.852s51.405-21.709,73.103-1.429C1753.804,1146.678,1755.36,1177.06,1735.569,1199.388z
							"/>
						
							<ellipse transform="matrix(0.0392 -0.9992 0.9992 0.0392 505.6404 2861.5549)" style="fill:#FFFFFF;" cx="1740.77" cy="1167.855" rx="15.109" ry="14.71"/>
					</g>
				</g>
			</g>
			<g>
				<g>
					<path style="fill:#BD5B32;" d="M1513.769,1281.741c5.363-2.035,10.341-4.712,14.708-8.456
						c3.619-3.103,6.798-6.812,9.322-10.857c4.006-6.42,6.573-14.484,3.519-21.788c-1.769-4.232-4.027-8.142-7.324-11.392
						c-3.92-3.864-8.79-6.443-13.935-8.279c-9.584-3.419-19.748-2.356-29.394,0.319c-5.395,1.496-10.7,3.542-15.678,6.104
						c-3.818,1.965-7.834,4.392-10.651,7.686c3.4,0.898,6.8,1.795,10.2,2.693c-1.08-4.502-1.933-9.044-2.614-13.623
						c-0.167-1.124,0.026,0.164,0.041,0.329c-0.026-0.293-0.077-0.587-0.113-0.879c-0.073-0.586-0.142-1.172-0.207-1.758
						c-0.129-1.166-0.242-2.334-0.335-3.503c-0.188-2.352-0.302-4.71-0.315-7.07c-0.025-4.484,0.517-8.88,1.068-13.321
						c0.065-0.52,0.132-1.04,0.199-1.56c0.149-1.151-0.015,0.183-0.047,0.345c0.057-0.294,0.083-0.602,0.126-0.899
						c0.182-1.282,0.377-2.563,0.585-3.841c0.399-2.443,0.849-4.879,1.364-7.3c0.59-2.778,1.263-5.539,2.036-8.273
						c0.392-1.388,0.82-2.764,1.254-4.14c0.459-1.456,0.625-3.026,0.93-4.522c0.56-2.752-0.568-5.464-3.234-6.588
						c-2.513-1.06-5.586-0.146-6.974,2.285c-1.562,2.736-2.748,5.487-3.668,8.501c-0.74,2.424-1.4,4.872-1.99,7.337
						c-1.181,4.936-2.083,9.936-2.805,14.959c-0.731,5.087-1.426,10.208-1.439,15.356c-0.013,5.17,0.521,10.307,1.227,15.423
						c0.742,5.384,1.806,10.719,3.143,15.987c1.06,4.177,7.225,6.265,10.2,2.693c0.439-0.527,0.911-1.022,1.412-1.491
						c0.22-0.206,0.445-0.406,0.673-0.602c0.415-0.357,1.907-1.39,0.086-0.107c1.463-1.031,2.925-2.026,4.482-2.913
						c1.764-1.005,3.583-1.911,5.435-2.743c0.396-0.178,2.273-0.887,0.387-0.183c0.471-0.176,0.932-0.383,1.4-0.568
						c1.11-0.438,2.23-0.851,3.358-1.24c4.198-1.444,8.499-2.52,12.887-3.193c0.968-0.148-0.524,0.075-0.584,0.078
						c0.267-0.013,0.539-0.065,0.805-0.095c0.477-0.052,0.955-0.098,1.433-0.136c1.078-0.086,2.159-0.136,3.241-0.135
						c0.926,0.001,1.853,0.038,2.776,0.12c0.188,0.017,0.375,0.039,0.562,0.055c1.069,0.095-1.324-0.221-0.581-0.084
						c0.486,0.089,0.974,0.158,1.457,0.262c1.16,0.25,2.307,0.585,3.439,0.941c0.578,0.182,1.152,0.374,1.723,0.578
						c0.305,0.109,0.609,0.223,0.912,0.339c0.246,0.095,1.423,0.351,0.534,0.205c-0.854-0.141,0.083,0.044,0.317,0.152
						c0.216,0.1,0.432,0.201,0.646,0.305c0.519,0.252,1.031,0.516,1.536,0.796c0.947,0.523,1.867,1.096,2.749,1.723
						c0.148,0.105,0.967,0.755,0.162,0.101c-0.803-0.652-0.006,0.001,0.132,0.115c0.343,0.282,0.678,0.573,1.006,0.873
						c0.736,0.675,1.431,1.394,2.079,2.153c0.12,0.141,0.236,0.286,0.356,0.428c0.673,0.792-0.713-0.994-0.3-0.397
						c0.233,0.338,0.485,0.662,0.716,1.002c0.506,0.747,0.974,1.521,1.405,2.314c0.43,0.791,0.812,1.603,1.185,2.422
						c0.16,0.352,0.354,0.976-0.255-0.615c0.081,0.211,0.172,0.418,0.254,0.628c0.13,0.328,0.256,0.656,0.356,0.995
						c0.08,0.271,0.145,0.546,0.2,0.822c0.237,1.207-0.216-0.506-0.07-0.634c-0.131,0.115,0.072,1.748,0.061,2.009
						c-0.012,0.308-0.042,0.614-0.063,0.921c-0.093,1.316,0.286-1.559,0.033-0.228c-0.144,0.756-0.306,1.5-0.496,2.245
						c-0.194,0.759-0.4,1.513-0.646,2.258c-0.122,0.369-0.251,0.734-0.387,1.098c-0.077,0.206-0.16,0.411-0.239,0.617
						c-0.44,1.159,0.51-1.12,0.082-0.187c-0.896,1.95-1.901,3.83-3.084,5.624c-0.285,0.432-0.578,0.858-0.878,1.279
						c-0.153,0.214-0.311,0.424-0.464,0.637c-0.747,1.04,0.574-0.689-0.078,0.109c-0.772,0.943-1.552,1.874-2.386,2.764
						c-1.711,1.829-3.578,3.548-5.493,5.161c-0.232,0.195-0.465,0.388-0.7,0.579c-0.088,0.071-1.056,0.808-0.269,0.221
						c-0.558,0.416-1.116,0.829-1.688,1.227c-1.225,0.852-2.489,1.641-3.783,2.384c-1.651,0.947-2.335,3.088-1.577,4.813
						C1509.933,1281.126,1511.947,1282.432,1513.769,1281.741L1513.769,1281.741z"/>
				</g>
			</g>
			<g>
				<path style="fill:#B61924;" d="M1588.38,1459.951c-28.367,22.644-70.51,41.791-115.287,42.646
					c-52.109,0.995-94.647-13.175-121.8-37.151c-20.362-17.84-32.052-41.257-32.559-67.793
					c-0.56-26.193,26.387-22.435,67.313-17.121c24.11,3.129,53.041,6.849,84.095,5.287c36.401-1.834,63.626-5.544,84.754-7.428
					c31.992-2.832,50.174-1.584,65.361,16.013C1632.74,1408.975,1617.992,1436.372,1588.38,1459.951z"/>
				<path style="fill:#E8353E;" d="M1588.38,1459.951c-28.367,22.644-70.51,41.791-115.287,42.646
					c-52.109,0.995-94.647-13.175-121.8-37.151c19.955-9.78,40.661-20.464,107.605-13.182c30.239,3.29,81.544-18.456,123.281,4.103
					C1584.365,1457.521,1586.432,1458.735,1588.38,1459.951z"/>
				<g>
					<path style="fill:#F1F2F2;" d="M1554.898,1378.409c-0.59,2.026-1.609,9.239-2.823,11.46c-1.539,2.914-3.373,5.605-4.989,7.01
						c-8.844,7.633-27.485,10.919-49.382,13.306c-22.138,2.438-47.628,3.931-68.937,1.682c-15.111-1.635-29.881-5.703-36.605-11.07
						c-3.829-3.086-4.379-11.506-4.932-15.158c-0.226-1.69-0.5-3.379-1.161-5.106c24.08,3.112,53.005,6.864,84.052,5.264
						C1506.528,1384.003,1533.765,1380.278,1554.898,1378.409z"/>
					<path style="fill:#E6E7E8;" d="M1554.898,1378.409c-0.59,2.026-1.609,4.335-2.823,6.556
						c-20.875,6.095-57.299,9.872-85.267,10.726c-30.624,0.951-65.706-2.66-79.578-10.052c-0.226-1.69-0.5-3.379-1.161-5.106
						c24.08,3.112,53.005,6.864,84.052,5.264C1506.528,1384.003,1533.765,1380.278,1554.898,1378.409z"/>
				</g>
			</g>
		</g>
		<g>
			<path style="fill:#FAB58D;" d="M1262.54,1958.245c-0.496,2.792-1.923,28.663-8.313,37.617
				c-5.625,7.866-3.119,20.289-18.839,39.714c-6.954,8.591-14.619,35.922-20.753,59.629c-4.658,17.948-8.444,33.802-10.39,37.909
				c-10.189,21.492-25.64,48.635-69.456,61.509c-2.201,0.658-4.457,1.262-6.806,1.839c0,0-89.095,52.837-141.905,97.74
				c-52.823,44.903-234.678,156.899-279.313,107.164c-4.43-4.953-9.558-10.847-14.592-17.787
				c-8.108-11.182-15.988-25.063-20.378-42.071c-6.175-23.948-10.377-56.099,8.39-104.694
				c34.056-88.169,208.447-117.258,254.612-108.922c34.553,6.229,90.786-27.721,122.051-49.938
				c-5.53-26.19,10.686-57.884,10.511-85.605c-0.188-31.466,21.478-55.038,21.478-55.038c1.02-35.198,47.561-34.124,47.561-34.124
				s6.189-11.907,28.459-22.646c19.116-9.209,59.254,11.303,81.067,1.007c0.027-0.013,0.054-0.027,0.067-0.027
				c3.329-1.584,6.229-3.893,8.564-7.128c0.175-0.242,0.349-0.51,0.524-0.765c25.183-37.949,53.87-22.673,61.75-9.437
				C1324.698,1877.427,1264.634,1946.7,1262.54,1958.245z"/>
			<path style="fill:#FA975D;" d="M1134.789,2194.623c-2.201,0.658-4.457,1.262-6.806,1.839c0,0-89.095,52.837-141.905,97.74
				c-52.823,44.903-234.678,156.899-279.313,107.164c-4.43-4.953-9.558-10.847-14.592-17.787
				c40.569,29.778,100.868,4.953,140.75-12.672c61.442-27.157,262.304-180.029,262.304-180.029L1134.789,2194.623z"/>
			<path style="fill:#F89E77;" d="M1262.54,1958.245c-0.504,2.788,0.203,21.325-6.03,33.267
				c-4.477,8.578-5.407,24.439-21.117,43.858c-6.952,8.598-14.617,35.928-20.758,59.634c-2.702,3.218-5.773,7.235-9.446,12.799
				c-16.631,25.192-46.479,63.613-65.529,40.423c-19.063-23.202-23.166,5.097-15.28,26.691c2.223,6.104,3.341,13.708,3.599,21.348
				c-7.001-0.774-28.361-0.97-32.746-5.392c0,0,6.78-21.544,8.401-27.538c8.856-32.771-6.67-98.374,11.927-82.664
				c11.276,9.531,32.181,16.717,54.782,11.055c0,0,1.56,10.711-7.001,16.582c-10.097,6.927-13.155,13.708-12.406,17.663
				c2.113,11.227,17.896,16.95,31.15,2.1c21.704-24.308,16.926-50.311,16.926-50.311c8.77-6.252,13.769-16.582,16.349-25.156
				c5.601-18.658,1.29-35.313,1.29-35.313c7.701,1.216,12.811,1.499,16.766-1.081c14.494-9.47,16.017-29.43,16.017-29.43
				s4.889-34.552-18.302-52.829c-8.058-6.35-23.731-13.904-40.042-16.57c-14.445-2.359-29.86,0.209-33.889-5.503
				c-12.541-17.786,59.634-14.039,88.732-30.523c0.025-0.012,0.049-0.025,0.061-0.025c3.587-2.051,6.522-4.397,8.561-7.136
				c0.172-0.246,0.356-0.504,0.528-0.761c25.18-37.954,53.873-22.674,61.746-9.433
				C1324.702,1877.228,1264.628,1946.699,1262.54,1958.245z"/>
			<g>
				<g>
					<g>
						<path style="fill:#E68155;" d="M1156.563,1912.974c3.338,1.595,6.859,3.069,10.452,3.975c3.155,0.796,6.371,1.297,9.604,1.653
							c5.882,0.649,11.812,0.677,17.693,1.345c6.607,0.75,13.183,2.479,19.227,5.27c5.005,2.311,9.484,5.471,13.541,9.013
							c4.438,3.874,8.302,8.363,11.592,13.167c1.793,2.617,3.438,5.334,4.958,8.118c0.803,1.471,1.571,2.961,2.306,4.467
							c0.188,0.385,0.375,0.772,0.559,1.16c-0.006-0.013,0.497,1.144,0.157,0.302c0.22,0.545,0.409,1.101,0.573,1.666
							c0.786,2.702,0.951,4.635,1.03,7.44c0.092,3.291-0.117,6.611-0.627,9.863c-0.612,3.9-1.618,7.682-2.813,11.439
							c-1.076,3.38-1.782,6.865-2.876,10.241c-0.963,2.97-2.159,5.568-4.168,7.779c-1.941,2.136-3.755,3.477-6.497,4.747
							c-0.431,0.199-0.666,0.312-1.471,0.588c-0.635,0.217-1.279,0.352-1.927,0.52c-0.598,0.155-1.293,0.645-1.778,0.771
							c-0.489,0.127-1.171-0.009-1.681-0.073c-1.277-0.16-2.437-0.554-3.523-1.255c-1.341-0.867-2.575-1.643-3.62-2.873
							c-0.431-0.507-1.191,0.14-0.893,0.689c0.598,1.101,1.252,2.398,2.064,3.359c0.831,0.984,2.098,1.82,3.222,2.429
							c1.101,0.597,2.257,1.128,3.5,1.346c1.305,0.23,2.405,0.987,3.846,0.867c6.113-0.509,11.233-4.175,14.818-8.998
							c4.238-5.7,5.161-13.221,7.247-19.844c2.319-7.362,3.614-15.316,3.143-23.047c-0.17-2.794-0.522-5.672-1.423-8.335
							c-1.081-3.194-2.831-6.246-4.474-9.178c-3.298-5.89-7.194-11.522-11.823-16.448c-9.057-9.638-20.904-15.662-33.777-18.44
							c-6.389-1.379-12.872-1.667-19.38-1.924c-6.753-0.266-13.311-1.062-19.928-2.453c-1.977-0.415-3.952-1.065-5.883-1.658
							C1156.193,1910.249,1155.252,1912.348,1156.563,1912.974L1156.563,1912.974z"/>
					</g>
				</g>
				<g>
					<g>
						<path style="fill:#E68155;" d="M1113.868,1971.754c0.637,0.048,1.058,0.263,1.578,0.551c0.324,0.179,0.609,0.386,0.975,0.504
							c0.695,0.223,1.535,0.337,2.256,0.46c1.805,0.308,3.672,0.53,5.494,0.704c3.031,0.29,6.113,0.296,9.156,0.409
							c5.179,0.193,10.369,0.037,15.549-0.086c7.026-0.167,14.06-0.576,21.09-0.537c2.389,0.013,4.775,0.108,7.148,0.382
							c0.235,0.027,0.47,0.061,0.706,0.084c0.567,0.056-0.805-0.126-0.245-0.033c0.092,0.015,0.184,0.025,0.276,0.04
							c0.54,0.086,1.078,0.174,1.614,0.282c0.953,0.193,1.897,0.432,2.825,0.721c0.461,0.144,0.919,0.301,1.372,0.469
							c0.228,0.085,0.454,0.177,0.681,0.264c0.756,0.289-0.592-0.286,0.238,0.101c1.649,0.77,3.222,1.669,4.731,2.686
							c3.867,2.607,7.507,6.078,10.76,9.768c4.089,4.639,7.606,9.8,10.433,15.3c2.748,5.345,4.833,11.158,5.302,17.183
							c0.11,1.416,1.13,2.629,2.629,2.629c1.323,0,2.758-1.207,2.629-2.629c-1.054-11.618-6.401-22.62-13.389-31.817
							c-5.591-7.357-12.549-14.773-21.158-18.553c-4.408-1.935-9.029-2.705-13.823-2.892c-6.576-0.257-13.183,0.131-19.754,0.376
							c-5.639,0.21-11.289,0.235-16.926,0.469c-3.51,0.146-7.018,0.338-10.53,0.461c-1.957,0.069-3.903,0.338-5.85,0.542
							c-0.92,0.096-1.852,0.222-2.757,0.418c-1.123,0.243-1.832,0.967-3.011,1.005
							C1113.388,1971.03,1113.397,1971.718,1113.868,1971.754L1113.868,1971.754z"/>
					</g>
				</g>
				<g>
					<g>
						<path style="fill:#E68155;" d="M1108.726,2030.509c-0.206-0.578-0.405-1.155-0.58-1.743c-0.062,0.234-0.124,0.469-0.186,0.704
							c0.098-0.079,0.196-0.159,0.295-0.238c-0.861,0.111-1.722,0.222-2.583,0.333c13.889,7.343,30.141,7.12,45.378,8.957
							c13.218,1.593,27.105,5.295,36.062,15.836c1.909,2.246,3.674,5.157,4.787,7.899c0.651,1.605,1.172,3.265,1.592,4.945
							c0.227,0.907,0.442,1.817,0.673,2.723c0.248,0.969,0.779,1.772,1.144,2.687c0.606,1.518,2.585,1.963,3.533,0.462
							c0.05-0.08,0.101-0.159,0.15-0.24c-1.087-0.635-2.174-1.271-3.26-1.906c-0.099,0.161-0.198,0.321-0.297,0.482
							c1.033,0.604,2.066,1.208,3.099,1.812c0.049-0.08,0.099-0.161,0.148-0.241c1.103-1.787-1.292-3.326-2.745-2.118
							c-0.074,0.062-0.148,0.123-0.222,0.184c-1.778,1.478,0.773,4.005,2.538,2.538c0.148-0.123,0.296-0.246,0.444-0.368
							c1.871-1.554-0.813-4.213-2.67-2.67c-0.074,0.062-0.147,0.124-0.22,0.186c1.077,0.627,2.154,1.254,3.231,1.881
							c0.113-0.831,0.308-1.651,0.39-2.484c0.099-1.017-0.125-2.134-0.303-3.133c-0.286-1.606-0.744-3.198-1.265-4.742
							c-1.019-3.018-2.385-5.944-4.155-8.596c-3.873-5.804-9.392-10.535-15.567-13.75c-13.757-7.16-29.524-7.507-44.616-8.927
							c-8.896-0.837-17.782-2.202-26.205-5.313c-1.322-0.488-2.698,0.761-2.698,2.056c0,1.29,1.382,2.555,2.698,2.056
							c0.109-0.041,0.218-0.083,0.327-0.124c-0.235-0.062-0.469-0.124-0.704-0.186c0.414,0.45,0.805,0.915,1.195,1.385
							C1108.357,2031.126,1108.842,2030.835,1108.726,2030.509L1108.726,2030.509z"/>
					</g>
				</g>
				<g>
					<g>
						<path style="fill:#E68155;" d="M1112.282,2092.333c4.121,6.055,10.505,10.753,17.332,13.25
							c7.08,2.588,14.798,3.15,22.214,1.907c1.959-0.328,3.91-0.794,5.79-1.437c2.204-0.754,4.633-1.561,5.2-4.087
							c0.126-0.562-0.072-1.322-0.647-1.589c-0.737-0.342-1.484-0.619-2.309-0.587c-0.968,0.037-1.926,0.524-2.831,0.833
							c-1.609,0.549-3.229,1.047-4.889,1.417c-3.21,0.715-6.486,0.957-9.78,0.826c-6.755-0.268-12.894-2.453-18.991-5.203
							c-3.566-1.608-6.524-4.021-9.392-6.638C1113.116,2090.237,1111.559,2091.271,1112.282,2092.333L1112.282,2092.333z"/>
					</g>
				</g>
				<g>
					<g>
						<path style="fill:#E68155;" d="M1216.531,2012.793c0.239,1.611,0.269,3.03,0.113,4.638c-0.136,1.398,0.127,2.794,0.252,4.186
							c0.249,2.757,0.202,5.607,0.012,8.368c-0.346,5.032-1.111,10.033-2.259,14.943c-1.078,4.611-2.458,9.14-3.805,13.677
							c-0.137,0.46-0.266,0.923-0.42,1.378c-0.05,0.147-0.101,0.292-0.154,0.438c-0.263,0.721,0.144-0.289-0.064,0.147
							c-0.385,0.808-0.816,1.602-1.326,2.338c-0.394,0.567-1.072,1.359-1.568,1.995c-0.5,0.641-1.313,1.602-1.962,2.357
							c-1.503,1.746-3.075,3.428-4.765,4.995c-0.772,0.716-1.611,1.357-2.386,2.067c-1.072,0.981-1.233,2.082-1.352,3.439
							c-0.083,0.95,0.733,1.826,1.586,2.083c1.202,0.362,2.385,0.479,3.523-0.211c0.914-0.554,1.756-1.396,2.539-2.122
							c1.619-1.501,3.136-3.113,4.566-4.794c2.706-3.183,5.288-6.905,6.483-10.963c2.871-9.753,5.974-19.975,5.998-30.224
							c0.008-3.209-0.309-6.337-0.789-9.504c-0.25-1.654-0.448-3.41-1.2-4.925c-0.766-1.542-1.633-3.012-2.37-4.582
							C1216.995,2012.123,1216.478,2012.431,1216.531,2012.793L1216.531,2012.793z"/>
					</g>
				</g>
				<g>
					<g>
						<path style="fill:#E68155;" d="M1143.11,2107.139c-0.461,1.203-1.054,2.32-1.301,3.59c-0.238,1.226-0.392,2.465-0.578,3.699
							c-0.363,2.411-0.272,4.909-0.057,7.331c0.393,4.426,1.293,8.849,3.017,12.957c1.35,3.216,3.338,6.517,6.286,8.497
							c3.632,2.439,9.002,2.3,13.11,1.506c4.979-0.963,9.545-3.46,13.418-6.676c3.943-3.273,6.939-7.587,9.665-11.885
							c5.451-8.594,10.03-18.068,12.769-27.887c3.023-10.836,3.868-22.951-0.538-33.522c-0.69-1.654-2.238-2.723-4.066-1.953
							c-1.805,0.761-2.146,2.615-1.441,4.274c7.349,17.296,0.124,36.575-8.693,51.842c-4.348,7.527-9.911,15.284-18.141,18.876
							c-3.678,1.605-7.984,2.319-11.921,1.34c-0.328-0.082-0.64-0.178-0.958-0.288c-0.46-0.159-0.001-0.01,0.08,0.032
							c-0.127-0.066-0.257-0.122-0.381-0.194c-0.257-0.15-0.506-0.306-0.755-0.468c-0.076-0.049-0.398-0.291-0.026-0.005
							c-0.161-0.124-0.316-0.257-0.47-0.39c-1.12-0.967-2.007-2.023-2.751-3.205c-2.333-3.703-3.875-7.828-4.709-12.118
							c-0.471-2.422-0.591-4.839-0.777-7.291c-0.096-1.263-0.112-2.507-0.046-3.773c0.072-1.403-0.065-2.783,0.046-4.183
							C1143.929,2106.765,1143.259,2106.75,1143.11,2107.139L1143.11,2107.139z"/>
					</g>
				</g>
			</g>
			<g>
				<path style="fill:#F8B294;" d="M1135.845,1905.171c8.97-4.7,70.167-46.843,80.187-48.507c10.02-1.664,20.53-2.199,66.011,25.859
					c45.481,28.058,53.876,52.343,52.814,53.61s5.185,36.689-38.414,16.677c-43.6-20.013-52.236-33.719-75.286-37.946
					C1198.105,1910.637,1135.845,1905.171,1135.845,1905.171z"/>
				<g>
					<g>
						<path style="fill:#E68155;" d="M1221.232,1927.801c1.723-1.732,3.581-2.496,5.925-2.91c1.104-0.195,2.127-0.512,3.263-0.566
							c1.177-0.056,2.326,0.132,3.481,0.323c5.467,0.905,10.701,2.364,15.82,4.526c5.496,2.321,10.801,5.182,15.862,8.331
							c6.347,3.949,12.365,8.395,18.652,12.436c10.198,6.557,22.26,12.679,34.771,10.246c5.521-1.074,10.254-4.295,13.181-9.107
							c3.614-5.941,3.832-13.434,2.064-20.012c-1.904-7.085-6.289-13.203-10.898-18.78c-4.571-5.531-9.655-10.565-15.255-15.053
							c-11.026-8.835-23.439-15.642-35.279-23.281c-6.348-4.095-12.455-8.57-18.926-12.472c-5.576-3.362-11.624-6.39-18.113-7.432
							c-6.289-1.01-12.855-0.141-19.052,1.152c-5.676,1.184-10.95,3.592-16.097,6.201c-10.782,5.465-21.804,10.422-32.61,15.837
							c-5.511,2.762-10.963,5.667-16.178,8.959c-2.382,1.504-4.711,3.092-6.949,4.803c-2.107,1.611-4.4,3.269-6.068,5.349
							c-1.507,1.879-2.75,3.842-4.12,5.824c-1.383,2.002,1.885,3.89,3.257,1.904c1.304-1.888,3.206-3.248,4.951-4.688
							c1.85-1.527,3.602-3.201,5.503-4.611c4.61-3.422,9.565-6.365,14.604-9.105c10.512-5.717,21.486-10.502,32.233-15.745
							c5.261-2.567,10.367-5.555,15.842-7.653c5.005-1.918,10.239-2.734,15.547-3.288c6.017-0.628,11.791,0.53,17.274,3.057
							c6.372,2.936,12.192,6.975,17.97,10.916c11.484,7.831,23.736,14.444,35.194,22.304c5.579,3.827,10.897,8.017,15.721,12.769
							c4.967,4.893,9.778,10.345,13.36,16.35c3.309,5.548,5.552,12.167,4.293,18.679c-1.016,5.255-4.22,9.74-9.327,11.547
							c-4.769,1.687-10.062,1.378-14.976,0.221c-5.982-1.408-11.338-4.197-16.554-7.38c-11.399-6.956-21.799-15.397-34.039-20.926
							c-5.145-2.324-10.498-4.422-16.086-5.369c-2.769-0.469-5.425-0.642-8.208-0.237c-2.276,0.331-4.435,0.627-6.373,1.931
							c-1.739,1.17-3.201,2.679-4.239,4.504C1220.446,1927.716,1220.932,1928.102,1221.232,1927.801L1221.232,1927.801z"/>
					</g>
				</g>
			</g>
		</g>
	</g>
</g>
</svg>
