<?xml version="1.0" encoding="utf-8"?>
<!-- Generator: Adobe Illustrator 27.5.0, SVG Export Plug-In . SVG Version: 6.00 Build 0)  -->
<svg version="1.1" id="Layer_1" xmlns="http://www.w3.org/2000/svg" xmlns:xlink="http://www.w3.org/1999/xlink" x="0px" y="0px"
	 viewBox="0 0 2000 2000" style="enable-background:new 0 0 2000 2000;" xml:space="preserve">
<rect y="0" style="fill:#FFFFFF;stroke:#000000;stroke-width:0.9907;stroke-miterlimit:10;" width="2000" height="2000"/>
<g>
	<ellipse style="fill:#E3E7E8;" cx="1049.689" cy="1764.3" rx="413.842" ry="98.227"/>
	<g>
		<g>
			<g>
				<g>
					<g>
						<g>
							<path style="fill:#118691;" d="M1170.408,1387.046c-10.203,15.48,0.206,66.246,21.577,72.925
								c21.37,6.679,96.028-3.707,99.611-20.156c3.584-16.449,6.123-42.325-0.655-52.717
								C1284.163,1376.705,1177.35,1376.513,1170.408,1387.046z"/>
							<path style="fill:#118691;" d="M1287.968,1403.39c12.175,3.526,18.341,21.782,17.137,43.772
								c-0.957,17.469-4.82,30.744-14.257,33.743c-12.169,3.866-12.533-11.479-18.059-27.564
								c-4.533-13.193-13.959-16.533-13.037-23.854C1261.796,1413.237,1277.366,1400.319,1287.968,1403.39z"/>
							<g>
								<path style="fill:#118691;" d="M1211.024,1433.853c9.785,5.696,6.214,31.115,4.515,39.176
									c-1.699,8.061-8.822,28.792-14.436,36.411c-4.081,5.538-18.457,6.064-20.25-5.323c-0.684-4.348,1.733-26.713,2.017-30.814
									s-0.416-31.538-0.979-38.043C1181.327,1428.754,1200.207,1427.557,1211.024,1433.853z"/>
								<path style="fill:#118691;" d="M1230.774,1432.168c10.821,3.329,13.105,28.897,13.277,37.133
									c0.172,8.236-4.18,35.273-11.198,41.623c-7.018,6.35-14.145,5.613-17.758-3.78c-1.58-4.108-2.148-26.113-2.801-30.172
									c-0.653-4.059-7.553-30.623-9.577-36.831C1200.693,1433.932,1218.811,1428.487,1230.774,1432.168z"/>
								<path style="fill:#118691;" d="M1248.629,1427.645c18.342-2.085,17.603,24.578,18.836,32.398
									c1.219,7.733-1.006,35.581-6.464,42.73c-5.458,7.149-16.378,9.814-16.978-0.63c-0.24-4.176-3.59-25.753-4.903-29.433
									c-1.313-3.68-12.36-27.306-15.326-32.757S1236.811,1428.989,1248.629,1427.645z"/>
							</g>
						</g>
						<g>
							<path style="fill:#083747;" d="M1209.697,1481.59c-0.59,0-1.184-0.185-1.691-0.565c-1.248-0.936-1.501-2.705-0.565-3.952
								c3.198-4.267,2.845-12.315,2.3-17.998c-0.148-1.553,0.989-2.932,2.541-3.08c1.559-0.156,2.932,0.988,3.08,2.541
								c0.688,7.177,0.923,16.154-3.403,21.924C1211.403,1481.199,1210.556,1481.59,1209.697,1481.59z"/>
						</g>
						<g>
							<path style="fill:#083747;" d="M1236.391,1483.644c-0.534,0-1.074-0.151-1.554-0.469c-1.301-0.859-1.659-2.611-0.799-3.912
								c2.058-3.113,2.545-15.222-0.449-20.782c-0.739-1.373-0.226-3.086,1.147-3.825c1.376-0.74,3.087-0.225,3.825,1.147
								c3.648,6.777,3.751,21.182,0.188,26.573C1238.206,1483.198,1237.308,1483.644,1236.391,1483.644z"/>
						</g>
					</g>
					<path style="fill:#99C7D4;" d="M1203.476,1210.968c59.818,22.132,97.853,133.623,90.148,177.914
						c-6.784,38.997-95.599,53.299-121.986,40.829c-26.387-12.47-40.007-159.633-18.442-201.99
						C1157.958,1218.366,1188.583,1205.457,1203.476,1210.968z"/>
					
						<ellipse transform="matrix(0.9826 -0.1855 0.1855 0.9826 -210.4881 240.3249)" style="fill:#118691;" cx="1178.896" cy="1244.874" rx="38.647" ry="49.516"/>
				</g>
				<g>
					<path style="fill:#083747;" d="M1202.569,1439.982c-10.353,0-19.787-1.726-27.744-5.204c-1.429-0.624-2.081-2.289-1.456-3.718
						c0.624-1.429,2.291-2.081,3.718-1.456c16.719,7.308,40.838,6.143,66.17-3.195c21.502-7.927,40.287-20.648,45.685-30.936
						c0.724-1.383,2.431-1.912,3.812-1.188s1.913,2.431,1.188,3.812c-6.086,11.602-25.669,25.108-48.73,33.61
						C1230.292,1437.207,1215.693,1439.982,1202.569,1439.982z"/>
				</g>
			</g>
			<g>
				<g>
					<path style="fill:#4BAEB8;" d="M1057.115,1729.182c-14.122-30.736,12.294-78.845,22.544-88.163
						c17.713-16.103,57.192-19.848,94.202-17.713c41.867,2.415,90.981,20.128,107.889,44.283
						c11.871,16.958,22.873,76.002,8.051,90.981C1251.959,1796.813,1084.49,1788.762,1057.115,1729.182z"/>
					<path style="fill:#118691;" d="M1057.115,1729.182c-14.122-30.736,12.294-78.845,22.544-88.163
						c17.713-16.103,57.192-19.848,94.202-17.713c41.867,2.415,85.479,16.237,105.071,39.049
						c-13.016,18.518-105.071,30.595-128.42,23.349c-17.982,20.397-12.882,66.827-2.979,91.974
						C1105.87,1770.596,1068.778,1754.565,1057.115,1729.182z"/>
					<path style="fill:#4BAEB8;" d="M1095.762,1631.357c-5.948-16.762-2.013-86.553,6.441-91.786
						c14.397-8.912,124.17-4.653,132.043,3.22c10.869,10.869,9.15,80.302,4.026,93.396
						C1231.025,1654.706,1104.618,1656.316,1095.762,1631.357z"/>
					<path style="fill:#118691;" d="M1095.762,1631.357c-5.948-16.762-2.013-86.553,6.441-91.786
						c6.813-4.218,123.187-7.38,132.848,3.355c18.518,38.513-81.731,27.181-83.735,35.695c-3.22,13.687-5.636,50.724,0.821,70.876
						C1124.26,1647.712,1099.506,1641.909,1095.762,1631.357z"/>
					<path style="fill:#4BAEB8;" d="M1117.903,1494.886c-7.924,10.188-5.228,45.904-2.415,51.529
						c8.051,16.103,95.812,14.895,103.863,5.233c6.402-7.682,4.026-46.296,3.221-52.737
						C1221.766,1492.47,1123.539,1487.639,1117.903,1494.886z"/>
					<path style="fill:#118691;" d="M1117.903,1494.886c-7.924,10.188-5.228,45.904-2.415,51.529
						c3.246,6.492,19.446,10.17,38.155,11.615c-8.231-28.523-2.863-52.946,3.302-66.713
						C1137.224,1491.021,1120.157,1491.987,1117.903,1494.886z"/>
				</g>
				<g>
					<path style="fill:#083747;" d="M1168.859,1655.865c-37.356,0-67.331-11.695-74.422-19.836
						c-1.024-1.176-0.901-2.959,0.274-3.983s2.96-0.901,3.983,0.274c4.396,5.047,22.869,13.553,50.173,16.661
						c22.129,2.519,55.601,2.113,89.388-14.131c1.407-0.674,3.094-0.084,3.769,1.321c0.676,1.405,0.084,3.093-1.321,3.769
						C1216.339,1651.653,1191.269,1655.865,1168.859,1655.865z"/>
				</g>
				<g>
					<path style="fill:#083747;" d="M1169.89,1563.52c-4.328,0-8.644-0.218-12.925-0.659c-19.845-2.044-36.862-8.716-44.414-17.412
						c-1.022-1.178-0.896-2.961,0.28-3.983c1.179-1.021,2.96-0.897,3.983,0.28c11.473,13.212,59.479,26.645,106.552,4.136
						c1.406-0.675,3.093-0.079,3.765,1.329c0.673,1.406,0.078,3.092-1.329,3.765
						C1208.611,1559.196,1189.154,1563.52,1169.89,1563.52z"/>
				</g>
				<g>
					<path style="fill:#083747;" d="M1204.591,1756.386c-18.08,0-36.535-1.315-53.494-3.738
						c-51.348-7.337-87.528-23.605-99.266-44.634c-0.76-1.361-0.272-3.081,1.09-3.842c1.363-0.763,3.081-0.272,3.842,1.09
						c10.71,19.189,46.274,34.813,95.133,41.795c61.827,8.833,124.714,1.514,143.17-16.666c1.11-1.094,2.897-1.08,3.993,0.03
						c1.094,1.111,1.081,2.898-0.03,3.993C1283.374,1749.834,1244.927,1756.386,1204.591,1756.386z"/>
				</g>
				<g>
					<path style="fill:#083747;" d="M1181.606,1691.656c-6.145,0-12.297-0.212-18.384-0.654
						c-43.505-3.158-75.178-17.38-89.187-40.045c-0.819-1.326-0.408-3.066,0.918-3.887c1.325-0.819,3.066-0.409,3.887,0.918
						c13.029,21.082,43.142,34.357,84.79,37.382c50.507,3.669,101.393-9.235,113.138-23.221c1.004-1.195,2.786-1.349,3.978-0.347
						c1.194,1.003,1.35,2.784,0.347,3.978C1268.386,1680.912,1225.321,1691.656,1181.606,1691.656z"/>
				</g>
			</g>
			<g>
				<g>
					<path style="fill:#4BAEB8;" d="M837.312,1746.089c-14.122-30.736,12.294-78.845,22.544-88.163
						c17.713-16.103,57.191-19.848,94.201-17.713c41.867,2.415,90.981,20.129,107.889,44.283
						c11.871,16.958,22.873,76.002,8.051,90.981C1032.156,1813.721,864.686,1805.67,837.312,1746.089z"/>
					<path style="fill:#118691;" d="M837.312,1746.089c-14.122-30.736,12.294-78.845,22.544-88.163
						c17.713-16.103,57.191-19.848,94.201-17.713c41.867,2.415,85.479,16.237,105.071,39.049
						c-13.016,18.518-105.071,30.595-128.42,23.349c-17.982,20.397-12.882,66.827-2.979,91.974
						C886.066,1787.504,848.974,1771.473,837.312,1746.089z"/>
					<path style="fill:#4BAEB8;" d="M875.958,1648.265c-5.948-16.762-2.013-86.553,6.441-91.786
						c14.397-8.912,124.17-4.653,132.043,3.221c10.869,10.87,9.15,80.302,4.026,93.396
						C1011.222,1671.614,884.815,1673.224,875.958,1648.265z"/>
					<path style="fill:#118691;" d="M875.958,1648.265c-5.948-16.762-2.013-86.553,6.441-91.786
						c6.813-4.217,123.186-7.38,132.848,3.355c18.518,38.512-81.731,27.181-83.735,35.695c-3.221,13.687-5.636,50.724,0.821,70.876
						C904.456,1664.62,879.703,1658.817,875.958,1648.265z"/>
					<path style="fill:#4BAEB8;" d="M898.1,1511.793c-7.924,10.189-5.228,45.905-2.415,51.529
						c8.051,16.103,95.812,14.895,103.863,5.233c6.402-7.682,4.026-46.296,3.221-52.737
						C1001.963,1509.378,903.736,1504.547,898.1,1511.793z"/>
					<path style="fill:#118691;" d="M898.1,1511.793c-7.924,10.189-5.228,45.905-2.415,51.529
						c3.246,6.492,19.446,10.17,38.156,11.615c-8.231-28.523-2.864-52.946,3.302-66.713
						C917.421,1507.929,900.354,1508.895,898.1,1511.793z"/>
				</g>
				<g>
					<path style="fill:#083747;" d="M949.056,1672.774c-37.357,0-67.331-11.696-74.422-19.837c-1.024-1.176-0.901-2.959,0.275-3.983
						c1.174-1.024,2.958-0.901,3.984,0.274c4.396,5.047,22.868,13.553,50.172,16.661c22.128,2.519,55.6,2.113,89.387-14.131
						c1.407-0.674,3.093-0.083,3.769,1.321c0.676,1.405,0.084,3.093-1.321,3.769
						C996.535,1668.562,971.464,1672.774,949.056,1672.774z"/>
				</g>
				<g>
					<path style="fill:#083747;" d="M950.087,1580.427c-4.327,0-8.645-0.218-12.925-0.658c-19.844-2.045-36.862-8.717-44.415-17.412
						c-1.022-1.178-0.897-2.961,0.28-3.983c1.177-1.022,2.96-0.897,3.983,0.28c11.474,13.212,59.484,26.644,106.553,4.135
						c1.406-0.676,3.093-0.078,3.765,1.329c0.673,1.406,0.078,3.092-1.329,3.765
						C988.808,1576.104,969.353,1580.427,950.087,1580.427z"/>
				</g>
				<g>
					<path style="fill:#083747;" d="M984.786,1773.294c-18.08,0-36.534-1.315-53.492-3.738
						c-51.348-7.337-87.529-23.605-99.266-44.634c-0.76-1.361-0.272-3.081,1.089-3.842c1.361-0.76,3.082-0.272,3.841,1.09
						c10.71,19.189,46.274,34.813,95.134,41.795c61.826,8.834,124.714,1.513,143.169-16.667c1.11-1.095,2.898-1.081,3.993,0.03
						c1.094,1.111,1.081,2.898-0.03,3.993C1063.57,1766.742,1025.121,1773.294,984.786,1773.294z"/>
				</g>
				<g>
					<path style="fill:#083747;" d="M961.803,1708.564c-6.144,0-12.296-0.212-18.383-0.654
						c-43.505-3.158-75.179-17.38-89.187-40.045c-0.82-1.326-0.409-3.066,0.917-3.887c1.327-0.818,3.066-0.408,3.886,0.918
						c13.03,21.082,43.143,34.358,84.792,37.382c50.51,3.669,101.392-9.234,113.137-23.221c1.004-1.195,2.786-1.349,3.978-0.347
						c1.194,1.003,1.35,2.784,0.347,3.978C1048.583,1697.82,1005.518,1708.564,961.803,1708.564z"/>
				</g>
			</g>
			<g>
				<g>
					<path style="fill:#DEEDF1;" d="M859.701,1226.747c-32.001,34.773-63.268,173.519-46.584,274.218
						c16.684,100.699,468.381,13.603,469.442-26.769c1.062-40.372-23.219-252.739-111.471-274.618
						C1129.28,1201.819,859.701,1226.747,859.701,1226.747z"/>
					<path style="fill:#99C7D4;" d="M849.881,1224.048c-32.001,34.773-63.268,173.519-46.584,274.218
						c5.418,32.702,56.713,45.599,123.553,46.722c-24.167-87.928-23.309-252.458-8.064-327.255
						C878.62,1221.39,849.881,1224.048,849.881,1224.048z"/>
				</g>
				<g>
					<g>
						<path style="fill:#118691;" d="M1083.741,1465.411c-10.295,0.411-25.795-0.412-41.176-6.675
							c-15.541-6.328-27.781-17.088-35.395-31.115c-8.968-16.521-13.063-36.006-14.92-49.442
							c-2.452-17.752-2.493-35.486-0.114-49.935c2.377-14.434,8.856-27.074,19.259-37.569c8.68-8.756,20.218-16.088,34.295-21.793
							c26.642-10.797,58.396-14.109,80.343-14.986c6.656-0.266,13.432-0.355,20.141-0.265c27.999,0.376,50.406,9.989,66.599,28.57
							c19.797,22.717,29.185,58.335,27.149,103.005c-0.83,18.212-8.118,33.615-21.661,45.781
							c-10.588,9.51-25.258,17.107-43.603,22.58C1142.871,1463.047,1105.856,1464.526,1083.741,1465.411z"/>
						
							<path style="fill:none;stroke:#083747;stroke-width:5.4776;stroke-linecap:round;stroke-linejoin:round;stroke-miterlimit:10;" d="
							M1083.741,1465.411c-10.295,0.411-25.795-0.412-41.176-6.675c-15.541-6.328-27.781-17.088-35.395-31.115
							c-8.968-16.521-13.063-36.006-14.92-49.442c-2.452-17.752-2.493-35.486-0.114-49.935c2.377-14.434,8.856-27.074,19.259-37.569
							c8.68-8.756,20.218-16.088,34.295-21.793c26.642-10.797,58.396-14.109,80.343-14.986c6.656-0.266,13.432-0.355,20.141-0.265
							c27.999,0.376,50.406,9.989,66.599,28.57c19.797,22.717,29.185,58.335,27.149,103.005
							c-0.83,18.212-8.118,33.615-21.661,45.781c-10.588,9.51-25.258,17.107-43.603,22.58
							C1142.871,1463.047,1105.856,1464.526,1083.741,1465.411z"/>
						<path style="fill:#4BAEB8;" d="M1082.463,1452.459c-23.631,0.945-51.727-6.19-65.092-30.81
							c-13.222-24.357-17.745-64.216-13.455-90.27c9.433-57.291,95.461-65.428,142.952-64.79
							c65.224,0.877,83.862,56.663,81.109,117.072C1225.102,1446.739,1126.732,1450.689,1082.463,1452.459z"/>
					</g>
					<g>
						<path style="fill:#F0977C;" d="M1154.406,1398.236c-29.137-4.942-31.428-4.383-57.33,8.221
							c-4.303-29.238-5.543-31.244-25.534-51.984c26.477-13.128,28.002-14.927,41.549-40.348
							c20.667,21.125,22.849,22.019,51.213,27.047C1150.6,1367.355,1150.423,1369.707,1154.406,1398.236z"/>
						
							<ellipse transform="matrix(0.9933 -0.1154 0.1154 0.9933 -155.7008 130.8994)" style="fill:#E8C269;" cx="1052.762" cy="1410.279" rx="18.116" ry="21.135"/>
						
							<ellipse transform="matrix(0.9933 -0.1154 0.1154 0.9933 -148.0061 129.0751)" style="fill:#F0C96D;" cx="1040.975" cy="1343.045" rx="18.116" ry="21.135"/>
						
							<ellipse transform="matrix(0.9933 -0.1154 0.1154 0.9933 -151.9269 147.3291)" style="fill:#E8C269;" cx="1196.594" cy="1385.935" rx="18.116" ry="21.135"/>
						
							<ellipse transform="matrix(0.9933 -0.1154 0.1154 0.9933 -144.2499 145.5224)" style="fill:#F0C96D;" cx="1184.807" cy="1318.702" rx="18.116" ry="21.135"/>
					</g>
				</g>
			</g>
			<g>
				<path style="fill:#4BAEB8;" d="M868.403,1171.101c62.711,14.986,297.482,2.297,322.377-18.134
					c13.363,10.698,12.517,41-12.855,56.17c-48.348,28.909-271.781,30.658-289.085,25.688
					C840.749,1221.014,857.442,1174.063,868.403,1171.101z"/>
				<g>
					<path style="fill:#083747;" d="M972.342,1241.637c-28.255,0-49.458-1.492-56.79-3.262c-1.516-0.366-2.448-1.892-2.082-3.408
						c0.366-1.516,1.893-2.448,3.407-2.082c23.659,5.711,188.528,7.648,264.576-30.375c1.394-0.698,3.09-0.132,3.788,1.263
						c0.697,1.395,0.132,3.091-1.263,3.788c-42.05,21.024-107.26,29.113-154.56,32.195
						C1008.843,1241.098,989.317,1241.637,972.342,1241.637z"/>
				</g>
			</g>
			<g>
				<g>
					<circle style="fill:#118691;" cx="858.648" cy="1276.693" r="59.58"/>
					<g>
						<g>
							<path style="fill:#118691;" d="M741.634,1425.375c-10.65,17.75,6.441,72.463,30.595,78.904
								c24.154,6.441,103.863-7.246,107.084-25.765c3.221-18.518,4.831-47.503-3.22-58.775
								C868.041,1408.467,748.88,1413.298,741.634,1425.375z"/>
							<path style="fill:#118691;" d="M878.24,1448.297c11.556,4.349,17.065,27.031,14.224,48.296
								c-2.256,16.893-7.649,33.316-17.042,35.512c-12.112,2.831-10.213-13.314-14.358-29.356
								c-3.4-13.158-13.663-24.209-12.211-31.25C852.072,1455.873,868.175,1444.509,878.24,1448.297z"/>
							<g>
								<path style="fill:#118691;" d="M793.297,1473.683c-9.468,8.376,0,35.426,3.623,43.88s28.314,30.059,38.378,33.279
									c10.064,3.22,21.605-2.684,15.163-13.151c-2.575-4.185-16.505-22.544-17.713-26.972c-1.208-4.428-6.441-34.621-7.246-41.867
									C824.698,1461.606,803.764,1464.424,793.297,1473.683z"/>
								<path style="fill:#118691;" d="M771.817,1472.344c-11.12,6.012-8.03,34.504-6.417,43.559
									c1.613,9.055,19.361,36.365,28.434,41.783c9.072,5.418,23.054,1.611,19.153-10.043c-1.56-4.66-10.966-25.698-11.139-30.285
									s1.573-35.18,2.432-42.42C805.138,1467.698,784.11,1465.698,771.817,1472.344z"/>
								<path style="fill:#118691;" d="M747.328,1456.935c-11.432,3.692-13.478,30.85-13.539,39.591s12.249,37.217,19.788,43.851
									c7.539,6.634,20.808,5.613,19.181-5.953c-0.651-4.624-5.797-25.911-5.164-30.227c0.633-4.316,7.562-32.6,9.618-39.216
									C779.267,1458.364,759.965,1452.854,747.328,1456.935z"/>
							</g>
						</g>
						<g>
							<path style="fill:#083747;" d="M771.292,1531.123c-0.858,0-1.706-0.391-2.261-1.13c-15.4-20.533-7.419-46.403-6.458-49.285
								c0.494-1.479,2.092-2.277,3.572-1.786c1.479,0.493,2.279,2.092,1.786,3.571c-3.139,9.417-5.487,29.304,5.619,44.111
								c0.936,1.248,0.683,3.018-0.564,3.953C772.477,1530.938,771.882,1531.123,771.292,1531.123z"/>
						</g>
						<g>
							<path style="fill:#083747;" d="M804.301,1529.109c-0.758,0-1.513-0.303-2.07-0.902c-8.683-9.352-11.773-23.938-9.183-43.356
								c0.206-1.546,1.629-2.633,3.172-2.426c1.546,0.206,2.632,1.626,2.426,3.172c-2.356,17.668,0.243,30.711,7.725,38.769
								c1.061,1.143,0.995,2.929-0.148,3.99C805.678,1528.86,804.989,1529.109,804.301,1529.109z"/>
						</g>
					</g>
					<path style="fill:#DEEDF1;" d="M821.343,1243.413c-41.062,17.713-117.154,94.585-84.54,192.429
						c15.298,45.893,139.289,21.739,148.951-3.22c9.662-24.959,6.892-134.776-4.831-164.249
						C871.53,1244.755,844.297,1233.512,821.343,1243.413z"/>
				</g>
				<g>
					<path style="fill:#083747;" d="M796.062,1463.2c-24.316,0-43.242-5.451-53.26-11.826c-1.315-0.837-1.703-2.582-0.866-3.897
						c0.838-1.316,2.583-1.705,3.898-0.866c7.991,5.085,24.912,10.627,48.439,10.932c18.695,0.219,48.194-2.885,82.488-19.151
						c1.411-0.669,3.092-0.068,3.761,1.341c0.668,1.409,0.068,3.093-1.341,3.761C848.544,1458.025,819.746,1463.2,796.062,1463.2z"
						/>
				</g>
			</g>
		</g>
		<g>
			<g>
				<g>
					<path style="fill:#DEEDF1;" d="M860.856,542.168c-28.385,6.345-243.513,73.434-322.573,173.139
						c-104.018,131.18-78.215,365.344,28.439,432.479c106.654,67.136,361.641,87.059,547.729,30.213
						c187.228-57.194,302.444-122.843,312.682-227.859c9.151-93.88-23.767-389.237-227.136-423.697
						C1094.496,508.567,1000.432,510.967,860.856,542.168z"/>
					<path style="fill:#99C7D4;" d="M835.543,556.18c-40.143,9.531-218.2,59.423-297.26,159.128
						c-104.018,131.18-78.215,365.344,28.439,432.479c106.654,67.136,361.698,87.244,547.729,30.213
						c-181.892,24.777-372.706,55.644-430.613-214.369C653.399,821.703,649.074,636.835,835.543,556.18z"/>
					<path style="fill:#118691;" d="M984.263,1144.089c-27.127,3.695-68.071,5.729-109.074-5.568
						c-41.432-11.415-74.462-34.526-95.519-66.837c-24.8-38.053-36.951-84.628-42.778-116.998
						c-7.698-42.766-9.033-86.118-3.758-122.071c5.269-35.915,21.486-68.514,48.2-96.892c22.289-23.677,52.216-44.619,88.952-62.245
						c69.527-33.358,153.056-49.75,210.887-57.627c17.537-2.389,35.405-4.377,53.108-5.908
						c73.88-6.392,133.649,11.26,177.648,52.464c53.792,50.376,81.023,135.018,78.746,244.775
						c-0.927,44.748-19.084,84.314-53.966,117.598c-27.269,26.02-65.439,48.427-113.45,66.599
						C1140.068,1122.866,1042.536,1136.152,984.263,1144.089z"/>
					
						<path style="fill:none;stroke:#083747;stroke-width:5.6472;stroke-linecap:round;stroke-linejoin:round;stroke-miterlimit:10;" d="
						M984.263,1144.089c-27.127,3.695-68.071,5.729-109.074-5.568c-41.432-11.415-74.462-34.526-95.519-66.837
						c-24.8-38.053-36.951-84.628-42.778-116.998c-7.698-42.766-9.033-86.118-3.758-122.071c5.269-35.915,21.486-68.514,48.2-96.892
						c22.289-23.677,52.216-44.619,88.952-62.245c69.527-33.358,153.056-49.75,210.887-57.627
						c17.537-2.389,35.405-4.377,53.108-5.908c73.88-6.392,133.649,11.26,177.648,52.464
						c53.792,50.376,81.023,135.018,78.746,244.775c-0.927,44.748-19.084,84.314-53.966,117.598
						c-27.269,26.02-65.439,48.427-113.45,66.599C1140.068,1122.866,1042.536,1136.152,984.263,1144.089z"/>
					<path style="fill:#4BAEB8;" d="M979.994,1112.755c-62.268,8.482-136.872-1.626-173.83-58.336
						c-36.563-56.103-51.253-152.384-41.741-217.212c20.914-142.551,247.271-184.915,372.583-195.756
						c172.106-14.89,225.13,116.648,222.052,265.076C1355.843,1061.515,1096.642,1096.865,979.994,1112.755z"/>
					<g>
						<g>
							
								<ellipse transform="matrix(0.9908 -0.135 0.135 0.9908 -113.4104 135.746)" style="fill:#030C13;" cx="944.447" cy="904.296" rx="96.885" ry="118.087"/>
							<path style="fill:#FFFFFF;" d="M1038.195,894.235c8.563,62.86-26.306,119.507-77.886,126.533
								c-8.796,1.198-17.515,0.87-25.962-0.807c-41.071-8.129-75.817-48.148-82.919-100.286
								c-4.171-30.619,1.969-59.769,15.331-82.426c14.042-23.855,36.099-40.504,62.543-44.106
								C980.882,786.117,1029.632,831.375,1038.195,894.235z"/>
							<path style="fill:#083747;" d="M1004.239,907.797c7.56,55.496-23.708,105.612-69.892,112.165
								c-41.071-8.129-75.817-48.148-82.919-100.286c-4.171-30.619,1.969-59.769,15.331-82.426
								c11.104-10.028,24.621-16.736,39.718-18.792C952.886,812.135,996.657,852.133,1004.239,907.797z"/>
						</g>
						
							<ellipse transform="matrix(0.9908 -0.135 0.135 0.9908 -107.5363 134.0581)" style="fill:#FFFFFF;" cx="934.602" cy="859.862" rx="18.518" ry="19.224"/>
						
							<ellipse transform="matrix(0.9908 -0.135 0.135 0.9908 -121.4561 132.1397)" style="fill:#D8B562;" cx="913.821" cy="961.827" rx="33.548" ry="34.826"/>
					</g>
					<g>
						<g>
							
								<ellipse transform="matrix(0.9908 -0.135 0.135 0.9908 -102.9765 175.0767)" style="fill:#030C13;" cx="1239.734" cy="847.009" rx="79.977" ry="118.087"/>
							<path style="fill:#FFFFFF;" d="M1317.185,839.168c8.563,62.86-19.01,118.513-61.588,124.313
								c-7.261,0.989-14.494,0.458-21.533-1.41c-34.224-9.062-63.95-49.764-71.052-101.903
								c-4.171-30.619,0.237-59.533,10.781-81.806c11.08-23.452,28.969-39.533,50.798-42.506
								C1267.169,730.057,1308.623,776.308,1317.185,839.168z"/>
							<path style="fill:#083747;" d="M1289.364,851.894c7.559,55.496-17.181,104.723-55.299,110.177
								c-34.224-9.062-63.95-49.764-71.052-101.903c-4.171-30.619,0.237-59.533,10.781-81.806
								c8.968-9.737,20.012-16.108,32.474-17.806C1244.577,755.339,1281.781,796.23,1289.364,851.894z"/>
						</g>
						
							<ellipse transform="matrix(0.9909 -0.135 0.135 0.9909 -97.0483 173.4214)" style="fill:#FFFFFF;" cx="1230.539" cy="802.487" rx="15.287" ry="19.224"/>
						
							<ellipse transform="matrix(0.9908 -0.135 0.135 0.9908 -110.8417 172.3534)" style="fill:#D8B562;" cx="1215.699" cy="903.642" rx="27.693" ry="34.825"/>
					</g>
					<g>
						<path d="M1119.331,1022.203c-13.901,0-26.656-6.08-33.276-16.361c-1.351-2.098-0.745-4.893,1.354-6.244
							c2.095-1.35,4.892-0.746,6.244,1.353c5.977,9.284,18.998,13.958,32.401,11.635c14.274-2.475,24.718-12.214,27.937-26.05
							c0.565-2.43,2.995-3.943,5.424-3.376c2.431,0.565,3.942,2.994,3.377,5.424c-4.069,17.488-17.226,29.789-35.193,32.905
							C1124.824,1021.97,1122.055,1022.203,1119.331,1022.203z"/>
					</g>
					<g>
						<path d="M1226.282,691.115c-1.251,0-2.495-0.516-3.389-1.527c-9.894-11.204-27.645-14.94-39.567-8.329
							c-2.179,1.21-4.932,0.422-6.142-1.76c-1.21-2.182-0.422-4.932,1.761-6.142c15.683-8.697,37.965-4.196,50.722,10.251
							c1.651,1.87,1.474,4.725-0.396,6.376C1228.411,690.743,1227.345,691.115,1226.282,691.115z"/>
					</g>
					<g>
						<path d="M871.59,759.744c-0.728,0-1.467-0.176-2.151-0.548c-2.193-1.19-3.005-3.933-1.815-6.125
							c7.832-14.426,29.025-26.813,40.771-29.343c2.438-0.525,4.842,1.026,5.368,3.465c0.525,2.439-1.026,4.842-3.465,5.368
							c-9.694,2.088-28.549,13.431-34.733,24.821C874.746,758.889,873.193,759.744,871.59,759.744z"/>
					</g>
					
						<ellipse transform="matrix(0.8345 -0.5511 0.5511 0.8345 -306.8713 890.7589)" style="fill:#F0977C;" cx="1329.224" cy="956.164" rx="35.024" ry="23.752"/>
					
						<ellipse transform="matrix(0.2765 -0.961 0.961 0.2765 -367.8166 1614.5454)" style="fill:#F0977C;" cx="888.395" cy="1051.559" rx="23.752" ry="35.024"/>
					<g>
						<path style="fill:#118691;" d="M643.882,926.819c9.122,66.971-17.057,125.835-58.473,131.476
							c-13.936,1.898-58.632-9.953-71.27-19.138c-24.923-18.113-29.18-44.21-35.233-88.647
							c-6.757-49.605-16.139-82.274,7.684-104.65c8.341-7.834,55.043-28.625,65.783-30.088
							C593.79,810.131,634.76,859.848,643.882,926.819z"/>
						<path style="fill:#4BAEB8;" d="M584.43,930.855c7.682,56.397-14.935,106.247-49.811,110.998
							c-34.877,4.751-68.807-37.397-76.489-93.794c-7.682-56.397,13.566-105.858,48.443-110.608
							C541.449,832.7,576.748,874.458,584.43,930.855z"/>
						
							<path style="fill:none;stroke:#083747;stroke-width:5.6472;stroke-linecap:round;stroke-linejoin:round;stroke-miterlimit:10;" d="
							M531.722,1020.59c-8.986,1.224-19.516-4.693-28.889-16.233c-11.741-14.456-20.285-36.031-23.44-59.194
							c-6.49-47.648,10.641-83.802,30.076-86.449c20.149-2.745,47.395,28.763,53.698,75.038
							C569.485,980.14,551.777,1017.858,531.722,1020.59z"/>
					</g>
					<g>
						<path style="fill:#083747;" d="M959.982,1194.616c-4.173,0-8.309-0.054-12.411-0.163
							c-62.818-1.671-116.663-15.53-160.04-41.194c-29.608-17.518-54.536-46.927-74.089-87.41
							c-16.718-34.613-29.161-76.36-36.983-124.08c-14.519-88.576-8.917-175.819,3.724-212.936
							c24.969-73.311,80.878-129.582,161.684-162.729c1.443-0.592,3.092,0.098,3.684,1.541c0.592,1.443-0.098,3.092-1.54,3.684
							c-79.252,32.51-134.054,87.604-158.482,159.325c-12.421,36.469-17.868,122.533-3.497,210.203
							c9.723,59.317,36.732,165.155,108.376,207.544c52.723,31.192,114.347,40.517,169.139,40.519
							c60.493,0.003,112.663-11.356,135.438-17.191c1.518-0.39,3.05,0.524,3.437,2.034c0.387,1.511-0.524,3.05-2.034,3.437
							C1052.183,1188.522,1004.235,1194.615,959.982,1194.616z"/>
					</g>
					<g>
						<path style="fill:#083747;" d="M1024.133,607.26c-1.164,0-2.254-0.725-2.663-1.886c-7.688-21.813-21.174-47.878-57.537-55.882
							c-1.523-0.336-2.486-1.842-2.151-3.365c0.336-1.522,1.839-2.486,3.365-2.151c44.094,9.706,56.848,45.896,61.649,59.52
							c0.519,1.471-0.254,3.083-1.725,3.602C1024.761,607.208,1024.444,607.26,1024.133,607.26z"/>
					</g>
				</g>
				<g>
					<g>
						<path style="fill:#F2CB6E;" d="M865.173,526.141c-14.533-14.553-24.517-55.708-98.944-97.033
							c-17.7-9.828-81.798-58.271-80.048-122.359c1.726-63.194,41.047-141.061,141.744-154.992
							c98.098-13.571,182.341,41.721,186.79,132.993c2.59,53.131-26.448,80.094-49.769,123.79
							c-21.375,40.051-14.084,99.428-14.084,99.428L865.173,526.141z"/>
						<path style="fill:#FFDB85;" d="M815.871,185.075c24.153-19.542,96.8-29.191,133.26,11.913
							c44.8,50.507,33.945,111.402,28.956,117.13c-5.622,6.454,3.268-29.698-44.554-82.502
							C885.862,178.977,802.388,195.983,815.871,185.075z"/>
					</g>
					<g>
						<g>
							<path style="fill:#DEEDF1;" d="M959.7,530.511l-96.75,21.665c-7.78,1.742-15.499-3.152-17.241-10.932l-0.816-3.647
								c-1.742-7.78,3.152-15.499,10.932-17.241l96.75-21.665c7.78-1.742,15.499,3.152,17.241,10.932l0.817,3.647
								C972.374,521.05,967.48,528.769,959.7,530.511z"/>
							<path style="fill:#DEEDF1;" d="M953.014,500.655l-96.75,21.665c-7.78,1.742-15.499-3.152-17.241-10.932l-0.817-3.647
								c-1.742-7.78,3.152-15.499,10.932-17.241l96.75-21.665c7.78-1.742,15.499,3.152,17.241,10.932l0.817,3.647
								C965.689,491.194,960.794,498.913,953.014,500.655z"/>
						</g>
						<g>
							<path style="fill:#083747;" d="M853.042,524.467c-0.21,0-0.41-0.002-0.601-0.007c-1.559-0.036-2.793-1.33-2.757-2.888
								c0.036-1.559,1.362-2.768,2.888-2.757c13.976,0.306,82.635-12.545,100.223-23.721c1.315-0.835,3.061-0.448,3.898,0.869
								c0.836,1.316,0.447,3.061-0.869,3.898C937.341,511.604,869.023,524.467,853.042,524.467z"/>
						</g>
						<g>
							<path style="fill:#083747;" d="M862.563,554.589c-0.211,0-0.41-0.003-0.602-0.007c-1.559-0.036-2.793-1.33-2.757-2.889
								c0.036-1.558,1.351-2.775,2.889-2.757c13.972,0.331,82.633-12.543,100.222-23.72c1.315-0.836,3.061-0.447,3.898,0.869
								c0.836,1.316,0.447,3.061-0.869,3.898C946.861,541.728,878.549,554.589,862.563,554.589z"/>
						</g>
					</g>
					<g>
						<g>
							<path style="fill:#F2CB6E;" d="M1073.157,375.09c-0.28,0-0.566-0.035-0.851-0.109c-5.882-1.522-24.623-8.697-25.418-9.002
								c-1.747-0.67-2.621-2.629-1.951-4.377c0.669-1.748,2.626-2.622,4.377-1.951c0.191,0.073,19.177,7.343,24.689,8.77
								c1.812,0.469,2.9,2.317,2.432,4.129C1076.04,374.077,1074.665,375.09,1073.157,375.09z"/>
						</g>
						<g>
							<path style="fill:#F2CB6E;" d="M1066.159,298.38c-0.484,0-0.935-0.003-1.344-0.008c-1.871-0.027-3.366-1.566-3.339-3.437
								c0.026-1.871,1.567-3.33,3.437-3.339c2.031,0.033,5.207-0.027,8.572-0.087c6.264-0.112,12.742-0.229,16.033,0.078
								c1.863,0.173,3.232,1.824,3.06,3.688c-0.174,1.864-1.813,3.238-3.688,3.06c-2.915-0.272-9.485-0.154-15.283-0.05
								C1070.841,298.333,1068.198,298.38,1066.159,298.38z"/>
						</g>
						<g>
							<path style="fill:#F2CB6E;" d="M1052.073,225.358c-1.427,0-2.754-0.909-3.221-2.339c-0.58-1.779,0.392-3.691,2.171-4.271
								c1.141-0.372,2.438-0.825,3.984-1.363c4.131-1.44,10.373-3.616,20.181-6.522c1.795-0.534,3.681,0.492,4.212,2.286
								c0.531,1.794-0.492,3.68-2.286,4.212c-9.654,2.861-15.563,4.92-19.876,6.424c-1.597,0.556-2.937,1.023-4.113,1.407
								C1052.775,225.304,1052.422,225.358,1052.073,225.358z"/>
						</g>
						<g>
							<path style="fill:#F2CB6E;" d="M1020.373,162.638c-0.938,0-1.871-0.387-2.541-1.145c-1.238-1.403-1.105-3.544,0.298-4.783
								c0.979-0.864,2.449-2.099,4.151-3.528c4.101-3.443,9.716-8.158,13.275-11.729c1.321-1.326,3.467-1.33,4.792-0.008
								c1.325,1.321,1.329,3.466,0.009,4.791c-3.772,3.785-9.521,8.611-13.719,12.136c-1.668,1.4-3.108,2.61-4.024,3.418
								C1021.971,162.359,1021.17,162.638,1020.373,162.638z"/>
						</g>
						<g>
							<path style="fill:#F2CB6E;" d="M950.181,120.602c-0.422,0-0.852-0.08-1.268-0.248c-1.735-0.701-2.574-2.675-1.873-4.41
								c2.46-6.093,6.566-16.771,7.11-19.482c0.368-1.834,2.152-3.022,3.989-2.655c1.835,0.369,3.023,2.154,2.655,3.989
								c-0.848,4.221-6.796,19.013-7.472,20.686C952.791,119.8,951.521,120.602,950.181,120.602z"/>
						</g>
						<g>
							<path style="fill:#F2CB6E;" d="M876.228,110.782c-0.034,0-0.068-0.001-0.103-0.001c-1.87-0.055-3.342-1.617-3.286-3.487
								c0.035-1.197,0.048-2.569,0.063-4.204c0.042-4.375,0.105-10.986,0.686-21.204c0.106-1.868,1.715-3.299,3.575-3.19
								c1.869,0.106,3.297,1.707,3.19,3.575c-0.572,10.059-0.632,16.315-0.675,20.884c-0.016,1.688-0.03,3.104-0.066,4.34
								C879.559,109.33,878.053,110.782,876.228,110.782z"/>
						</g>
						<g>
							<path style="fill:#F2CB6E;" d="M806.483,119.412c-1.347,0-2.622-0.809-3.149-2.137c-0.483-1.214-1.148-3.018-1.919-5.106
								c-1.853-5.021-4.391-11.898-6.548-16.453c-0.801-1.691-0.079-3.712,1.612-4.513c1.691-0.801,3.711-0.079,4.513,1.612
								c2.286,4.827,4.883,11.867,6.78,17.007c0.755,2.046,1.407,3.813,1.858,4.949c0.691,1.739-0.158,3.709-1.896,4.4
								C807.323,119.335,806.899,119.412,806.483,119.412z"/>
						</g>
						<g>
							<path style="fill:#F2CB6E;" d="M742.818,140.285c-1.125,0-2.226-0.56-2.87-1.583c-3.503-5.56-9.761-15.136-11.642-17.164
								c-1.273-1.372-1.192-3.516,0.18-4.789c1.373-1.273,3.515-1.192,4.789,0.18c2.927,3.156,11.445,16.633,12.407,18.16
								c0.997,1.583,0.523,3.675-1.061,4.673C744.06,140.116,743.435,140.285,742.818,140.285z"/>
						</g>
						<g>
							<path style="fill:#F2CB6E;" d="M691.587,194.523c-0.72,0-1.445-0.229-2.06-0.701c-0.951-0.729-2.056-1.542-3.373-2.511
								c-3.524-2.593-8.849-6.511-16.796-12.96c-1.453-1.179-1.675-3.313-0.497-4.766c1.18-1.453,3.313-1.675,4.766-0.497
								c7.823,6.348,12.863,10.056,16.543,12.764c1.359,1.001,2.5,1.84,3.482,2.593c1.485,1.139,1.765,3.266,0.625,4.751
								C693.61,194.067,692.604,194.523,691.587,194.523z"/>
						</g>
						<g>
							<path style="fill:#F2CB6E;" d="M657.792,256.138c-0.273,0-0.551-0.033-0.829-0.103c-1.269-0.319-3.125-0.835-5.273-1.433
								c-5.154-1.434-12.212-3.397-17.166-4.312c-1.84-0.34-3.057-2.107-2.717-3.947c0.34-1.84,2.105-3.06,3.947-2.717
								c5.249,0.97,12.475,2.98,17.751,4.447c2.105,0.585,3.922,1.091,5.109,1.389c1.815,0.456,2.916,2.297,2.46,4.112
								C660.69,255.113,659.309,256.138,657.792,256.138z"/>
						</g>
						<g>
							<path style="fill:#F2CB6E;" d="M631.891,332.345c-1.357,0-2.639-0.821-3.16-2.163c-0.677-1.745,0.188-3.708,1.932-4.385
								c4.013-1.558,19.681-4.509,21.455-4.84c1.835-0.348,3.609,0.869,3.953,2.708c0.344,1.84-0.869,3.609-2.708,3.953
								c-6.46,1.207-17.668,3.495-20.246,4.496C632.713,332.271,632.298,332.345,631.891,332.345z"/>
						</g>
						<g>
							<path style="fill:#F2CB6E;" d="M662.547,408.287c-1.185,0-2.336-0.622-2.957-1.73c-0.916-1.632-0.336-3.697,1.296-4.614
								c8.785-4.933,14.089-8.251,17.963-10.674c1.431-0.895,2.631-1.645,3.692-2.28c1.606-0.962,3.686-0.437,4.647,1.17
								c0.96,1.606,0.437,3.686-1.169,4.647c-1.028,0.615-2.191,1.342-3.576,2.209c-3.709,2.32-9.315,5.826-18.239,10.838
								C663.678,408.147,663.109,408.287,662.547,408.287z"/>
						</g>
						<g>
							<path style="fill:#F2CB6E;" d="M705.06,469.915c-0.42,0-0.847-0.061-1.269-0.19c-2.289-0.7-3.577-3.124-2.876-5.413
								c0.625-2.04,7.103-10.148,19.256-24.096c1.572-1.804,4.31-1.992,6.115-0.42c1.805,1.572,1.993,4.31,0.421,6.115
								c-5.479,6.289-16.238,19.015-17.661,21.373C708.357,468.899,706.768,469.915,705.06,469.915z M709.204,466.849
								c0,0.001-0.001,0.003-0.002,0.004C709.203,466.851,709.203,466.85,709.204,466.849z"/>
						</g>
					</g>
				</g>
			</g>
			<g>
				<g>
					
						<ellipse transform="matrix(0.9566 -0.2913 0.2913 0.9566 -253.9419 447.7438)" style="fill:#083747;" cx="1376.945" cy="1076.832" rx="65.216" ry="42.27"/>
					
						<ellipse transform="matrix(0.9566 -0.2913 0.2913 0.9566 -250.8371 443.1347)" style="fill:#1D5569;" cx="1363.023" cy="1064.102" rx="27.7" ry="17.954"/>
				</g>
				<g>
					<path style="fill:#083747;" d="M1433.284,1057.762c-0.997,0-1.964-0.529-2.478-1.464c-0.751-1.367-0.252-3.084,1.114-3.835
						c69.992-38.469,94.788-117.594,83.107-175.873c-12.299-61.362-51.353-103.698-104.469-113.249
						c-1.534-0.276-2.555-1.744-2.279-3.278c0.276-1.534,1.738-2.562,3.279-2.279c28.478,5.12,53.704,19.497,72.951,41.576
						c17.669,20.268,30.136,46.59,36.055,76.121c6.541,32.635,2.319,68.395-11.888,100.693
						c-15.389,34.984-40.989,63.076-74.036,81.239C1434.21,1057.649,1433.743,1057.762,1433.284,1057.762z"/>
				</g>
			</g>
		</g>
	</g>
</g>
</svg>
