<?xml version="1.0" encoding="utf-8"?>
<!-- Generator: Adobe Illustrator 27.5.0, SVG Export Plug-In . SVG Version: 6.00 Build 0)  -->
<svg version="1.1" id="Layer_1" xmlns="http://www.w3.org/2000/svg" xmlns:xlink="http://www.w3.org/1999/xlink" x="0px" y="0px"
	 viewBox="0 0 1000 1000" style="enable-background:new 0 0 1000 1000;" xml:space="preserve">
<g>
	<g>
		<g>
			<g>
				<path style="fill:#06050A;" d="M468.616,853.066c-5.884,0-11.681-1.197-17.045-3.576c-9.815-4.354-17.007-12.127-20.248-21.888
					l9.186-3.05c2.37,7.142,7.693,12.857,14.986,16.092c7.449,3.305,16.043,3.635,24.185,0.93
					c8.235-2.734,14.962-8.216,18.942-15.435l8.475,4.673c-5.162,9.358-13.815,16.442-24.367,19.945
					C478.091,852.299,473.326,853.066,468.616,853.066z"/>
			</g>
		</g>
	</g>
	<g>
		<g>
			<g>
				
					<ellipse transform="matrix(0.065 -0.9979 0.9979 0.065 -445.4165 1196.8903)" style="fill:#76BEF4;" cx="415.981" cy="836.13" rx="29.068" ry="29.068"/>
			</g>
		</g>
	</g>
	<g>
		<g>
			<g>
				<path style="fill:#06050A;" d="M416.005,867.136c-12.998,0-25.132-8.241-29.447-21.235c-2.61-7.859-2.004-16.265,1.709-23.667
					c3.712-7.403,10.084-12.917,17.943-15.527c7.861-2.611,16.268-2.003,23.667,1.708c7.403,3.712,12.919,10.084,15.529,17.944
					c2.61,7.859,2.004,16.265-1.709,23.668c-3.712,7.402-10.085,12.917-17.944,15.526
					C422.522,866.626,419.236,867.136,416.005,867.136z M416.007,808.984c-2.877,0-5.767,0.463-8.577,1.396
					c-6.878,2.284-12.456,7.11-15.703,13.588c-3.249,6.479-3.78,13.834-1.495,20.712c2.283,6.878,7.109,12.455,13.588,15.704
					c6.477,3.248,13.833,3.779,20.711,1.495l0,0c6.878-2.284,12.456-7.11,15.705-13.588c3.249-6.479,3.78-13.834,1.495-20.712
					c-2.283-6.878-7.11-12.455-13.588-15.703C424.31,809.955,420.173,808.984,416.007,808.984z"/>
			</g>
		</g>
	</g>
	<g>
		<g>
			<g>
				<circle style="fill:#EAF4FC;" cx="483.106" cy="477.587" r="347.761"/>
			</g>
		</g>
	</g>
	<g>
		<g>
			<g>
				<path style="fill:#FFFFFF;" d="M576.058,394.724c-0.866,7.129-1.285,14.203-1.272,21.204l-0.004,0.031
					c-0.003,5.068,0.233,10.103,0.695,15.087c0.262,2.888,0.587,5.768,0.995,8.611c-0.004,0.031,0.008,0.064,0.02,0.096
					c3.195,22.547,10.804,43.887,22.031,62.968c5.15,8.77,11.08,17.054,17.676,24.775c0.054,0.069,0.11,0.123,0.165,0.193
					c0.081,0.104,0.178,0.21,0.277,0.301c6.258,7.272,13.143,14.024,20.542,20.164c1.198,0.993,2.428,1.974,3.661,2.94
					c0.043,0.037,0.085,0.073,0.143,0.111c23.874,18.702,53.004,31.34,85.311,35.262c17.151,2.082,34.022,1.557,50.213-1.248
					c0.272-0.045,0.544-0.091,0.817-0.136c0.433-0.073,0.883-0.16,1.317-0.248c0.578-0.103,1.139-0.207,1.721-0.34
					c4.628-0.898,9.204-2.005,13.708-3.295c2.307-0.646,4.59-1.357,6.864-2.117c1.666-0.536,3.32-1.104,4.962-1.705
					c11.083-4.037,21.69-9.199,31.647-15.335c5.699-3.514,11.174-7.369,16.401-11.521c34.355-27.168,58.398-67.374,64.092-114.28
					c8.96-73.8-30.142-142.355-92.711-174.276l-0.016-0.002c-11.365-5.789-23.503-10.386-36.267-13.568
					c-0.091-0.027-0.182-0.053-0.259-0.063c-6.823-1.707-13.823-2.997-20.967-3.864c-5.475-0.665-10.919-1.059-16.317-1.196
					c-2.126-0.07-4.226-0.089-6.332-0.063c-10.95,0.099-21.697,1.242-32.14,3.364c-9.12,1.827-17.999,4.39-26.568,7.619
					c-40.619,15.297-74.464,45.634-93.888,85.02c-4.131,8.302-7.59,17.016-10.34,26.098
					C579.361,374.755,577.289,384.579,576.058,394.724z"/>
			</g>
		</g>
	</g>
	<g>
		<g>
			<g>
				<path style="fill:#06050A;" d="M747.458,589.689c-7.092,0-14.227-0.434-21.394-1.305c-33.256-4.037-64.414-17.434-90.104-38.742
					c-45.891-38.042-69.005-96.045-61.828-155.159l1.922,0.233l-1.922-0.233c11.577-95.349,98.577-163.498,193.916-151.928
					c46.186,5.607,87.423,28.867,116.117,65.493c28.691,36.626,41.404,82.233,35.798,128.421
					c-7.952,65.481-51.406,120.17-113.41,142.726C787.418,586.179,767.616,589.688,747.458,589.689z M746.932,245.145
					c-84.834,0-158.479,63.511-168.956,149.805c-7.018,57.8,15.582,114.515,60.456,151.713
					c25.117,20.833,55.581,33.932,88.096,37.879c26.937,3.271,53.41,0.246,78.699-8.984
					c60.628-22.055,103.119-75.53,110.891-139.555c5.483-45.161-6.946-89.754-35-125.566
					c-28.056-35.813-68.377-58.555-113.535-64.038C760.647,245.556,753.75,245.145,746.932,245.145z"/>
			</g>
		</g>
	</g>
	<g>
		<g>
			<g>
				<g>
					<g>
						<g>
							<g>
								<g>
									<g>
										<path style="fill:#FFD31A;" d="M520.742,447.067l-29.308-2.384l-8.756-13.983c-1.792-2.862-5.412-3.978-8.505-2.621l0,0
											c-3.119,1.368-4.747,4.831-3.81,8.106l3.763,13.157l-28.039-2.222c-7.251-0.385-15.684,7.773-0.582,14.034
											c0,0-9.602,1.539-10.93,6.635c-1.327,5.096,9.305,9.009,9.305,9.009s-7.178,4.788-5.472,9.178
											c1.706,4.39,9.651,5.728,9.651,5.728s-3.721,8.391,6.769,10.493c10.49,2.102,62.931,0.37,62.931,0.37L520.742,447.067z"/>
									</g>
								</g>
							</g>
							<g>
								<g>
									<g>
										
											<rect x="455.469" y="450.383" transform="matrix(0.0992 -0.9951 0.9951 0.0992 -48.0486 871.6034)" style="fill:#06050A;" width="3.871" height="23.916"/>
									</g>
								</g>
							</g>
							<g>
								<g>
									<g>
										
											<rect x="454.461" y="464.53" transform="matrix(0.02 -0.9998 0.9998 0.02 -29.6951 923.802)" style="fill:#06050A;" width="3.871" height="25.037"/>
									</g>
								</g>
							</g>
							<g>
								<g>
									<g>
										
											<rect x="448.006" y="488.707" transform="matrix(0.9951 -0.0986 0.0986 0.9951 -46.1572 47.6388)" style="fill:#06050A;" width="21.446" height="3.871"/>
									</g>
								</g>
							</g>
							<g>
								<g>
									<g>
										<path style="fill:#FF6158;" d="M674.71,376.114L674.71,376.114c-27.384-3.225-54.12,10.012-68.067,33.798
											c-11.174,19.057-22.86,34.157-33.454,35.622c-21.56,2.982-68.287-2.506-68.287-2.506l2.75,66.71
											c0,0,60.032,7.192,86.139-0.406c49.339-14.359,80.772-94.536,80.772-94.536L674.71,376.114z"/>
									</g>
								</g>
							</g>
							<g>
								<g>
									<g>
										<path style="fill:#FF6158;" d="M612.753,521.032c0.084,0.108,0.185,0.218,0.288,0.312
											c6.494,7.547,13.472,15.203,21.15,21.575c1.243,1.03,2.52,2.048,3.799,3.051c0.044,0.038,0.088,0.076,0.149,0.116
											c24.776,19.408,54.634,36.313,88.16,40.383c17.798,2.161,35.306,1.615,52.108-1.296c0.283-0.047,0.565-0.094,0.847-0.141
											c0.449-0.076,0.916-0.165,1.367-0.257c0.599-0.106,1.182-0.215,1.786-0.353c4.803-0.932,9.552-2.081,14.225-3.419
											c2.394-0.67,4.763-1.409,7.123-2.197l4.044-153.098c-0.801-16.204-11.683-29.999-26.959-34.688l0.002-0.016
											c-1.068-0.325-2.158-0.604-3.269-0.837l-10.926-1.489l-6.215-0.852l-31.674-4.301l-10.607-1.435l-36.995-5.012
											l-11.999-1.636c-0.048-0.006-0.114,0.002-0.162-0.003l-0.032-0.004c-19.135-0.678-35.823,12.832-39.093,31.717
											l-11.625,76.173l-0.002,0.016L612.753,521.032z"/>
									</g>
								</g>
							</g>
							<g>
								<g>
									<g>
										<polygon style="fill:#06050A;" points="614.416,526.063 610.586,525.501 616.856,482.715 625.07,430.633 628.892,431.236 
											620.683,483.281 										"/>
									</g>
								</g>
							</g>
							<g>
								<g>
									<g>
										<path style="fill:#FF6158;" d="M780.841,391.002l-0.002,0.016l-0.218,193.755c0.599-0.106,1.182-0.215,1.786-0.353
											c4.803-0.932,9.552-2.081,14.225-3.419c2.394-0.67,4.763-1.409,7.123-2.197c1.729-0.556,3.445-1.145,5.149-1.769
											c11.501-4.19,22.509-9.546,32.842-15.914c5.915-3.647,11.596-7.647,17.021-11.955l-0.202-75.866
											C850.16,433.455,820.143,401.686,780.841,391.002z"/>
									</g>
								</g>
							</g>
							<g>
								<g>
									<g>
										
											<rect x="724.512" y="522.706" transform="matrix(0.032 -0.9995 0.9995 0.032 234.8533 1291.7733)" style="fill:#06050A;" width="119.62" height="3.869"/>
									</g>
								</g>
							</g>
							<g>
								<g>
									<g>
										<path style="fill:#FFD31A;" d="M681.153,377.07c-0.124,20.351,16.306,38.208,38.573,40.911
											c21.837,2.651,48.535-9.385,53.761-28.561L681.153,377.07z"/>
									</g>
								</g>
							</g>
							<g>
								<g>
									<g>
										<g>
											<polygon style="fill:#FFD31A;" points="699.081,379.251 765.673,388.246 779.394,304.107 708.896,315.355 											"/>
										</g>
									</g>
								</g>
								<g>
									<g>
										<g>
											<path style="fill:#FFD31A;" d="M782.326,311.838c0,0-41.035,54.802-79.522,36.762
												c-46.201-21.656-25.147-118.286,19.144-120.511C766.24,225.863,796.72,246.432,782.326,311.838z"/>
										</g>
									</g>
								</g>
								<g>
									<g>
										<g>
											<path style="fill:#06050A;" d="M717.797,353.846c-5.332,0-10.724-0.996-15.844-3.508l1.705-3.475
												c15.727,7.718,34.811-0.633,44.787-6.299l1.913,3.366C742.861,348.187,730.504,353.846,717.797,353.846z"/>
										</g>
									</g>
								</g>
								<g>
									<g>
										<g>
											<path style="fill:#06050A;" d="M791.483,318.111c-1.391,0.001-2.803-0.145-4.236-0.439
												c-25.352-5.205-28.992-39.032-29.481-50.971c-20.708,15.393-41.897-2.072-46.838-6.643
												c-4.82,2.427-21.751,9.671-33.868-1.105l-0.002-0.001c-5.555-4.945-4.848-10.044-3.933-12.644
												c1.166-3.314,3.911-6.207,7.262-7.984c-8.32-4.222-17.925-14.505-17.323-26.56c0.508-10.143,7.781-10.156,14.198-10.168
												c5.26-0.01,10.702-0.019,14.813-4.206c10.154-10.336,21.38-14.883,33.415-13.522
												c27.503,3.121,50.081,35.983,54.445,42.727c6.719-1.278,35.667-5.572,41.772,13.848
												c4.999,15.871,0.709,53.441-14.015,69.766C802.988,315.428,797.448,318.111,791.483,318.111z M761.662,258.161
												l-0.091,4.521c-0.009,0.456-0.611,45.642,26.455,51.198c6.243,1.278,11.892-0.827,16.791-6.261
												c13.663-15.148,17.823-51.322,13.197-66.012c-5.702-18.15-38.247-11.033-38.573-10.959l-1.351,0.305l-0.726-1.18
												c-0.238-0.388-24.184-38.871-52.319-42.058c-10.789-1.222-20.934,2.949-30.209,12.389
												c-5.247,5.343-12.078,5.355-17.566,5.365c-6.944,0.013-10.029,0.28-10.339,6.49
												c-0.663,13.239,13.801,24.049,20.156,24.53l-0.047,3.863c-4.406,0.223-8.914,3.404-10.265,7.241
												c-1.038,2.951-0.049,5.879,2.856,8.467l0,0c11.902,10.581,30.476,0.062,30.663-0.046l1.317-0.761l1.053,1.102
												c0.97,1.018,24.019,24.693,45.664,4.859L761.662,258.161z"/>
										</g>
									</g>
								</g>
								<g>
									<g>
										<g>
											<path style="fill:#06050A;" d="M781.286,262.456c-4.094,0-8.398-0.54-11.373-2.339l-0.556-0.335
												c-2.775-1.666-5.918-3.554-7.573-6.83c-0.756-1.497-1.183-3.049-1.597-4.55c-0.178-0.642-0.353-1.284-0.558-1.915
												c-0.69-2.15-1.586-3.545-2.735-4.268c-1.149-0.722-2.843-0.919-5.02-0.586c-1.327,0.203-2.637,0.536-4.022,0.89
												c-1.682,0.428-3.419,0.871-5.236,1.077c-4.345,0.493-8.099-0.694-10.326-3.256c-3.423-3.94-2.306-9.902,0.484-13.511
												c2.771-3.586,6.844-5.581,10.439-7.342l1.701,3.476c-3.213,1.575-6.857,3.36-9.078,6.233
												c-1.873,2.425-2.62,6.308-0.624,8.605c1.355,1.561,3.958,2.292,6.965,1.948c1.555-0.176,3.092-0.568,4.718-0.982
												c1.416-0.361,2.88-0.733,4.393-0.965c3.177-0.484,5.68-0.113,7.666,1.135c1.952,1.227,3.379,3.307,4.36,6.358
												c0.219,0.683,0.412,1.378,0.603,2.074c0.38,1.378,0.739,2.681,1.321,3.832c1.153,2.28,3.561,3.727,6.111,5.259
												l0.567,0.34c3.022,1.829,9.418,2.278,17.096,1.203c0.266-0.037,0.429-0.053,0.472-0.055l0.174,3.867l-0.11,0.021
												C787.357,262.147,784.382,262.456,781.286,262.456z"/>
										</g>
									</g>
								</g>
							</g>
						</g>
						<g>
							<g>
								<g>
									
										<ellipse transform="matrix(0.7071 -0.7071 0.7071 0.7071 27.6459 639.6803)" style="fill:#FFD31A;" cx="785.985" cy="286.469" rx="17.116" ry="17.116"/>
								</g>
							</g>
						</g>
						<g>
							<g>
								<g>
									<path style="fill:#06050A;" d="M811.792,265.81l-3.739-1.009c4.069-15.068-4.867-21.796-5.249-22.076l2.257-3.144
										C805.534,239.919,816.586,248.053,811.792,265.81z"/>
								</g>
							</g>
						</g>
						<g>
							<g>
								<g>
									<path style="fill:#06050A;" d="M792.298,296.861l-2.347-3.078c2.918-2.226,4.404-4.558,4.417-6.931
										c0.019-3.865-3.829-6.97-3.867-7.001l2.378-3.053c0.221,0.171,5.389,4.264,5.36,10.074
										C798.22,290.508,796.222,293.869,792.298,296.861z"/>
								</g>
							</g>
						</g>
					</g>
				</g>
				<g>
					<g>
						<g>
							<path style="fill:#06050A;" d="M699.219,208.454l-3.145-2.256c6.938-9.68,26.314-10.75,27.134-10.791l0.193,3.866
								C723.22,199.282,705.071,200.291,699.219,208.454z"/>
						</g>
					</g>
				</g>
			</g>
		</g>
	</g>
	<g>
		<g>
			<g>
				<path d="M693.109,280.767c-1.061,2.86,0.06,5.913,2.504,6.82c2.444,0.907,5.285-0.677,6.346-3.537
					c1.061-2.86-0.06-5.913-2.504-6.82C697.011,276.324,694.17,277.907,693.109,280.767z"/>
			</g>
		</g>
	</g>
	<g>
		<g>
			<g>
				<path d="M720.036,290.757c-1.061,2.86,0.06,5.913,2.504,6.82c2.444,0.907,5.285-0.677,6.346-3.537
					c1.061-2.86-0.06-5.913-2.504-6.82C723.938,286.313,721.097,287.897,720.036,290.757z"/>
			</g>
		</g>
	</g>
	<g>
		<g>
			<g>
				<path style="fill:#06050A;" d="M702.595,312.869c-0.359,0-0.72-0.1-1.045-0.308c-2.465-1.585-4.145-4.153-4.61-7.047
					c-0.463-2.893,0.327-5.859,2.172-8.135l14.862-18.339c0.673-0.829,1.888-0.96,2.724-0.285c0.83,0.673,0.958,1.891,0.285,2.722
					l-14.862,18.339c-1.153,1.423-1.648,3.276-1.359,5.084c0.291,1.809,1.342,3.414,2.882,4.405c0.898,0.578,1.159,1.775,0.58,2.674
					C703.856,312.556,703.232,312.869,702.595,312.869z"/>
			</g>
		</g>
	</g>
	<g>
		<g>
			<g>
				<path style="fill:#06050A;" d="M724.344,323.231c1.044,3.889-2.368,8.184-7.62,9.595c-5.252,1.41-10.357-0.599-11.401-4.488
					c-1.044-3.889,4.288-2.694,9.541-4.105S723.299,319.342,724.344,323.231z"/>
			</g>
		</g>
	</g>
	<g>
		<g>
			<g>
				<g>
					<g>
						<g>
							<g>
								<g>
									<path style="fill:#3F66D1;" d="M664.149,779.666c7.406-3.592,10.864-12.36,7.74-20.108
										c-3.262-8.089-12.462-12.003-20.551-8.741c-0.754,0.301-78.072,30.557-123.974-6.351
										c-47.559-38.242-77.576-113.489-77.875-114.245c-3.195-8.111-12.361-12.103-20.474-8.912
										c-8.153,3.2-12.109,12.35-8.922,20.463c1.334,3.399,33.303,83.746,87.479,127.307
										c60.4,48.567,151.719,12.585,155.575,11.03C663.49,779.972,663.823,779.824,664.149,779.666z"/>
								</g>
							</g>
							<g>
								<g>
									<path style="fill:#06050A;" d="M587.214,796.309c-26.82,0-56.324-5.997-80.855-25.721
										c-54.574-43.883-86.724-124.691-88.066-128.109c-1.733-4.408-1.65-9.222,0.234-13.553c1.886-4.339,5.36-7.684,9.781-9.419
										c9.091-3.574,19.4,0.914,22.981,10.005c0.297,0.75,30.239,75.614,77.287,113.446c44.98,36.167,121.28,6.367,122.044,6.062
										c4.387-1.771,9.205-1.722,13.561,0.13c4.357,1.853,7.732,5.293,9.503,9.684c3.472,8.609-0.346,18.525-8.69,22.573
										c-0.002,0-0.002,0.002-0.004,0.002c-0.367,0.177-0.739,0.343-1.121,0.497C661.531,782.848,627.387,796.309,587.214,796.309
										z M434.776,622.149c-1.684,0-3.395,0.309-5.052,0.961c-3.459,1.357-6.175,3.971-7.647,7.36
										c-1.472,3.384-1.537,7.146-0.181,10.594c1.327,3.38,33.107,83.261,86.89,126.507
										c59.526,47.867,149.822,12.282,153.638,10.743c0.304-0.122,0.597-0.253,0.885-0.392c6.519-3.165,9.5-10.912,6.785-17.641
										c-1.383-3.433-4.022-6.122-7.428-7.57c-3.404-1.448-7.173-1.484-10.603-0.1c-0.792,0.316-79.164,30.947-125.913-6.638
										c-47.836-38.467-78.16-114.281-78.461-115.042C445.542,625.483,440.304,622.149,434.776,622.149z M664.149,779.666h0.019
										H664.149z"/>
								</g>
							</g>
						</g>
						<g>
							<g>
								<g>
									<path style="fill:#06050A;" d="M458.003,657.792c-0.068,0-0.138-0.003-0.206-0.011c-1.064-0.113-1.833-1.066-1.72-2.129
										c1.14-10.716,0.282-21.079-2.554-30.802c-0.299-1.026,0.289-2.1,1.316-2.399c1.039-0.303,2.102,0.292,2.4,1.316
										c2.977,10.209,3.88,21.074,2.686,32.294C459.819,657.055,458.98,657.792,458.003,657.792z"/>
								</g>
							</g>
						</g>
						<g>
							<g>
								<g>
									<path style="fill:#06050A;" d="M453.092,707.3c-0.851,0-1.631-0.566-1.866-1.427c-0.282-1.031,0.327-2.095,1.359-2.376
										c10.405-2.833,19.808-7.422,27.945-13.638c0.854-0.651,2.066-0.484,2.714,0.363c0.648,0.849,0.486,2.064-0.363,2.713
										c-8.539,6.522-18.389,11.332-29.279,14.297C453.433,707.278,453.261,707.3,453.092,707.3z"/>
								</g>
							</g>
						</g>
						<g>
							<g>
								<g>
									<path style="fill:#06050A;" d="M470.311,732.033c-0.849,0-1.629-0.564-1.866-1.424c-0.282-1.031,0.325-2.096,1.355-2.378
										c10.594-2.905,20.11-7.599,28.287-13.952c0.847-0.658,2.062-0.501,2.716,0.341c0.656,0.844,0.503,2.06-0.342,2.715
										c-8.579,6.667-18.551,11.589-29.636,14.629C470.653,732.01,470.481,732.033,470.311,732.033z"/>
								</g>
							</g>
						</g>
						<g>
							<g>
								<g>
									<path style="fill:#06050A;" d="M490.828,755.781c-0.822,0-1.584-0.526-1.845-1.351c-0.323-1.019,0.24-2.107,1.259-2.43
										c13.404-4.252,22.738-10.844,28.206-15.625c0.801-0.702,2.022-0.623,2.731,0.183c0.703,0.805,0.622,2.028-0.183,2.731
										c-5.746,5.023-15.542,11.947-29.582,16.4C491.219,755.751,491.02,755.781,490.828,755.781z"/>
								</g>
							</g>
						</g>
						<g>
							<g>
								<g>
									<path style="fill:#06050A;" d="M520.381,779.839c-0.607,0-1.202-0.283-1.58-0.815c-0.618-0.872-0.414-2.08,0.457-2.699
										c11.34-8.053,18.184-17.121,21.929-23.309c0.552-0.916,1.741-1.209,2.657-0.654c0.915,0.553,1.208,1.743,0.654,2.657
										c-3.933,6.502-11.117,16.024-22.998,24.462C521.159,779.724,520.768,779.839,520.381,779.839z"/>
								</g>
							</g>
						</g>
						<g>
							<g>
								<g>
									<path style="fill:#06050A;" d="M558.411,793.75c-0.427,0-0.858-0.141-1.217-0.432c-0.83-0.673-0.958-1.892-0.284-2.722
										c7.199-8.878,12.31-18.628,15.187-28.979c0.287-1.031,1.365-1.632,2.383-1.346c1.03,0.286,1.633,1.353,1.348,2.383
										c-3.022,10.867-8.375,21.088-15.912,30.381C559.534,793.505,558.974,793.75,558.411,793.75z"/>
								</g>
							</g>
						</g>
						<g>
							<g>
								<g>
									<path style="fill:#06050A;" d="M587.393,796.323c-0.491,0-0.983-0.186-1.361-0.558c-0.76-0.751-0.767-1.977-0.015-2.737
										c11.707-11.85,17.262-24.059,19.861-32.214c0.325-1.018,1.416-1.579,2.432-1.256c1.019,0.325,1.58,1.413,1.257,2.432
										c-2.727,8.559-8.551,21.363-20.798,33.759C588.391,796.131,587.892,796.323,587.393,796.323z"/>
								</g>
							</g>
						</g>
						<g>
							<g>
								<g>
									<path style="fill:#06050A;" d="M627.603,792.153c-0.378,0-0.76-0.111-1.096-0.342c-0.881-0.606-1.102-1.811-0.495-2.691
										c9.541-13.855,12.911-26.901,14.058-35.406c0.144-1.058,1.079-1.805,2.177-1.659c1.058,0.143,1.801,1.117,1.659,2.177
										c-1.204,8.922-4.733,22.6-14.708,37.084C628.824,791.861,628.219,792.153,627.603,792.153z"/>
								</g>
							</g>
						</g>
					</g>
					<g>
						<g>
							<g>
								<g>
									<path style="fill:#06050A;" d="M727.344,774.693c-15.232,0-29.211-8.513-34.547-22.576l9.05-3.432
										c5.16,13.603,21.732,19.977,36.926,14.211c7.524-2.855,13.544-8.194,16.948-15.035l8.664,4.312
										c-4.493,9.028-12.37,16.049-22.18,19.77C737.287,773.808,732.248,774.693,727.344,774.693z"/>
								</g>
							</g>
						</g>
					</g>
					<g>
						<g>
							<g>
								<path style="fill:#06050A;" d="M692.797,752.116c-7.05-18.592,3.638-39.948,23.828-47.605
									c9.808-3.721,20.358-3.692,29.712,0.085l-3.621,8.973c-7.086-2.86-15.134-2.865-22.658-0.01
									c-15.2,5.766-23.371,21.523-18.211,35.126L692.797,752.116z"/>
							</g>
						</g>
					</g>
					<g>
						<g>
							<g>
								<circle style="fill:#76BEF4;" cx="679.066" cy="760.589" r="27.222"/>
							</g>
						</g>
					</g>
					<g>
						<g>
							<g>
								<path style="fill:#06050A;" d="M679.052,789.762c-4.069,0-8.129-0.863-11.951-2.584
									c-7.103-3.196-12.535-8.966-15.296-16.248c-5.702-15.032,1.888-31.901,16.92-37.603c7.279-2.761,15.202-2.525,22.305,0.672
									c7.103,3.196,12.535,8.966,15.296,16.248c2.763,7.282,2.523,15.204-0.671,22.306c-3.196,7.102-8.966,12.535-16.249,15.297
									l0,0C686.044,789.126,682.545,789.762,679.052,789.762z M679.077,735.289c-3.028,0-6.063,0.551-8.98,1.658
									c-13.036,4.945-19.619,19.574-14.674,32.61c2.397,6.315,7.107,11.32,13.266,14.091c6.16,2.771,13.03,2.98,19.345,0.583l0,0
									c13.036-4.945,19.619-19.574,14.674-32.61c-2.397-6.315-7.107-11.32-13.266-14.091
									C686.127,736.038,682.606,735.289,679.077,735.289z"/>
							</g>
						</g>
					</g>
				</g>
				<g>
					<g>
						<g>
							<path style="fill:#2D4FCB;" d="M438.567,682.109L438.567,682.109c-25.167,8.357-52.343-5.269-60.7-30.436v0
								c-8.357-25.166,5.269-52.343,30.436-60.7l0,0c25.166-8.357,52.343,5.269,60.7,30.436v0
								C477.36,646.575,463.734,673.752,438.567,682.109z"/>
						</g>
					</g>
				</g>
				<g>
					<g>
						<g>
							<path style="fill:#06050A;" d="M423.386,686.516c-7.668,0-15.287-1.787-22.341-5.324
								c-11.926-5.98-20.81-16.247-25.015-28.909c-4.205-12.662-3.228-26.204,2.752-38.131c5.98-11.927,16.249-20.811,28.911-25.016
								c26.145-8.682,54.464,5.523,63.147,31.662c4.206,12.663,3.226,26.204-2.754,38.131c-5.98,11.927-16.247,20.811-28.909,25.016
								C434.004,685.664,428.684,686.516,423.386,686.516z M423.399,590.458c-4.803,0-9.685,0.758-14.486,2.352
								c-11.682,3.879-21.154,12.075-26.671,23.078c-5.517,11.002-6.419,23.495-2.538,35.176
								c3.878,11.681,12.074,21.152,23.076,26.669c11.006,5.518,23.497,6.419,35.176,2.54v0
								c11.681-3.879,21.154-12.075,26.671-23.077c5.515-11.003,6.419-23.495,2.538-35.176
								C460.753,602.708,442.716,590.458,423.399,590.458z"/>
						</g>
					</g>
				</g>
				<g>
					<g>
						<g>
							<path style="fill:#76BEF4;" d="M313.165,838.314c138.209-20.83,138.376-244.257,107.436-259.084
								c-3.948-1.891-9.692-3.047-16.525-3.653c-34.543-3.123-97.607,7.628-97.607,7.628s-82.302,10.194-125.131,30.468
								l-0.016,0.015c-13.424,6.346-23.022,13.7-25.058,22.067C152.259,652.18,185.795,857.515,313.165,838.314z"/>
						</g>
					</g>
				</g>
				<g>
					<g>
						<g>
							<path style="fill:#59A6EA;" d="M313.165,838.314c26.628-4.017,48.398-16.188,65.801-33.228
								c-12.467,7.503-26.599,12.799-42.471,15.178C210.061,839.231,175.049,636.33,178.897,620.092
								c0.57-2.384,1.747-4.678,3.475-6.896c-0.345,0.16-0.689,0.319-1.034,0.478l-0.016,0.015
								c-13.424,6.346-23.022,13.7-25.058,22.067C152.259,652.18,185.795,857.515,313.165,838.314z"/>
						</g>
					</g>
				</g>
				<g>
					<g>
						<g>
							<path style="fill:#2D4FCB;" d="M181.323,613.689c0,0,75.099,26.579,134.226,15.238c33.961-6.518,67.013-32.741,88.528-53.349
								c-34.543-3.123-97.607,7.628-97.607,7.628s-82.302,10.194-125.131,30.468L181.323,613.689z"/>
						</g>
					</g>
				</g>
				<g>
					<g>
						<g>
							<path style="fill:#06050A;" d="M296.649,841.522c-29.663,0.001-56.114-12.524-78.825-37.371
								c-51.794-56.67-66.332-156.996-63.437-168.859c8.734-35.797,145.35-53.198,151.798-53.998
								c4.306-0.733,91.222-15.318,115.257-3.803c15.612,7.478,22.256,57.514,14.51,109.264
								c-3.948,26.379-13.34,64.654-35.666,97.195c-21.932,31.969-51.145,50.904-86.826,56.282
								C307.75,841.092,302.144,841.522,296.649,841.522z M389.958,576.938c-34.653,0-82.511,8.067-83.167,8.179l-0.087,0.013
								c-1.404,0.174-140.429,17.771-148.556,51.08c-2.504,10.26,12.081,110.131,62.533,165.331
								c25.994,28.438,57.02,40.164,92.2,34.864c89.344-13.464,113.153-109.541,119.241-150.223
								c7.936-53.022,0.025-99.271-12.352-105.2C413.594,578.023,402.659,576.938,389.958,576.938z"/>
						</g>
					</g>
				</g>
			</g>
		</g>
		<g>
			<g>
				<g>
					<path style="fill:#FFFFFF;" d="M281.855,708.449c1.678,22.51,26.965,37.609,56.378,33.408
						c29.326-4.189,50.978-25.894,48.477-48.169c-2.463-21.926-27.484-36.253-55.995-32.296
						C302.121,665.36,280.203,686.292,281.855,708.449z"/>
				</g>
			</g>
		</g>
	</g>
	<g>
		<g>
			<g>
				<path style="fill:#FF78CF;" d="M766.796,632.02l-30.308,188.345L520.37,861.185l32.023-194.142
					c0.451-2.735,2.896-5.367,5.58-6.125l200.67-36.863C763.384,623.174,767.559,627.262,766.796,632.02z"/>
			</g>
		</g>
	</g>
	<g>
		<g>
			<g>
				<path style="fill:#F941B8;" d="M557.973,660.917c-2.684,0.757-5.129,3.39-5.58,6.125L520.37,861.185l-9.216-1.022
					l31.626-191.772c0.475-2.905,2.729-5.201,5.636-5.727L557.973,660.917z"/>
			</g>
		</g>
	</g>
	<g>
		<g>
			<g>
				<polygon style="fill:#F941B8;" points="522.066,850.904 356.69,831.701 356.681,843.576 520.37,861.185 				"/>
			</g>
		</g>
	</g>
	<g>
		<g>
			<g>
				<polygon style="fill:#FF78CF;" points="356.69,831.701 521.026,800.304 512.857,849.834 				"/>
			</g>
		</g>
	</g>
	<g>
		<g>
			<g>
				<path style="fill:#06050A;" d="M651.968,772.791c-4.124,0-7.84-1.416-10.66-4.102c-3.525-3.361-5.188-8.243-4.684-13.747
					c0.987-10.776,10.295-20.735,20.749-22.202c5.164-0.728,9.891,0.665,13.302,3.915c3.525,3.36,5.188,8.242,4.684,13.747v0
					c-0.987,10.776-10.295,20.736-20.751,22.203C653.714,772.728,652.831,772.791,651.968,772.791z M659.993,736.424
					c-0.679,0-1.374,0.049-2.083,0.148c-8.779,1.232-16.599,9.631-17.43,18.722c-0.395,4.303,0.847,8.065,3.499,10.592
					c2.536,2.416,6.112,3.44,10.093,2.883c8.779-1.232,16.6-9.63,17.432-18.722v0c0.395-4.302-0.849-8.064-3.5-10.591
					C665.92,737.469,663.127,736.424,659.993,736.424z"/>
			</g>
		</g>
	</g>
	<g>
		<g>
			<g>
				<path style="fill:#FFFFFF;" d="M652.166,772.989c-4.124,0-7.84-1.416-10.66-4.102c-3.525-3.36-5.188-8.242-4.685-13.747
					c0.989-10.776,10.297-20.736,20.751-22.203c5.162-0.726,9.889,0.665,13.299,3.913c3.527,3.36,5.19,8.243,4.687,13.747
					c-0.987,10.776-10.295,20.736-20.751,22.203C653.913,772.926,653.03,772.989,652.166,772.989z M660.191,736.622
					c-0.679,0-1.374,0.049-2.083,0.148c-8.778,1.232-16.599,9.631-17.432,18.723c-0.395,4.303,0.849,8.065,3.5,10.592
					c2.536,2.415,6.105,3.441,10.093,2.883c8.779-1.232,16.601-9.631,17.432-18.722c0.395-4.304-0.849-8.065-3.501-10.593
					C666.117,737.667,663.325,736.622,660.191,736.622z"/>
			</g>
		</g>
	</g>
	<g>
		<g>
			<g>
				<path style="fill:#3F66D1;" d="M399.212,855.815c8.062-3.501,12.144-12.7,9.158-21.106
					c-3.118-8.776-12.758-13.363-21.534-10.245c-0.818,0.287-84.661,29.106-131.981-12.327
					c-49.027-42.929-77.684-124.552-77.968-125.372c-3.046-8.797-12.646-13.466-21.444-10.425
					c-8.842,3.049-13.472,12.634-10.435,21.432c1.271,3.686,31.781,90.838,87.629,139.738
					c62.265,54.519,161.302,20.22,165.486,18.733C398.495,856.112,398.857,855.969,399.212,855.815z"/>
			</g>
		</g>
		<g>
			<g>
				<path style="fill:#06050A;" d="M324.705,870.174c-30.738,0-65.603-6.919-93.343-31.208
					c-56.277-49.275-86.908-136.86-88.183-140.564c-1.639-4.747-1.336-9.843,0.852-14.347c2.191-4.513,6.02-7.902,10.781-9.544
					c9.796-3.385,20.513,1.831,23.904,11.622c0.283,0.813,29.009,82.165,77.414,124.549
					c46.433,40.656,129.234,12.249,130.065,11.957c4.723-1.679,9.827-1.417,14.361,0.741c4.534,2.157,7.957,5.951,9.637,10.682
					c3.296,9.276-1.189,19.612-10.21,23.529l-0.002,0c-0.395,0.172-0.798,0.331-1.211,0.478
					C396.4,858.91,363.913,870.174,324.705,870.174z M160.936,677.35c-1.614,0-3.253,0.264-4.859,0.819
					c-3.784,1.305-6.825,3.996-8.564,7.577c-1.737,3.576-1.977,7.623-0.675,11.394c1.263,3.666,31.564,90.31,87.076,138.914
					c61.433,53.793,159.418,19.838,163.561,18.366c0.333-0.117,0.652-0.244,0.966-0.38l0,0c7.161-3.11,10.722-11.316,8.105-18.683
					c-1.334-3.757-4.052-6.77-7.653-8.483c-3.599-1.713-7.655-1.922-11.408-0.586c-0.856,0.302-85.789,29.432-133.906-12.694
					c-49.163-43.05-78.232-125.365-78.519-126.192C172.923,681.231,167.122,677.35,160.936,677.35z M399.212,855.815h0.019H399.212z
					"/>
			</g>
		</g>
	</g>
	<g>
		<g>
			<g>
				<path style="fill:#06050A;" d="M162.639,741.255c-0.862,0-1.648-0.581-1.873-1.456c-0.265-1.035,0.359-2.09,1.395-2.355
					c11.165-2.86,21.229-7.592,29.912-14.064c0.858-0.64,2.07-0.462,2.708,0.395c0.639,0.857,0.461,2.07-0.395,2.708
					c-9.089,6.775-19.608,11.724-31.266,14.711C162.96,741.235,162.798,741.255,162.639,741.255z"/>
			</g>
		</g>
	</g>
	<g>
		<g>
			<g>
				<path style="fill:#06050A;" d="M177.367,769.03c-0.883,0-1.68-0.609-1.884-1.506c-0.238-1.042,0.414-2.08,1.457-2.317
					c11.242-2.56,21.494-7.041,30.472-13.319c0.877-0.611,2.083-0.4,2.695,0.477c0.612,0.876,0.399,2.082-0.476,2.695
					c-9.39,6.566-20.099,11.25-31.833,13.921C177.654,769.014,177.508,769.03,177.367,769.03z"/>
			</g>
		</g>
	</g>
	<g>
		<g>
			<g>
				<path style="fill:#06050A;" d="M194.631,796.188c-0.881,0-1.678-0.607-1.884-1.503c-0.24-1.042,0.412-2.081,1.453-2.32
					c11.446-2.629,21.827-7.218,30.848-13.64c0.871-0.62,2.083-0.415,2.699,0.454c0.62,0.871,0.418,2.079-0.454,2.699
					c-9.439,6.718-20.282,11.515-32.228,14.259C194.92,796.172,194.774,796.188,194.631,796.188z"/>
			</g>
		</g>
	</g>
	<g>
		<g>
			<g>
				<path style="fill:#06050A;" d="M215.454,822.442c-0.851,0-1.631-0.567-1.866-1.428c-0.28-1.031,0.329-2.095,1.361-2.375
					c14.516-3.943,24.781-10.567,30.838-15.431c0.834-0.67,2.051-0.536,2.72,0.297c0.671,0.833,0.537,2.052-0.297,2.721
					c-6.343,5.094-17.088,12.031-32.249,16.148C215.794,822.42,215.622,822.442,215.454,822.442z"/>
			</g>
		</g>
	</g>
	<g>
		<g>
			<g>
				<path style="fill:#06050A;" d="M245.908,849.434c-0.633,0-1.255-0.31-1.625-0.882c-0.582-0.896-0.327-2.095,0.571-2.677
					c12.474-8.094,20.195-17.477,24.476-23.924c0.592-0.89,1.792-1.133,2.682-0.542c0.892,0.591,1.134,1.792,0.543,2.683
					c-4.483,6.752-12.563,16.575-25.595,25.03C246.634,849.333,246.269,849.434,245.908,849.434z"/>
			</g>
		</g>
	</g>
	<g>
		<g>
			<g>
				<path style="fill:#06050A;" d="M285.861,865.978c-0.456,0-0.913-0.16-1.281-0.485c-0.801-0.707-0.877-1.931-0.17-2.732
					c8.093-9.162,13.99-19.351,17.531-30.285c0.329-1.016,1.423-1.576,2.436-1.245c1.017,0.329,1.574,1.421,1.246,2.438
					c-3.704,11.442-9.864,22.092-18.309,31.654C286.928,865.757,286.396,865.978,285.861,865.978z"/>
			</g>
		</g>
	</g>
	<g>
		<g>
			<g>
				<path style="fill:#06050A;" d="M316.663,870.02c-0.518,0-1.036-0.207-1.417-0.617c-0.728-0.783-0.684-2.007,0.098-2.735
					c13.04-12.132,19.524-24.93,22.669-33.53c0.369-1.004,1.48-1.521,2.483-1.153c1.004,0.367,1.52,1.479,1.153,2.483
					c-3.291,8.997-10.068,22.379-23.668,35.034C317.608,869.848,317.136,870.02,316.663,870.02z"/>
			</g>
		</g>
	</g>
	<g>
		<g>
			<g>
				<path style="fill:#06050A;" d="M359.749,867.371c-0.405,0-0.813-0.127-1.162-0.389c-0.854-0.643-1.024-1.856-0.382-2.71
					c10.815-14.375,15.002-28.164,16.61-37.2c0.187-1.052,1.185-1.754,2.243-1.567c1.053,0.187,1.754,1.192,1.567,2.244
					c-1.68,9.451-6.052,23.864-17.328,38.85C360.917,867.105,360.337,867.371,359.749,867.371z"/>
			</g>
		</g>
	</g>
	<g>
		<g>
			<g>
				<path style="fill:#2D4FCB;" d="M183.986,713.024L183.986,713.024c-22.82,6.147-46.303-7.368-52.451-30.189v0
					c-6.147-22.82,7.368-46.303,30.189-52.451h0c22.82-6.148,46.303,7.368,52.451,30.188v0
					C220.322,683.393,206.806,706.876,183.986,713.024z"/>
			</g>
		</g>
	</g>
	<g>
		<g>
			<g>
				<path style="fill:#06050A;" d="M172.783,716.451c-7.73,0-15.361-2.022-22.241-5.982c-10.354-5.96-17.768-15.595-20.876-27.131
					c-3.107-11.536-1.537-23.591,4.423-33.946c5.959-10.355,15.595-17.769,27.132-20.876c11.539-3.109,23.594-1.536,33.946,4.423
					c10.354,5.96,17.768,15.595,20.876,27.131c3.107,11.536,1.537,23.592-4.423,33.947c-5.959,10.355-15.595,17.769-27.132,20.876
					C180.618,715.935,176.686,716.451,172.783,716.451z M172.921,630.829c-3.567,0-7.156,0.472-10.694,1.424
					c-10.537,2.839-19.339,9.611-24.783,19.069c-5.443,9.459-6.878,20.471-4.039,31.008c2.837,10.538,9.609,19.339,19.069,24.784
					c9.46,5.444,20.468,6.878,31.008,4.04l0,0c10.537-2.839,19.339-9.611,24.783-19.07c5.443-9.458,6.878-20.471,4.039-31.009
					c-2.837-10.538-9.609-19.339-19.069-24.783C186.953,632.677,179.982,630.829,172.921,630.829z"/>
			</g>
		</g>
	</g>
	<g>
		<g>
			<g>
				<path style="fill:#06050A;" d="M431.323,827.602c-6.634-19.979,5.632-42.099,27.344-49.308
					c10.554-3.505,21.726-3.005,31.457,1.408l-3.996,8.813c-7.505-3.404-16.177-3.773-24.41-1.038
					c-16.648,5.528-26.162,22.16-21.208,37.075L431.323,827.602z"/>
			</g>
		</g>
	</g>
	<g>
		<g>
			<g>
				<g>
					<path style="fill:#1F1F21;" d="M338.326,309.592l11.936,63.218c0.531,2.81,3.249,4.665,6.082,4.13
						c2.81-0.531,4.665-3.249,4.135-6.059l-11.936-63.218c-0.531-2.81-3.249-4.666-6.06-4.136c-1.417,0.268-2.595,1.077-3.332,2.187
						C338.386,306.806,338.059,308.176,338.326,309.592z"/>
				</g>
			</g>
		</g>
		<g>
			<g>
				<g>
					<path style="fill:#06050A;" d="M355.359,378.969c-1.421,0-2.809-0.424-4.007-1.239c-1.576-1.072-2.638-2.692-2.99-4.562
						l-11.938-63.217c0-0.001,0-0.001,0-0.001c-0.355-1.889,0.049-3.788,1.143-5.347c1.026-1.547,2.654-2.619,4.557-2.978
						c3.873-0.73,7.591,1.821,8.32,5.678l11.936,63.218c0.353,1.867-0.043,3.762-1.117,5.335c-1.074,1.573-2.692,2.633-4.559,2.986
						C356.256,378.926,355.805,378.969,355.359,378.969z M340.227,309.233l11.938,63.218c0.161,0.852,0.645,1.589,1.365,2.078
						c0.722,0.491,1.597,0.673,2.457,0.509c0.85-0.161,1.589-0.645,2.079-1.364c0.491-0.719,0.673-1.583,0.512-2.434l-11.936-63.218
						c-0.335-1.764-2.058-2.924-3.799-2.593c-0.869,0.164-1.607,0.645-2.079,1.356c-0.516,0.738-0.697,1.593-0.537,2.449V309.233z"
						/>
				</g>
			</g>
		</g>
	</g>
	<g>
		<g>
			<g>
				<g>
					<path style="fill:#FFFFFF;" d="M346.131,372.518l10.571,55.985c1.004,5.315,6.152,8.81,11.469,7.806
						c5.315-1.003,8.814-6.131,7.81-11.446l-10.571-55.985c-1.008-5.338-6.135-8.836-11.451-7.833
						c-2.658,0.502-4.874,2.025-6.285,4.119C346.262,367.236,345.629,369.86,346.131,372.518z"/>
				</g>
			</g>
		</g>
		<g>
			<g>
				<g>
					<path style="fill:#06050A;" d="M366.325,438.417c-2.336,0.001-4.617-0.698-6.595-2.042c-2.597-1.767-4.349-4.435-4.929-7.514
						l-10.571-55.985v0c-0.582-3.078,0.074-6.205,1.847-8.804c1.745-2.59,4.419-4.344,7.524-4.93
						c3.073-0.58,6.203,0.072,8.791,1.843c2.591,1.77,4.338,4.445,4.92,7.533l10.571,55.984c0.582,3.079-0.072,6.2-1.839,8.79
						c-1.767,2.589-4.436,4.336-7.515,4.917C367.795,438.349,367.058,438.417,366.325,438.417z M355.791,362.808
						c-0.49,0-0.981,0.046-1.472,0.138c-2.081,0.393-3.871,1.564-5.039,3.298c-1.196,1.755-1.637,3.851-1.247,5.913v0l10.571,55.985
						c0.389,2.06,1.563,3.847,3.304,5.031c1.741,1.184,3.839,1.624,5.903,1.232c2.064-0.389,3.852-1.56,5.037-3.295
						c1.183-1.736,1.622-3.827,1.232-5.89l-10.571-55.984c-0.391-2.073-1.563-3.868-3.3-5.056
						C358.887,363.278,357.358,362.808,355.791,362.808z"/>
				</g>
			</g>
		</g>
	</g>
	<g>
		<g>
			<g>
				<g>
					
						<ellipse transform="matrix(0.9826 -0.1855 0.1855 0.9826 -75.8985 75.6862)" style="fill:#2D4FCB;" cx="366.437" cy="443.363" rx="35.153" ry="35.942"/>
				</g>
			</g>
		</g>
		<g>
			<g>
				<g>
					<path style="fill:#06050A;" d="M366.644,481.225c-7.447,0-14.727-2.289-21.025-6.689c-8.201-5.73-13.75-14.357-15.625-24.291
						c-1.877-9.934,0.146-19.99,5.693-28.316c5.555-8.339,13.981-13.945,23.722-15.785c9.745-1.839,19.632,0.309,27.846,6.048
						c8.201,5.73,13.75,14.357,15.625,24.291l0,0c1.877,9.934-0.146,19.99-5.693,28.317c-5.555,8.339-13.979,13.945-23.722,15.785
						C371.192,481.013,368.91,481.225,366.644,481.225z M366.221,409.374c-2.024,0-4.062,0.189-6.094,0.573
						c-8.709,1.645-16.247,6.662-21.22,14.127c-4.982,7.479-6.797,16.518-5.111,25.452c1.686,8.934,6.672,16.688,14.039,21.836
						c7.352,5.138,16.198,7.065,24.911,5.417c8.711-1.645,16.247-6.662,21.22-14.127c4.982-7.479,6.797-16.518,5.111-25.452l0,0
						c-1.686-8.934-6.672-16.688-14.04-21.836C379.4,411.424,372.881,409.374,366.221,409.374z"/>
				</g>
			</g>
		</g>
	</g>
	<g>
		<g>
			<g>
				<path style="fill:#76BEF4;" d="M120.204,505.273c4.878,25.835,19.776,47.232,39.879,60.979
					c20.13,13.706,45.486,19.777,71.322,14.899l75.081-14.176c20.934-3.953,38.965-14.484,52.362-29.039
					c19.664-21.362,29.319-51.427,23.516-82.163c-4.875-25.818-19.776-47.232-39.879-60.979
					c-20.134-13.724-45.484-19.76-71.319-14.882l-75.081,14.176c-48.529,9.163-81.443,53.629-77.174,101.808
					C119.181,499.012,119.611,502.132,120.204,505.273z"/>
			</g>
		</g>
	</g>
	<g>
		<g>
			<g>
				<path style="fill:#59A6EA;" d="M120.204,505.273c4.878,25.835,19.776,47.232,39.879,60.979
					c20.13,13.706,45.486,19.777,71.322,14.899l75.081-14.176c20.934-3.953,38.965-14.484,52.362-29.039
					C171.29,595.26,125.45,510.95,118.911,495.897C119.181,499.012,119.611,502.132,120.204,505.273z"/>
			</g>
		</g>
	</g>
	<g>
		<g>
			<g>
				<path style="fill:#06050A;" d="M213.558,584.759c-19.328,0-38.215-5.781-54.563-16.907
					c-21.432-14.661-35.879-36.76-40.688-62.228c-4.814-25.489,0.588-51.326,15.209-72.751
					c14.624-21.426,36.718-35.877,62.215-40.692l75.068-14.174c25.486-4.812,51.338,0.583,72.779,15.194
					c21.424,14.638,35.872,36.73,40.68,62.206c4.816,25.499-0.586,51.342-15.206,72.77c-14.622,21.427-36.717,35.88-62.216,40.694
					l-75.068,14.174C225.702,584.192,219.606,584.759,213.558,584.759z M289.026,380.165c-5.816,0-11.669,0.544-17.508,1.647
					l-75.068,14.174c-24.482,4.623-45.696,18.498-59.736,39.07c-14.039,20.571-19.226,45.378-14.605,69.851
					c4.617,24.454,18.492,45.673,39.066,59.749c20.606,14.023,45.422,19.207,69.876,14.588l75.068-14.174
					c24.484-4.623,45.698-18.499,59.736-39.073c14.038-20.573,19.224-45.387,14.601-69.869
					c-4.618-24.462-18.489-45.673-39.06-59.727C325.722,385.718,307.589,380.165,289.026,380.165z"/>
			</g>
		</g>
	</g>
	<g>
		<g>
			<g>
				<path style="fill:#2D4FCB;" d="M168.417,496.163c3.179,16.839,12.73,31.459,26.901,41.147
					c14.161,9.644,31.259,13.207,48.098,10.028l65.984-12.459c1.503-0.284,2.975-0.607,4.411-1.013
					c11.611-3.027,21.738-9.135,29.63-17.281c14.096-14.483,21.161-35.377,17.134-56.704c-3.179-16.839-12.727-31.438-26.897-41.126
					c-3.781-2.58-7.75-4.719-11.902-6.394c-10.493-4.313-21.908-5.745-33.326-4.086c-0.972,0.116-1.912,0.271-2.87,0.452
					l-65.984,12.459C184.807,427.755,161.853,461.396,168.417,496.163z"/>
			</g>
		</g>
	</g>
	<g>
		<g>
			<g>
				<path style="fill:#FFFFFF;" d="M304.272,490.746c1.578,11.386-5.766,22.292-17.181,24.924
					c-11.415,2.631-22.792-3.96-26.358-14.888L304.272,490.746z"/>
			</g>
		</g>
	</g>
	<g>
		<g>
			<g>
				<g>
					
						<ellipse transform="matrix(0.7365 -0.6765 0.6765 0.7365 -226.9374 327.4315)" style="fill:#FFD31A;" cx="306.793" cy="454.993" rx="22.548" ry="22.548"/>
				</g>
			</g>
		</g>
		<g>
			<g>
				<g>
					<path style="fill:#06050A;" d="M306.748,479.484c-4.538,0-8.993-1.269-12.936-3.733c-5.545-3.468-9.407-8.887-10.875-15.259
						l0,0l0,0c-1.469-6.372-0.369-12.936,3.1-18.481c3.466-5.545,8.885-9.407,15.258-10.876c6.375-1.47,12.936-0.368,18.479,3.099
						c5.546,3.467,9.409,8.887,10.877,15.259c1.468,6.372,0.368,12.936-3.1,18.481c-3.466,5.545-8.885,9.407-15.258,10.876
						C310.451,479.275,308.592,479.484,306.748,479.484z M306.833,434.373c-1.554,0-3.117,0.177-4.668,0.534
						c-5.364,1.237-9.927,4.488-12.847,9.156c-2.918,4.668-3.846,10.194-2.608,15.559l0,0c1.236,5.365,4.487,9.927,9.156,12.846
						c4.668,2.919,10.191,3.845,15.559,2.609c5.364-1.237,9.927-4.488,12.847-9.157c2.918-4.668,3.846-10.194,2.608-15.559
						c-1.236-5.365-4.489-9.927-9.155-12.846C314.405,435.441,310.653,434.373,306.833,434.373z"/>
				</g>
			</g>
		</g>
	</g>
	<g>
		<g>
			<g>
				<path style="fill:#06050A;" d="M297.932,457.035c1.302,5.648,6.936,9.172,12.584,7.87c5.648-1.302,9.171-6.936,7.87-12.584
					c-1.302-5.648-6.936-9.171-12.584-7.87C300.154,445.753,296.63,451.387,297.932,457.035z"/>
			</g>
		</g>
	</g>
	<g>
		<g>
			<g>
				<path style="fill:#FFFFFF;" d="M306.483,449.281c0.886,3.842,4.718,6.239,8.56,5.353s6.239-4.718,5.353-8.56
					c-0.886-3.842-4.718-6.239-8.56-5.353C307.994,441.607,305.598,445.439,306.483,449.281z"/>
			</g>
		</g>
	</g>
	<g>
		<g>
			<g>
				<g>
					
						<ellipse transform="matrix(0.0418 -0.9991 0.9991 0.0418 -235.7358 691.167)" style="fill:#FFD31A;" cx="242.481" cy="468.487" rx="22.548" ry="22.548"/>
				</g>
			</g>
		</g>
		<g>
			<g>
				<g>
					<path style="fill:#06050A;" d="M242.48,492.973c-11.146,0.001-21.248-7.674-23.857-18.987l0,0
						c-1.469-6.372-0.369-12.936,3.1-18.48c3.466-5.545,8.885-9.407,15.258-10.876c6.377-1.469,12.936-0.368,18.481,3.099
						c5.545,3.467,9.407,8.887,10.875,15.259c1.469,6.372,0.369,12.935-3.1,18.48c-3.466,5.545-8.885,9.407-15.259,10.876
						C246.139,492.77,244.294,492.973,242.48,492.973z M242.519,447.868c-1.554,0-3.117,0.177-4.668,0.534
						c-5.364,1.237-9.927,4.489-12.847,9.157c-2.918,4.668-3.846,10.194-2.608,15.559l0,0c2.552,11.074,13.629,18.008,24.715,15.456
						c5.364-1.237,9.927-4.489,12.847-9.157c2.918-4.669,3.846-10.194,2.608-15.559c-1.236-5.365-4.487-9.927-9.155-12.847
						C250.091,448.936,246.339,447.868,242.519,447.868z"/>
				</g>
			</g>
		</g>
	</g>
	<g>
		<g>
			<g>
				<path style="fill:#06050A;" d="M233.62,470.53c1.302,5.648,6.936,9.171,12.584,7.87c5.648-1.302,9.171-6.936,7.87-12.584
					c-1.302-5.648-6.936-9.172-12.584-7.87C235.842,459.248,232.318,464.882,233.62,470.53z"/>
			</g>
		</g>
	</g>
	<g>
		<g>
			<g>
				<path style="fill:#FFFFFF;" d="M242.171,462.776c0.886,3.842,4.718,6.239,8.56,5.353c3.842-0.886,6.239-4.718,5.353-8.56
					c-0.886-3.842-4.718-6.239-8.56-5.353C243.682,455.102,241.285,458.934,242.171,462.776z"/>
			</g>
		</g>
	</g>
	<g style="opacity:0.3;">
		<g>
			<g>
				<g>
					<path style="fill:#FFFFFF;" d="M324.138,467.641c4.681,24.79,0.324,48.669-10.327,66.225
						c11.611-3.027,21.738-9.135,29.63-17.281c5.925-15.579,7.713-34.191,4.094-53.361c-3.772-19.977-12.854-37.844-25.757-50.862
						c-10.493-4.313-21.908-5.745-33.326-4.086c2.158,1.51,4.256,3.19,6.293,5.016C309.581,426.508,320.016,445.812,324.138,467.641
						z"/>
				</g>
			</g>
		</g>
	</g>
	<g style="opacity:0.3;">
		<g>
			<g>
				<g>
					<path style="fill:#FFFFFF;" d="M274.357,478.212c4.405,23.331,2.645,45.795-3.821,64.005l13.267-2.505
						c6.466-18.21,8.225-40.674,3.82-64.005c-4.619-24.464-15.262-46.3-30.014-61.699l-13.266,2.505
						C259.095,431.912,269.738,453.749,274.357,478.212z"/>
				</g>
			</g>
		</g>
	</g>
	<g style="opacity:0.3;">
		<g>
			<g>
				<g>
					<path style="fill:#FFFFFF;" d="M184.46,454.898c-4.665,9.012-4.059,25.533,0.005,27.637
						c4.064,2.103,10.046-11.008,14.711-20.02c4.665-9.012,8.138-19.481,4.075-21.584
						C199.186,438.827,189.124,445.886,184.46,454.898z"/>
				</g>
			</g>
		</g>
	</g>
	<g style="opacity:0.3;">
		<g>
			<g>
				<g>
					<path style="fill:#FFFFFF;" d="M178.277,501.629c1.153,6.105,5.356,10.437,9.387,9.676c4.032-0.761,3.585-5.802,2.432-11.908
						c-1.153-6.105-2.575-10.962-6.606-10.201C179.459,489.958,177.125,495.524,178.277,501.629z"/>
				</g>
			</g>
		</g>
	</g>
	<g>
		<g>
			<g>
				<path style="fill:#06050A;" d="M231.349,550.409c-13.161,0-26.009-3.932-37.119-11.499
					c-14.597-9.978-24.437-25.031-27.714-42.388c-6.764-35.823,16.888-70.472,52.722-77.238l65.984-12.459
					c1.002-0.189,1.983-0.35,2.998-0.471c11.601-1.686,23.477-0.229,34.294,4.218c4.226,1.705,8.354,3.922,12.255,6.585
					c14.595,9.978,24.435,25.024,27.708,42.366c3.988,21.124-2.61,42.96-17.65,58.412c-8.347,8.616-18.904,14.774-30.528,17.805
					c-1.325,0.376-2.78,0.71-4.54,1.042l-65.984,12.459C239.631,550.022,235.475,550.409,231.349,550.409z M297.651,409.546
					c-2.975,0-5.956,0.214-8.923,0.645c-0.975,0.118-1.873,0.266-2.788,0.438l-65.984,12.458
					c-33.738,6.37-56.005,38.99-49.637,72.716l0,0c3.087,16.342,12.352,30.516,26.092,39.909
					c13.737,9.355,30.306,12.811,46.645,9.724l65.984-12.459c1.644-0.31,2.992-0.62,4.243-0.974
					c10.976-2.862,20.91-8.656,28.767-16.766c14.164-14.553,20.377-35.111,16.623-54.997c-3.083-16.327-12.348-30.493-26.089-39.888
					c-3.671-2.505-7.551-4.591-11.531-6.197C313.622,411.101,305.665,409.546,297.651,409.546z"/>
			</g>
		</g>
	</g>
	<g>
		<g>
			<g>
				<g>
					
						<ellipse transform="matrix(0.9826 -0.1855 0.1855 0.9826 -85.7763 29.8355)" style="fill:#2D4FCB;" cx="116.526" cy="473.229" rx="35.153" ry="35.942"/>
				</g>
			</g>
		</g>
		<g>
			<g>
				<g>
					<path style="fill:#06050A;" d="M116.733,511.09c-7.447,0-14.727-2.289-21.025-6.69c-8.201-5.73-13.75-14.357-15.625-24.291
						c-1.877-9.934,0.146-19.99,5.693-28.316c5.555-8.339,13.981-13.945,23.722-15.785c20.093-3.794,39.597,9.815,43.472,30.339l0,0
						c3.875,20.523-9.322,40.307-29.415,44.101C121.281,510.878,118.999,511.09,116.733,511.09z M116.255,439.246
						c-1.994,0-4.013,0.184-6.039,0.567c-8.709,1.645-16.247,6.662-21.22,14.127c-4.982,7.479-6.797,16.518-5.111,25.452
						c1.686,8.934,6.672,16.689,14.04,21.836c7.352,5.138,16.198,7.064,24.911,5.417c17.997-3.398,29.808-21.153,26.331-39.579
						C146.078,450.715,131.969,439.246,116.255,439.246z"/>
				</g>
			</g>
		</g>
	</g>
	<g>
		<g>
			<g>
				<g>
					<path style="fill:#76BEF4;" d="M127.854,462.995c1.949,10.324-4.656,20.239-14.753,22.145s-19.863-4.917-21.812-15.241
						c-1.949-10.324,4.656-20.239,14.753-22.145S125.905,452.671,127.854,462.995z"/>
				</g>
			</g>
		</g>
		<g>
			<g>
				<g>
					<path style="fill:#06050A;" d="M109.715,487.394c-9.711,0.001-18.424-7.062-20.328-17.135
						c-2.143-11.356,5.168-22.305,16.296-24.407c5.402-1.02,10.881,0.17,15.429,3.35c4.538,3.17,7.608,7.942,8.643,13.435l0,0
						c2.143,11.356-5.166,22.305-16.294,24.406C112.204,487.28,110.951,487.394,109.715,487.394z M109.456,449.368
						c-1.015,0-2.037,0.095-3.054,0.287c-9.033,1.705-14.958,10.626-13.212,19.885c1.75,9.257,10.516,15.409,19.553,13.698
						c9.031-1.705,14.956-10.625,13.21-19.884l0,0c-0.849-4.493-3.355-8.392-7.058-10.98
						C116.066,450.397,112.796,449.368,109.456,449.368z"/>
				</g>
			</g>
		</g>
	</g>
	<g>
		<g>
			<g>
				<g>
					<path style="fill:#1F1F21;" d="M80.769,336.648l11.936,63.218c0.531,2.81,3.249,4.665,6.082,4.13
						c2.81-0.531,4.665-3.249,4.135-6.06l-11.936-63.218c-0.531-2.81-3.249-4.666-6.06-4.136c-1.417,0.268-2.595,1.077-3.332,2.187
						C80.829,333.862,80.501,335.232,80.769,336.648z"/>
				</g>
			</g>
		</g>
		<g>
			<g>
				<g>
					<path style="fill:#06050A;" d="M97.813,406.023c-3.364,0-6.366-2.385-7.01-5.798l-11.936-63.218c0,0,0-0.001,0-0.001
						c-0.355-1.888,0.049-3.786,1.14-5.345c1.026-1.548,2.656-2.62,4.559-2.98c1.869-0.352,3.763,0.045,5.336,1.118
						c1.573,1.073,2.633,2.694,2.984,4.561l11.938,63.216c0.728,3.86-1.82,7.592-5.678,8.321
						C98.698,405.982,98.254,406.023,97.813,406.023z M82.67,336.289l11.936,63.218c0.333,1.762,2.047,2.919,3.822,2.587
						c1.761-0.333,2.924-2.037,2.593-3.799l-11.938-63.216c-0.161-0.852-0.645-1.591-1.365-2.081
						c-0.72-0.491-1.586-0.672-2.434-0.512c-0.869,0.164-1.607,0.646-2.079,1.356C82.691,334.578,82.51,335.434,82.67,336.289
						L82.67,336.289z"/>
				</g>
			</g>
		</g>
	</g>
	<g>
		<g>
			<g>
				<g>
					<path style="fill:#FFFFFF;" d="M88.754,403.793l10.571,55.985c1.004,5.315,6.152,8.81,11.469,7.806
						c5.315-1.004,8.814-6.131,7.811-11.446l-10.571-55.985c-1.008-5.338-6.135-8.836-11.451-7.833
						c-2.658,0.502-4.874,2.025-6.285,4.119C88.885,398.512,88.252,401.135,88.754,403.793z"/>
				</g>
			</g>
		</g>
		<g>
			<g>
				<g>
					<path style="fill:#06050A;" d="M108.948,469.693c-2.336,0-4.619-0.698-6.594-2.042c-2.599-1.767-4.351-4.435-4.931-7.514
						l-10.569-55.984c-0.582-3.079,0.074-6.205,1.847-8.804c1.744-2.589,4.419-4.344,7.524-4.93
						c3.075-0.581,6.201,0.072,8.791,1.843c2.591,1.77,4.338,4.445,4.92,7.533l10.571,55.984c0.582,3.079-0.072,6.2-1.839,8.79
						c-1.767,2.59-4.436,4.336-7.515,4.917C110.416,469.624,109.679,469.693,108.948,469.693z M98.414,394.083
						c-0.489,0-0.981,0.046-1.472,0.138c-2.081,0.393-3.871,1.564-5.039,3.299c-1.196,1.754-1.637,3.851-1.247,5.913v0.001
						l10.569,55.984c0.389,2.06,1.563,3.847,3.304,5.031c1.743,1.185,3.837,1.622,5.905,1.232c2.062-0.389,3.852-1.56,5.035-3.295
						c1.185-1.736,1.624-3.827,1.234-5.89l-10.571-55.984c-0.391-2.073-1.563-3.868-3.3-5.055
						C101.51,394.553,99.981,394.083,98.414,394.083z"/>
				</g>
			</g>
		</g>
	</g>
	<g>
		<g>
			<g>
				<path style="fill:#FFD31A;" d="M129.123,276.404l62.377,107.658l31.423-54.595l104.874-53.894
					c11.66-5.866,16.426-20.041,10.643-31.765l-37.428-75.892c-6.218-12.608-21.958-17.107-33.903-9.681l-129.97,86.049
					C126.228,251.064,122.685,265.302,129.123,276.404z"/>
			</g>
		</g>
	</g>
	<g>
		<g>
			<g>
				<path style="fill:#06050A;" d="M205.332,360.502l-3.258-2.089l19.502-30.429l105.337-54.132
					c10.692-5.379,15.077-18.468,9.793-29.188l-37.429-75.892c-2.724-5.521-7.681-9.658-13.601-11.348
					c-5.922-1.689-12.316-0.797-17.544,2.455l-130.045,86.1c-10.067,6.261-13.325,19.17-7.468,29.416l14.104,24.695l-3.361,1.919
					l-14.104-24.694c-6.897-12.062-3.058-27.258,8.738-34.593l130.045-86.101c6.201-3.856,13.731-4.911,20.696-2.92
					c6.969,1.99,12.803,6.859,16.009,13.358l37.429,75.892c6.224,12.619,1.06,28.028-11.509,34.35l-104.396,53.648L205.332,360.502z
					"/>
			</g>
		</g>
	</g>
	<g>
		<g>
			<g>
				<path style="fill:#FFFFFF;" d="M229.737,293.246c0.155,0.268,0.206,0.558,0.157,0.872c-0.049,0.316-0.236,0.656-0.56,1.022
					c-0.323,0.367-0.796,0.783-1.418,1.251c-0.622,0.467-1.44,0.996-2.455,1.584c-1.041,0.604-1.926,1.065-2.654,1.38
					c-0.73,0.315-1.323,0.519-1.79,0.609c-0.463,0.091-0.845,0.08-1.143-0.034c-0.299-0.113-0.524-0.302-0.678-0.57L207.037,278.4
					l-19.4,11.253l12.161,20.961c0.155,0.267,0.214,0.554,0.178,0.86c-0.038,0.308-0.215,0.645-0.541,1.01
					c-0.321,0.366-0.796,0.783-1.418,1.25c-0.622,0.468-1.452,1.003-2.495,1.608c-1.017,0.589-1.886,1.042-2.614,1.356
					c-0.728,0.315-1.331,0.523-1.809,0.621c-0.478,0.099-0.867,0.092-1.164-0.022c-0.299-0.113-0.525-0.302-0.68-0.57l-28.41-48.977
					c-0.155-0.267-0.208-0.558-0.159-0.872c0.051-0.314,0.238-0.654,0.561-1.021c0.321-0.367,0.801-0.787,1.437-1.263
					c0.633-0.475,1.459-1.007,2.474-1.596c1.041-0.605,1.92-1.061,2.637-1.368c0.713-0.307,1.31-0.511,1.788-0.609
					c0.478-0.098,0.86-0.088,1.144,0.032c0.285,0.121,0.505,0.315,0.66,0.582l11.042,19.038l19.4-11.252l-11.044-19.038
					c-0.155-0.267-0.208-0.558-0.159-0.872c0.051-0.314,0.231-0.65,0.541-1.009c0.31-0.359,0.781-0.776,1.416-1.251
					c0.635-0.476,1.474-1.015,2.518-1.62c1.013-0.589,1.879-1.038,2.593-1.344c0.714-0.307,1.312-0.511,1.79-0.609
					c0.478-0.098,0.867-0.092,1.164,0.021c0.297,0.113,0.523,0.304,0.678,0.57L229.737,293.246z"/>
			</g>
		</g>
		<g>
			<g>
				<path style="fill:#FFFFFF;" d="M231.793,228.201c1.179,2.032,1.578,3.675,1.198,4.929c-0.378,1.256-1.69,2.534-3.935,3.836
					c-2.27,1.317-4.018,1.831-5.239,1.54c-1.221-0.291-2.398-1.411-3.531-3.363c-1.178-2.03-1.588-3.676-1.23-4.937
					c0.357-1.261,1.673-2.55,3.943-3.868c2.245-1.302,3.99-1.805,5.234-1.508C229.474,225.127,230.663,226.252,231.793,228.201z
					 M258.791,276.498c0.155,0.267,0.212,0.548,0.168,0.841c-0.045,0.293-0.223,0.62-0.531,0.977
					c-0.31,0.359-0.767,0.757-1.368,1.197c-0.603,0.438-1.399,0.944-2.389,1.517c-0.987,0.574-1.822,1.013-2.5,1.319
					c-0.681,0.305-1.253,0.504-1.718,0.594c-0.465,0.091-0.835,0.083-1.113-0.025c-0.276-0.107-0.491-0.294-0.646-0.562L228,246.686
					c-0.153-0.266-0.21-0.547-0.166-0.841c0.044-0.293,0.217-0.626,0.52-0.997c0.302-0.371,0.75-0.784,1.346-1.237
					c0.593-0.452,1.385-0.964,2.374-1.538c0.988-0.573,1.828-1.006,2.514-1.298c0.688-0.292,1.27-0.476,1.743-0.554
					c0.471-0.078,0.847-0.063,1.123,0.044c0.276,0.107,0.493,0.295,0.648,0.561L258.791,276.498z"/>
			</g>
		</g>
		<g>
			<g>
				<path style="fill:#FFFFFF;" d="M284.538,210.461c1.27,2.192,2.104,4.35,2.499,6.478c0.395,2.128,0.397,4.162,0.006,6.103
					c-0.391,1.942-1.159,3.761-2.298,5.458c-1.14,1.698-2.61,3.211-4.41,4.54l4.213,8.002c0.251,0.497,0.081,1.078-0.514,1.745
					c-0.595,0.667-1.588,1.403-2.977,2.21c-0.883,0.511-1.635,0.92-2.26,1.23c-0.624,0.308-1.142,0.511-1.55,0.605
					c-0.41,0.095-0.749,0.095-1.017,0.001c-0.268-0.094-0.503-0.28-0.699-0.559l-5.848-9.249c-0.524-0.84-0.885-1.557-1.089-2.154
					c-0.204-0.595-0.257-1.136-0.163-1.62c0.095-0.484,0.321-0.909,0.678-1.277c0.357-0.368,0.83-0.723,1.418-1.064l0.561-0.326
					c1.416-0.821,2.508-1.757,3.274-2.809c0.764-1.05,1.264-2.143,1.497-3.279c0.234-1.136,0.212-2.299-0.072-3.495
					c-0.282-1.193-0.756-2.363-1.421-3.513c-0.745-1.282-1.607-2.354-2.587-3.213c-0.981-0.859-2.062-1.462-3.249-1.812
					c-1.183-0.348-2.449-0.407-3.799-0.179c-1.35,0.229-2.771,0.778-4.268,1.646c-1.363,0.79-2.487,1.622-3.376,2.493
					c-0.884,0.87-1.61,1.684-2.172,2.439c-0.563,0.755-1.013,1.409-1.353,1.961c-0.34,0.555-0.643,0.909-0.909,1.064
					c-0.187,0.109-0.395,0.15-0.626,0.123c-0.229-0.027-0.491-0.171-0.784-0.429c-0.293-0.258-0.645-0.662-1.051-1.211
					c-0.408-0.549-0.875-1.277-1.402-2.186c-0.542-0.935-0.898-1.639-1.066-2.114c-0.166-0.473-0.195-0.922-0.083-1.344
					c0.113-0.421,0.437-1.03,0.977-1.825c0.539-0.794,1.24-1.648,2.104-2.56c0.866-0.912,1.875-1.847,3.034-2.804
					c1.159-0.958,2.433-1.839,3.822-2.646c3.154-1.829,6.105-2.961,8.851-3.394c2.748-0.434,5.264-0.33,7.545,0.309
					c2.283,0.642,4.307,1.717,6.075,3.225C281.816,206.54,283.313,208.351,284.538,210.461z M292.599,251.691
					c0.637,1.096,1.085,2.069,1.344,2.916c0.261,0.85,0.302,1.628,0.125,2.339c-0.178,0.71-0.575,1.378-1.194,2.004
					c-0.618,0.627-1.463,1.251-2.531,1.87c-1.121,0.651-2.102,1.085-2.939,1.304c-0.839,0.218-1.608,0.228-2.313,0.029
					c-0.705-0.199-1.361-0.62-1.97-1.269c-0.607-0.645-1.228-1.518-1.864-2.614c-0.652-1.123-1.111-2.114-1.378-2.976
					c-0.268-0.863-0.318-1.655-0.147-2.38c0.168-0.722,0.556-1.394,1.16-2.013c0.607-0.619,1.47-1.254,2.591-1.905
					c1.07-0.619,2.03-1.043,2.88-1.269c0.85-0.226,1.633-0.232,2.344-0.021c0.714,0.213,1.376,0.648,1.992,1.31
					C291.315,249.677,291.948,250.568,292.599,251.691z"/>
			</g>
		</g>
	</g>
	<g>
		<g>
			<g>
				<path style="fill:#FF78CF;" d="M607.442,256.501l-12.27,105.928l-43.343-32.185l-100.843-6.553
					c-11.168-0.629-19.755-10.145-19.214-21.336l3.507-72.438c0.582-12.035,11.419-20.945,23.344-19.187l131.549,23.26
					C601.065,235.593,608.712,245.575,607.442,256.501z"/>
			</g>
		</g>
	</g>
	<g>
		<g>
			<g>
				<path style="fill:#06050A;" d="M576.098,348.862l-24.917-16.721l-100.319-6.519c-12.176-0.686-21.615-11.166-21.023-23.36
					l3.506-72.438c0.304-6.281,3.264-12.174,8.124-16.167c4.857-3.993,11.212-5.757,17.436-4.84l131.727,23.291
					c11.872,1.752,20.18,12.52,18.863,24.505l-2.654,24.226l-3.848-0.422l2.654-24.227c1.091-9.907-5.778-18.807-15.635-20.263
					l-131.725-23.291c-5.092-0.749-10.344,0.708-14.361,4.01c-4.014,3.301-6.462,8.172-6.714,13.364l-3.506,72.438
					c-0.49,10.079,7.313,18.741,17.391,19.309l101.378,6.587l25.782,17.302L576.098,348.862z"/>
			</g>
		</g>
	</g>
	<g>
		<g>
			<g>
				
					<rect x="517.893" y="200.494" transform="matrix(0.1419 -0.9899 0.9899 0.1419 197.5418 730.028)" style="fill:#06050A;" width="3.871" height="101.167"/>
			</g>
		</g>
	</g>
	<g>
		<g>
			<g>
				
					<rect x="517.893" y="222.091" transform="matrix(0.1419 -0.9899 0.9899 0.1419 176.1633 748.5602)" style="fill:#06050A;" width="3.871" height="101.167"/>
			</g>
		</g>
	</g>
	<g>
		<g>
			<g>
				
					<rect x="503.911" y="255.809" transform="matrix(0.1419 -0.9899 0.9899 0.1419 144.7694 751.5305)" style="fill:#06050A;" width="3.871" height="72.916"/>
			</g>
		</g>
	</g>
</g>
</svg>
