<svg width="235" height="235" viewBox="0 0 235 235" fill="none" xmlns="http://www.w3.org/2000/svg">
<circle cx="117.5" cy="117.5" r="117.5" fill="#34A853"/>
<g clip-path="url(#clip0_2572_4552)">
<path d="M118.095 56.0098C114.201 56.0098 110.31 57.0142 106.827 59.0248C99.8628 63.0459 95.5669 70.4739 95.5669 78.5159V79.7336V119.824C95.5669 127.866 99.8628 135.294 106.827 139.315C113.792 143.336 122.406 143.336 129.37 139.315C136.335 135.294 140.623 127.866 140.623 119.824V80.0124V78.5159C140.623 70.4739 136.335 63.0459 129.37 59.0248C125.888 57.0142 121.989 56.0098 118.095 56.0098ZM118.095 63.4996C120.682 63.4996 123.267 64.167 125.592 65.5096C130.243 68.1948 133.111 73.1455 133.111 78.5159V80.0124V119.824C133.111 125.194 130.243 130.145 125.592 132.83C120.941 135.515 115.249 135.515 110.598 132.83C105.947 130.145 103.086 125.194 103.086 119.824V79.7336V78.5159C103.086 73.1455 105.947 68.1948 110.598 65.5096C112.923 64.167 115.508 63.4996 118.095 63.4996ZM84.2551 104.8C83.259 104.812 82.3083 105.219 81.6122 105.931C80.9161 106.644 80.5316 107.604 80.5432 108.6V119.853C80.5432 133.261 87.6975 145.676 99.3081 152.38C103.991 155.083 109.125 156.64 114.339 157.163V168.621H91.8256C90.8285 168.621 89.8723 169.017 89.1672 169.722C88.4621 170.427 88.066 171.383 88.066 172.381C88.066 173.378 88.4621 174.334 89.1672 175.039C89.8723 175.744 90.8285 176.14 91.8256 176.14H144.364C145.361 176.14 146.318 175.744 147.023 175.039C147.728 174.334 148.124 173.378 148.124 172.381C148.124 171.383 147.728 170.427 147.023 169.722C146.318 169.017 145.361 168.621 144.364 168.621H121.851V157.163C127.065 156.64 132.199 155.083 136.882 152.38C148.493 145.676 155.647 133.261 155.647 119.853V108.6C155.658 108.1 155.569 107.602 155.385 107.137C155.201 106.671 154.926 106.247 154.577 105.89C154.227 105.532 153.809 105.248 153.348 105.054C152.887 104.86 152.391 104.76 151.891 104.76C151.39 104.76 150.895 104.86 150.434 105.054C149.973 105.248 149.555 105.532 149.205 105.89C148.855 106.247 148.58 106.671 148.397 107.137C148.213 107.602 148.124 108.1 148.135 108.6V119.853C148.135 130.59 142.408 140.52 133.111 145.887C123.814 151.255 112.383 151.255 103.086 145.887C93.7891 140.52 88.0551 130.59 88.055 119.853V108.6C88.0609 108.099 87.9666 107.602 87.7777 107.139C87.5888 106.675 87.3091 106.254 86.9551 105.9C86.6011 105.546 86.1799 105.266 85.7162 105.077C85.2525 104.888 84.7558 104.794 84.2551 104.8Z" fill="white"/>
</g>
<defs>
<clipPath id="clip0_2572_4552">
<rect width="120" height="120" fill="white" transform="translate(58 56)"/>
</clipPath>
</defs>
</svg>
