<svg id="svg8" height="32" viewBox="0 0 8.4666667 8.4666667" width="32" xmlns="http://www.w3.org/2000/svg" xmlns:cc="http://creativecommons.org/ns#" xmlns:dc="http://purl.org/dc/elements/1.1/" xmlns:rdf="http://www.w3.org/1999/02/22-rdf-syntax-ns#" xmlns:svg="http://www.w3.org/2000/svg"><path id="path5164" d="m16 .00195313c-1.036798 0-2.072857.26742955-3 .80273437-1.854279 1.0706051-2.998048 3.0482914-2.998047 5.1894531v.3242188 10.6738286c-.000001 2.141191 1.143768 4.118847 2.998047 5.189453 1.854286 1.070609 4.147667 1.070609 6.001953 0 1.854278-1.070605 2.996094-3.048262 2.996094-5.189453v-10.5996099-.3984375c.000001-2.1411617-1.141815-4.118848-2.996094-5.1894531-.927143-.53530482-1.965155-.80273437-3.001953-.80273437zm0 1.99414067c.688837-.0000001 1.376966.1776903 1.996094.5351562 1.238264.7149364 2.001954 2.0330451 2.001953 3.4628906v.3984375 10.5996099c0 1.42989-.763689 2.747952-2.001953 3.46289-1.238256.714932-2.753932.714932-3.992188 0-1.238264-.714936-2-2.033-2-3.46289v-10.6738286-.3242188c0-1.4298455.761736-2.7479542 2-3.4628906.619128-.3574659 1.307257-.5351562 1.996094-.5351562zm-9.0097656 10.9960942a1.0001 1.0001 0 0 0 -.9882813 1.011718v2.996094c.0000042 3.569852 1.9047993 6.875358 4.9960939 8.660156 1.246804.719857 2.613719 1.134255 4.001953 1.273438v3.050781h-5.9941406a1.0002459 1.0002459 0 1 0 0 2.001953h13.9882816a1.0002459 1.0002459 0 1 0 0-2.001953h-5.994141v-3.050781c1.388234-.139183 2.755149-.553581 4.001953-1.273438 3.091295-1.784798 4.996089-5.090304 4.996094-8.660156v-2.996094a1.0002459 1.0002459 0 1 0 -2 0v2.996094c-.000004 2.858611-1.524726 5.50251-4 6.931641-2.475274 1.429129-5.518867 1.429129-7.994141 0-2.4752732-1.429131-4.0019495-4.07303-4.0019529-6.931641v-2.996094a1.0001 1.0001 0 0 0 -1.0117187-1.011718z" transform="scale(.265)" font-variant-ligatures="normal" font-variant-position="normal" font-variant-caps="normal" font-variant-numeric="normal" font-variant-alternates="normal" font-feature-settings="normal" text-indent="0" text-align="start" text-decoration-line="none" text-decoration-style="solid" text-decoration-color="#000000" text-transform="none" text-orientation="mixed" white-space="normal" shape-padding="0" isolation="auto" mix-blend-mode="normal" solid-color="#000000" solid-opacity="1" vector-effect="none"/></svg>