<svg width="2449" height="3294" viewBox="0 0 2449 3294" fill="none" xmlns="http://www.w3.org/2000/svg">
<path opacity="0.13" d="M2432.45 3165.49C2429.27 3254.1 1968.96 3309.53 1404.29 3289.29C839.637 3269.06 384.464 3180.82 387.64 3092.22C390.816 3003.6 851.131 2948.18 1415.8 2968.41C1980.45 2988.65 2435.63 3076.88 2432.45 3165.49Z" fill="black"/>
<path d="M3.85471 2724.99C36.0557 2967.22 253.994 3208.11 1078.06 3216.94C1777.23 3224.43 2123.98 2950.62 2123.98 2582.05C2123.98 2213.48 1730.81 1661.26 1158.27 1562.95C935.27 1524.66 713.528 1557.88 558.706 1641.19C119.382 1877.6 -26.5253 2496.45 3.85471 2724.99Z" fill="#FF4588"/>
<path opacity="0.18" d="M1082.07 3166.09C1464.05 3170.14 1752.86 3100.7 1951.33 2982.05C1786.76 3130.26 1504.61 3221.23 1101.75 3216.94C671.985 3212.38 411.984 3143.45 257.146 3044.76C442.729 3115.83 706.618 3162.1 1082.07 3166.09Z" fill="#720303"/>
<path d="M1963.31 1609.78C2088.58 1280.94 2108.58 1050.15 1947.48 367.173L632.489 440.452C490.44 988.168 496.931 1286.02 510.471 1483.92C514.631 1389.28 489.324 1193.62 614.719 715.612C503.438 1318.69 529.705 1540.21 646.052 1641.12C571.704 1512.33 602.968 1124.49 620.815 1079.11C621.737 1208.15 604.943 1454.81 673.295 1641.87C712.343 1671.43 883.526 1728.92 936.092 1744.2C1087.41 1788.19 1662.64 1713.6 1839.91 1673.19C1847.51 1657.74 1866.57 1295.37 1871.09 1245.24C1881.26 1262.44 1876.75 1656.27 1880.78 1672.61C1970.43 1561.18 2046.85 1170.8 1977.34 671.343C2076.2 1063.83 2034.96 1341.06 1963.31 1609.78Z" fill="#AD5C49"/>
<path opacity="0.18" d="M586.855 2289.75C586.855 2061.68 800.767 1734.99 1059.52 1734.99C1318.27 1734.99 1528.04 1919.88 1528.04 2147.96C1528.04 2228.74 1501.32 2303.87 1455.83 2367.52C1528.91 2375.12 1596.01 2393.64 1646.04 2428.67C1943.19 2636.72 1841.65 2979.77 1841.65 3058.77C1841.65 3103.37 1491.89 3211.78 1365.16 3202.67C1358.38 3137.47 1341.98 2815.36 1284.78 2716.04C1261.13 2675 1120.75 2601.97 997.325 2570.86C771.702 2514 586.855 2500.93 586.855 2289.75Z" fill="black"/>
<path d="M1833.43 2977.53C1834.66 2984.32 2090.11 2950.3 2089.71 2941.96C2086.29 2869.36 2067.08 2724.19 2064.31 2682.16L1791.4 2718.26C1806.1 2789.15 1824.63 2928.51 1833.43 2977.53Z" fill="#FFC19F"/>
<path d="M1813.24 3001.26C1813.7 3005.47 2111.1 3004.44 2111.79 2999.35C2117.83 2955.05 2113.67 2845.79 2113.76 2823.3L1800.67 2840.79C1805.86 2888.77 1809.88 2970.85 1813.24 3001.26Z" fill="white"/>
<path d="M2151.12 2944.16C2147.24 2929.03 2139.02 2909.81 2132.7 2892.25C2128.01 2879.23 2001.3 2879.26 2000.45 2910.38C2000.23 2918.34 2000.44 2925.39 2001 2931.77C1979.31 2931.64 1955.81 2931 1931 2929.7C1877.06 2926.87 1828.75 2921.71 1794.9 2915.76C1791.91 2964.94 1794.84 3050.22 1791.97 3104.9C1791.97 3104.9 2355.43 3219.76 2445.8 3139.22C2471.27 3116.52 2331.03 3011.62 2151.12 2944.16Z" fill="#FFC306"/>
<path d="M1793.02 3070.6C1792.81 3082.76 1792.51 3094.49 1791.97 3104.9C1791.97 3104.9 2355.43 3219.76 2445.8 3139.22C2449.39 3136.02 2449.64 3131.16 2447 3125.03C2290.52 3156.37 1933.15 3096.51 1793.02 3070.6Z" fill="#FF8A0B"/>
<path d="M2190.44 2960.71C2194.74 2961.63 2198.96 2959.08 2199.96 2954.84C2200.98 2950.58 2198.35 2946.31 2194.1 2945.31C2161.38 2937.65 2122.9 2952.22 2100.49 2980.97C2097.8 2984.42 2098.41 2989.39 2101.86 2992.08C2103.18 2993.11 2104.74 2993.65 2106.3 2993.74C2108.79 2993.86 2111.3 2992.82 2112.95 2990.69C2131.7 2966.66 2163.57 2954.21 2190.44 2960.71ZM2233.58 2981.4C2237.85 2982.27 2241.88 2978.93 2242.45 2974.6C2243.02 2970.26 2239.97 2966.29 2235.64 2965.73C2201.1 2961.1 2166.73 2973.53 2141.28 2999.59C2138.24 3002.72 2138.29 3007.73 2141.41 3010.79C2142.84 3012.17 2144.67 3012.92 2146.52 3013.02C2148.72 3013.13 2150.95 3012.34 2152.6 3010.65C2182.62 2979.9 2216.19 2979.11 2233.58 2981.4ZM2281.19 2988.48C2250.1 2982.56 2209.76 2996.27 2182.93 3021.65C2179.75 3024.65 2179.62 3029.66 2182.62 3032.83C2184.07 3034.36 2185.99 3035.19 2187.95 3035.29C2190.03 3035.4 2192.16 3034.69 2193.81 3033.14C2217.18 3011.03 2252.03 2998.69 2278.25 3004.02C2282.68 3004.91 2286.69 3001.99 2287.5 2997.71C2288.3 2993.42 2285.48 2989.28 2281.19 2988.48Z" fill="white"/>
<path d="M2090.24 2736.13C2034.64 2747.84 1849.44 2769.76 1793.98 2782.17C1723.74 2529.46 1713.14 2460.79 1697.52 2446.42C1683.47 2444.55 1522.65 2458.41 1433.41 2452.04C1354.74 2446.42 1221.56 2429.22 1169.3 2370.22C1063.86 2251.2 1140.88 2073.01 1161.45 2028.22C1426.92 2034.81 1873.21 2141.88 1946.39 2170.34C1991.17 2187.76 2035.3 2431.44 2090.24 2736.13Z" fill="#369DC6"/>
<path d="M1438.11 3095.31C1439.11 3102.13 1695.54 3076.39 1695.41 3068.03C1694.33 2995.36 1679.82 2849.64 1678.41 2807.55L1404.47 2834.82C1416.88 2906.14 1430.9 3046.02 1438.11 3095.31Z" fill="#FFC19F"/>
<path opacity="0.34" d="M1674.69 2446.88L1643.94 2187.27L1457.79 2209.31L1486.71 2453.57C1555.38 2453.78 1635.8 2448.62 1674.69 2446.88Z" fill="#224966"/>
<path d="M1701.26 2865.37C1645.66 2877.09 1454.89 2895.11 1397.2 2894.09C1359.11 2711.78 1331.02 2573.79 1320.4 2563.17C1296.26 2552.53 1204.4 2545.8 1115.02 2549.79C1056.39 2552.4 941.376 2536.78 889.329 2487.15C774.252 2377.43 827.437 2197.88 844.548 2137.73C1148.41 2145.28 1533.04 2228.97 1574.48 2269.85C1644.13 2384.28 1663.49 2549.07 1701.26 2865.37Z" fill="#369DC6"/>
<path d="M1381.09 2927.73C1379.08 2909.51 1367.44 2837.92 1366.25 2823.48L1712.54 2782.62C1712.54 2782.62 1728.05 2872.94 1729.69 2888.02C1693.2 2894.74 1398.5 2926.18 1381.09 2927.73Z" fill="#86CEEA"/>
<path d="M1533.54 1845.12C1637.74 1901.35 1754.63 1818.5 1758.21 1787.55C1758.21 1787.55 1623.28 1550.52 1563.49 1536.39C1551.22 1551.37 1533.54 1845.12 1533.54 1845.12Z" fill="#FFBC00"/>
<path d="M920.173 1454.86C864.679 1655.28 856.081 1938.22 811.301 2231.77C861.961 2266.08 1453.13 2320.42 1575.45 2187.27C1585 1872.73 1556.23 1677.55 1563.48 1475.62C1470.7 1430.99 1080.71 1430.99 920.173 1454.86Z" fill="#9B4EE5"/>
<path d="M1469.8 1486.8C1469.8 1474.86 1467.08 1463.47 1463.18 1452.41C1365.29 1439.67 1224.34 1436.62 1101.82 1440.82C1094.82 1455.28 1090.28 1470.6 1090.28 1486.8C1090.28 1563.34 1175.25 1625.39 1280.04 1625.39C1384.83 1625.39 1469.8 1563.34 1469.8 1486.8Z" fill="#FFC19F"/>
<path d="M1433.6 1241.8L1430.96 1488.04C1430.39 1540.98 1362.64 1583.19 1279.63 1582.31C1196.62 1581.42 1129.78 1537.76 1130.35 1484.81L1132.98 1238.59L1433.6 1241.8Z" fill="#FFC19F"/>
<path opacity="0.16" d="M1568.99 1359C1570.46 1345.94 1569.1 1333.18 1566.79 1320.55C1432.97 1302.43 1231.25 1285.94 1086.48 1287.74C1085 1293.31 1082.25 1298.43 1081.59 1304.27C1070.25 1405.23 1170.17 1499.32 1304.76 1514.43C1439.35 1529.55 1557.65 1459.96 1568.99 1359Z" fill="#420000"/>
<path d="M949.229 1881.65C868.413 1896.8 705.31 1867.23 697.145 1840.19C697.145 1840.19 770.407 1471.68 920.172 1454.86C981.514 1537.84 949.229 1881.65 949.229 1881.65Z" fill="#9B4EE5"/>
<path d="M1311.66 2086.78C1324.97 2085.79 1318.46 1926.96 1305.1 1926.63C1108.07 1921.86 803.778 1888.61 746.914 1885.76C746.914 1885.76 717.959 2044.13 792.686 2081.87C870.907 2121.36 1115.02 2101.55 1311.66 2086.78Z" fill="#FFC19F"/>
<path d="M676.525 1882.05C762.275 1893.6 930.019 1904.43 970.639 1904.49L974.907 1829.54C952.567 1830.99 707.425 1809.32 683.969 1807.11L676.525 1882.05Z" fill="#8434E0"/>
<path d="M1634.48 1908.03C1602.13 1914.69 1536.15 1893.48 1502.04 1904.58C1502.04 1904.58 1500.02 1905.75 1498.89 1906.86C1567.16 1916.14 1621.88 1949.27 1675 1967.65C1686.15 2043.99 1590.5 1988.76 1488.02 1965.77C1548.02 1988.87 1585.51 2011.53 1627.26 2025.44C1657.38 2059.13 1641.05 2080.79 1598.28 2071.27C1565.24 2063.9 1508.5 2040.7 1449.02 2025.92C1443.57 2026.97 1568.6 2090.96 1578.62 2120.84C1573.42 2135.63 1546.17 2143.55 1507.88 2124.02C1487.16 2113.46 1466.02 2097.32 1417.93 2079.97C1375.32 2081.5 1337.13 2102.99 1319.78 2108.34C1255.09 2120.12 1229.52 2031.08 1230.38 2012.73C1232.64 1965.02 1323.56 1879.72 1377.02 1865.73C1466.63 1842.27 1511.05 1828.06 1649.65 1871.16C1673.36 1888.41 1650.23 1904.8 1634.48 1908.03Z" fill="#FFC19F"/>
<path d="M1951.96 1027.54C1919.88 1152.84 1802.8 1229.38 1715.3 1215.13C1627.8 1200.87 1611.74 1097.12 1628.04 976.069C1644.37 855.027 1728.59 768.146 1816.05 782.701C1935.59 802.617 1982.1 909.769 1951.96 1027.54Z" fill="#F4B18C"/>
<path d="M620.598 514.862C565.104 992.282 932.769 1268.61 1317.78 1272.05C1702.79 1275.49 1986.03 944.542 1951.17 478.834C1931.81 220.259 1711.27 0.809706 1343.43 0.00370634C951.902 -0.847294 663.62 144.773 620.598 514.862Z" fill="#AD5C49"/>
<path d="M811.511 403.557C775.778 480.879 822.712 1170.99 900.972 1267.12C983.98 1369.11 1337.82 1456.64 1409.47 1457.28C1486.21 1457.97 1741.88 1367.35 1807.77 1256.67C1885.71 1125.68 1918.58 535.514 1894.74 462.793C1814.12 217.17 1601.16 207.014 1322.51 204.528C1061.84 202.195 904.217 202.939 811.511 403.557Z" fill="#FFC19F"/>
<path d="M601.341 1043.27C635.447 1176.27 764.383 1260.15 861.574 1247.49C958.757 1234.81 948.494 839.953 773.453 804.995C627.678 775.877 569.279 918.252 601.341 1043.27Z" fill="#FFC19F"/>
<path d="M709.261 1038.15C716.581 1094.31 779.294 1142.02 826.855 1126.76C845.399 1120.82 815.228 924.936 785.692 924.758C735.745 924.472 701.94 981.979 709.261 1038.15Z" fill="#E0956C"/>
<path d="M916.215 1118.05C914.906 1145.97 952.653 1170.43 1000.54 1172.67C1048.4 1174.91 1088.28 1154.1 1089.59 1126.17C1090.9 1098.25 1053.14 1073.79 1005.28 1071.55C957.394 1069.3 917.524 1090.12 916.215 1118.05Z" fill="#FF9797"/>
<path d="M1661.72 1119.15C1663.02 1143.98 1694.23 1162.53 1731.46 1160.58C1768.67 1158.64 1797.79 1136.94 1796.5 1112.11C1795.21 1087.29 1763.97 1068.74 1726.77 1070.68C1689.54 1072.62 1660.42 1094.32 1661.72 1119.15Z" fill="#FF9797"/>
<path d="M1601.6 1131.32C1593.45 1085.72 1523.41 1096.61 1409.24 1094.38C1403.27 1094.27 1380.05 1093.97 1374.07 1093.93C1259.89 1093.24 1190.14 1080.56 1180.84 1125.93C1162.91 1213.32 1271.91 1310.41 1387.86 1312.25L1389.87 1312.28C1505.82 1313.41 1617.27 1219.14 1601.6 1131.32Z" fill="#701608"/>
<path d="M1389.82 1314.1L1387.82 1314.07C1350.21 1313.45 1311.35 1302.29 1275.33 1281.88L1273.12 1280.67L1275.02 1279.04C1305.48 1252.41 1346.26 1238.04 1389.82 1238.6C1433.32 1239.16 1473.71 1254.57 1503.56 1281.96L1505.4 1283.65L1503.17 1284.8C1466.56 1304.27 1427.36 1314.44 1389.82 1314.1Z" fill="#DD6B5B"/>
<path d="M1390.92 1152.58C1311.14 1151.56 1245.04 1125.99 1237.15 1093.05L1236.69 1091.04L1546.68 1095.01L1546.17 1097.01C1537.37 1129.73 1470.64 1153.6 1390.92 1152.58Z" fill="white"/>
<path d="M1363.46 1032.29C1366.53 1032.32 1369.26 1030.13 1369.81 1027.01C1373.69 1004.81 1391.39 990.609 1414.89 990.818C1438.52 991.035 1456.37 1005.84 1459.3 1027.67C1459.77 1031.15 1463.01 1033.62 1466.49 1033.15C1469.99 1032.68 1472.44 1029.46 1471.97 1025.96C1468.22 998.007 1444.79 978.301 1415 978.037C1385.38 977.766 1362.15 996.566 1357.21 1024.79C1356.6 1028.28 1358.93 1031.59 1362.4 1032.2L1363.46 1032.29Z" fill="#C4735B"/>
<path d="M936.154 634.68C940.461 634.393 944.667 632.581 947.897 629.273C989.269 587.134 1072.01 570.72 1140.52 591.239C1150.03 594.136 1160.16 588.69 1163.07 579.07C1165.94 569.503 1160.5 559.418 1150.91 556.529C1069.16 532.105 972.879 552.036 922.033 603.943C915.038 611.093 915.154 622.542 922.304 629.544C926.115 633.309 931.189 635.005 936.154 634.68Z" fill="#752912"/>
<path d="M1852.08 635.338C1856.87 635.524 1861.71 633.758 1865.29 630.024C1871.99 623.099 1871.8 612.068 1864.87 605.368C1814.5 556.714 1721.27 540.091 1643.22 565.739C1634.05 568.775 1629.08 578.629 1632.09 587.769C1635.13 596.956 1645.01 601.929 1654.13 598.893C1719.55 577.304 1799.73 590.868 1840.63 630.443C1843.83 633.549 1847.92 635.183 1852.08 635.338Z" fill="#752912"/>
<path d="M1556.31 997.433C1556.31 997.433 1719.45 1060.34 1781.7 958.71C1857.55 834.872 1741.66 735.953 1666.44 754.653C1596.84 771.957 1533.59 843.168 1556.31 997.433Z" fill="#F9FEFF"/>
<path d="M1794.09 800.122C1763.89 754.776 1723.25 740.314 1679.15 745.264C1634.07 750.33 1588.39 788 1575.45 827.071C1599.73 783.119 1641.53 767.239 1667.55 760.787C1708.98 750.43 1763.3 772.863 1787.7 817.466C1809.4 857.157 1807.51 916.47 1779.67 961.917C1812.53 931.11 1825.56 847.374 1794.09 800.122Z" fill="#773220"/>
<path d="M1604.87 881.899C1589.86 926.478 1608.19 977.231 1645.8 995.256C1683.43 1013.28 1726.09 991.747 1741.11 947.168C1756.13 902.581 1737.8 851.828 1700.18 833.803C1662.56 815.785 1619.89 837.312 1604.87 881.899Z" fill="#63190D"/>
<path d="M1610.82 868.087C1606.65 880.458 1611.74 894.54 1622.18 899.536C1632.61 904.54 1644.46 898.568 1648.62 886.197C1652.78 873.826 1647.7 859.744 1637.26 854.748C1626.83 849.744 1614.99 855.717 1610.82 868.087Z" fill="#FEFFFE"/>
<path d="M1264.44 997.27C1264.44 997.27 1070.48 1058.49 997.016 956.207C907.494 831.579 1045.52 733.861 1134.73 753.342C1217.29 771.361 1292.08 843.23 1264.44 997.27Z" fill="#F9FEFF"/>
<path d="M982.986 797.489C1019.04 752.461 1067.35 738.409 1119.68 743.823C1173.19 749.354 1227.25 787.496 1242.44 826.707C1213.81 782.5 1164.25 766.186 1133.39 759.462C1084.24 748.671 1019.66 770.547 990.5 814.901C964.566 854.368 966.557 913.696 999.416 959.437C960.53 928.291 945.425 844.415 982.986 797.489Z" fill="#773220"/>
<path d="M1062.92 883.115C1044.99 927.733 1066.62 978.447 1111.24 996.38C1155.87 1014.31 1206.57 992.685 1224.5 948.059C1242.44 903.441 1220.81 852.727 1176.18 834.794C1131.56 816.862 1080.85 838.497 1062.92 883.115Z" fill="#63190D"/>
<path d="M1070.01 869.296C1065.03 881.674 1071.04 895.741 1083.41 900.722C1095.8 905.695 1109.87 899.692 1114.84 887.313C1119.82 874.935 1113.82 860.86 1101.44 855.887C1089.05 850.914 1074.99 856.91 1070.01 869.296Z" fill="#FEFFFE"/>
<path d="M711.863 520.617C665.812 508.494 761.531 175.889 993.429 81.0287C1372.29 -44.7463 1630.97 31.3757 1726.36 93.2517C1902.14 207.283 1977.08 321.423 2000.72 567.326C2014.82 713.977 2000.44 761.406 2074.08 797.751C1992.31 817.775 1990.4 801.64 1968.36 761.507C1955.57 879.652 1966.47 933.317 2023.24 974.674C1922.51 996.913 1885.83 927.368 1883.79 832.671C1881.36 719.856 1908.98 507.355 1894.8 466.68C1886.6 443.147 1771.2 309.774 1736.43 307.202C1660.68 301.602 1565.8 564.112 1297.45 547.837C1408.41 493.722 1471.17 412.961 1536.01 296.745C1514.4 308.488 1492.62 322.943 1470.87 340.736C1241.92 528.085 1036.49 568.481 847.8 543.57C869.66 746.303 886.291 1003.13 672.148 1002.89C695.053 976.728 755.69 843.269 702.784 735.876C676.448 750.733 701.491 653.023 711.863 520.617Z" fill="#AD5C49"/>
<path d="M675.959 589.969C728.377 263.204 910.97 58.9687 1275.19 7.8827C1534.75 -28.5163 1783.42 74.3297 1839.24 180.359C1760 117.786 1623.2 38.5807 1260.2 105.787C1083.71 138.46 816.11 219.678 675.959 589.969Z" fill="#06C1ED"/>
<path d="M2276.75 1386.27L2041.7 2264.46C2038.47 2277.25 2026 2286.18 2012.26 2285.53L1349.63 2313.21C1332.42 2312.4 1313.39 2281 1317.44 2264.97L1552.62 1333.49C1555.85 1320.7 1568.33 1311.77 1582.06 1312.42L2239.56 1343.48C2256.78 1344.29 2280.8 1370.25 2276.75 1386.27Z" fill="#EDEDED"/>
<path d="M2283.08 1397.07L2058.11 2282.03C2054.88 2294.82 2042.4 2303.75 2028.67 2303.1L1360.96 2318.55C1343.75 2317.74 1331.81 2302.48 1335.87 2286.45L1571.04 1354.97C1574.27 1342.18 1586.75 1333.26 1600.48 1333.91L2257.99 1364.97C2275.2 1365.78 2287.13 1381.04 2283.08 1397.07Z" fill="#C9C9C9"/>
<path opacity="0.28" d="M1511.76 1589.78L1481.94 1707.91L2240.15 1567.09L2269.98 1448.95L1511.76 1589.78Z" fill="white"/>
<path opacity="0.28" d="M2177.91 1361.18L2257.98 1364.96C2271.01 1365.58 2280.94 1374.48 2283.28 1385.72L1527.85 1526.03L1539.53 1479.75L2177.91 1361.18Z" fill="white"/>
<path opacity="0.28" d="M2099.7 2123.39L2110.18 2081.87L1351.96 2222.7L1341.47 2264.23L2099.7 2123.39Z" fill="white"/>
<path d="M1901.87 1600.99C1948.47 1610.42 1977.15 1654.14 1965.91 1698.63C1954.68 1743.13 1907.79 1771.56 1861.19 1762.13C1814.59 1752.71 1785.91 1708.99 1797.15 1664.49C1808.38 1620 1855.27 1591.56 1901.87 1600.99Z" fill="#EFEFEF"/>
<path opacity="0.15" d="M2178.69 1757.18C2126.15 1766.41 2091.6 1789.17 2091.23 1820.38C2091.01 1838.72 2109.59 1847.67 2122.49 1854.39C2107.45 1855.37 2091.6 1864.32 2091.52 1884.08C2091.47 1898.73 2107.75 1914.16 2126.38 1922.26C2108.26 1920.85 2071.94 1937.09 2066.58 1954.98C2062.79 1967.55 2062.44 1977.07 2068.32 1986.4C2056.31 1989.12 2037.35 2004.22 2036.27 2027.84C2035.16 2051.66 2060.85 2083.46 2107.02 2097.19L2193.92 1755.36C2188.9 1755.8 2183.86 1756.28 2178.69 1757.18Z" fill="black"/>
<path d="M2286.76 1781.21C2290.12 1799.63 2265.53 1819.91 2228.77 1832.07C2263.99 1836.57 2289.05 1850.46 2289.4 1868.23C2289.81 1889.37 2255.08 1908.6 2209.35 1914.27C2246.54 1922.66 2271.87 1941.03 2269.27 1960.86C2266.47 1982.2 2232.38 1997.98 2189.26 1999.96C2211.69 2014.44 2223.41 2032.6 2216.88 2047.7C2207.22 2069.98 2161.96 2076.93 2115.8 2063.21C2069.63 2049.49 2040.03 2020.29 2049.69 1998C2054.98 1985.78 2071.16 1978.37 2092.14 1976.25C2081.67 1968.12 2075.93 1958.66 2077.22 1948.81C2079.63 1930.44 2105.25 1916.17 2139.83 1911.28C2114.15 1904.97 2097.12 1892.95 2096.83 1878.31C2096.55 1863.61 2113.23 1849.77 2138.8 1840.79C2115.45 1837.01 2098.96 1827.86 2096.54 1814.61C2092.33 1791.56 2131.5 1765.4 2184.02 1756.18C2236.55 1746.96 2282.55 1758.16 2286.76 1781.21Z" fill="#FFC19F"/>
<path d="M1426.8 3125.85C1427.38 3130.05 1724.65 3121.6 1725.22 3116.49C1730.15 3072.07 1723.27 2962.93 1722.8 2940.45L1410.24 2965.74C1416.63 3013.58 1422.7 3095.53 1426.8 3125.85Z" fill="white"/>
<path d="M1763.16 3060.34C1758.91 3045.31 1750.21 3026.3 1743.45 3008.9C1738.44 2996.01 1611.77 2999.21 1611.69 3030.33C1611.67 3038.3 1612.05 3045.33 1612.77 3051.7C1591.09 3052.11 1567.58 3052.06 1542.75 3051.38C1488.76 3049.89 1440.34 3045.93 1406.34 3040.83C1404.58 3090.07 1409.64 3175.25 1408.14 3229.99C1408.14 3229.99 1974.28 3330.76 2062.62 3247.99C2087.51 3224.66 1944.7 3123.28 1763.16 3060.34Z" fill="#FFC306"/>
<path d="M1408.32 3195.67C1408.42 3207.84 1408.42 3219.57 1408.14 3229.99C1408.14 3229.99 1974.28 3330.76 2062.62 3247.99C2066.13 3244.7 2066.24 3239.83 2063.46 3233.77C1907.81 3269.01 1549.05 3218.07 1408.32 3195.67Z" fill="#FF8A0B"/>
<path d="M1802.88 3075.9C1807.2 3076.71 1811.35 3074.07 1812.25 3069.79C1813.16 3065.52 1810.43 3061.32 1806.15 3060.42C1773.26 3053.58 1735.15 3069.11 1713.46 3098.4C1710.86 3101.92 1711.59 3106.87 1715.11 3109.47C1716.46 3110.46 1718.03 3110.98 1719.59 3111.01C1722.08 3111.08 1724.57 3109.98 1726.17 3107.82C1744.3 3083.32 1775.85 3070.08 1802.88 3075.9ZM1846.51 3095.51C1850.81 3096.28 1854.76 3092.83 1855.22 3088.49C1855.68 3084.14 1852.53 3080.25 1848.19 3079.79C1813.55 3076.02 1779.49 3089.31 1754.71 3116C1751.73 3119.19 1751.92 3124.21 1755.12 3127.19C1756.58 3128.54 1758.43 3129.24 1760.29 3129.3C1762.48 3129.35 1764.69 3128.51 1766.3 3126.77C1795.54 3095.28 1829.08 3093.66 1846.51 3095.51ZM1894.29 3101.4C1863.07 3096.26 1823.08 3110.98 1796.89 3137.01C1793.79 3140.09 1793.78 3145.1 1796.86 3148.2C1798.35 3149.69 1800.29 3150.47 1802.25 3150.53C1804.34 3150.58 1806.44 3149.82 1808.05 3148.23C1830.86 3125.55 1865.4 3112.33 1891.74 3117C1896.19 3117.79 1900.13 3114.78 1900.83 3110.47C1901.53 3106.16 1898.6 3102.09 1894.29 3101.4Z" fill="white"/>
<path d="M1770.65 2800.1C1768.12 2781.95 1754.44 2710.72 1752.84 2696.31L2097.83 2645.59C2097.83 2645.59 2115.9 2735.43 2117.97 2750.45C2081.7 2758.21 1788.01 2798.05 1770.65 2800.1Z" fill="#86CEEA"/>
</svg>
