<svg enable-background="new 0 0 512 512" height="512" viewBox="0 0 512 512" width="512" xmlns="http://www.w3.org/2000/svg"><g id="_x34_9_Memories"><g><path d="m314.481 462.825-225.544-70.944c-13.783-4.335-21.442-19.023-17.107-32.806l99.223-315.45c4.335-13.783 19.023-21.442 32.806-17.107l225.544 70.944c13.783 4.335 21.442 19.023 17.107 32.806l-99.223 315.45c-4.335 13.783-19.023 21.442-32.806 17.107z" fill="#facb00"/><path d="m446.544 130.247-99.276 315.466c-4.316 13.768-18.977 21.433-32.819 17.117l-225.493-70.923c-9.898-3.2-16.67-11.684-18.084-21.359l220.804 69.434c13.768 4.317 28.429-3.349 32.745-17.116l99.276-315.466c1.191-3.87 1.488-7.74.967-11.461l4.763 1.488c13.768 4.391 21.434 19.052 17.117 32.82z" opacity=".2"/><path d="m326.858 486.71h-236.438c-14.449 0-26.162-11.713-26.162-26.162v-330.687c0-14.449 11.713-26.162 26.162-26.162h236.438c14.449 0 26.162 11.713 26.162 26.162v330.687c0 14.449-11.713 26.162-26.162 26.162z" fill="#405d6b"/><path d="m352.998 129.875v330.648c0 14.438-11.684 26.196-26.121 26.196h-45.471c14.438 0 26.121-11.758 26.121-26.196v-330.648c0-14.437-11.684-26.196-26.121-26.196h45.471c14.437 0 26.121 11.759 26.121 26.196z" opacity=".2"/><path d="m103.503 142.942h210.273v304.522h-210.273z" fill="#e6e8e7"/><path d="m281.108 142.973h32.671v304.526h-32.671z" opacity=".2"/><path d="m284.045 400.766h-150.813c0-41.703 33.773-75.406 75.406-75.406s75.407 33.703 75.407 75.406z" fill="#fd4746"/><path d="m284.011 400.763h-24.708c0-37.433-27.312-68.466-63.034-74.346 4.019-.67 8.112-1.041 12.354-1.041 41.675 0 75.388 33.713 75.388 75.387z" opacity=".2"/><path d="m247.313 264.718v33.986c0 21.383-17.276 38.659-38.659 38.659s-38.73-17.276-38.73-38.659v-33.986z" fill="#facb00"/><path d="m246.415 263.94h-75.606c-6.024 0-9.669-6.657-6.423-11.732l37.769-59.051c2.997-4.686 9.841-4.689 12.842-.005l37.838 59.051c3.251 5.074-.393 11.737-6.42 11.737z" fill="#72b505"/><path d="m431.096 92.103-225.564-70.924c-8.096-2.544-16.686-1.766-24.201 2.151-7.536 3.932-13.082 10.538-15.618 18.612l-17.682 56.178h-57.61c-17.508 0-31.745 14.237-31.745 31.738v330.69c0 17.508 14.237 31.745 31.745 31.745h236.436c17.508 0 31.745-14.237 31.745-31.745v-32.266l93.272-296.367c5.218-16.636-4.092-34.492-20.778-39.812zm-83.657 368.445c0 11.352-9.23 20.582-20.582 20.582h-236.436c-11.352 0-20.582-9.23-20.582-20.582v-330.69c0-11.345 9.23-20.575 20.582-20.575h236.436c11.352 0 20.582 9.23 20.582 20.575zm93.781-331.983-82.618 262.507v-261.214c0-17.5-14.237-31.738-31.745-31.738h-167.115l16.625-52.828c3.394-10.829 14.971-16.89 25.822-13.46l225.542 70.917c10.821 3.446 16.875 15.031 13.489 25.816z"/><path d="m313.775 137.358h-210.273c-3.081 0-5.582 2.5-5.582 5.582v304.526c0 3.081 2.5 5.582 5.582 5.582h210.273c3.081 0 5.582-2.5 5.582-5.582v-304.526c0-3.082-2.5-5.582-5.582-5.582zm-5.581 304.527h-199.11v-293.364h199.11z"/><path d="m133.234 406.346h150.773c3.081 0 5.582-2.5 5.582-5.581 0-31.912-18.639-60.425-47.151-73.561 6.512-7.705 10.457-17.645 10.457-28.498v-30.923c2.109-1.191 3.904-2.929 5.109-5.132 2.318-4.237 2.137-9.397-.465-13.46l-37.842-59.049c-2.442-3.808-6.599-6.083-11.119-6.083s-8.685 2.275-11.127 6.09l-37.77 59.049c-2.602 4.07-2.776 9.223-.458 13.46 1.207 2.202 3.004 3.939 5.116 5.129v30.918c0 10.852 3.953 20.791 10.475 28.496-28.515 13.136-47.162 41.656-47.162 73.563.001 3.082 2.501 5.582 5.582 5.582zm42.268-107.64v-28.409h66.229v28.409c0 18.234-14.84 33.075-33.075 33.075-18.277 0-33.154-14.841-33.154-33.075zm-6.417-43.489 37.77-59.049c.523-.821 1.308-.945 1.722-.945s1.192.124 1.715.938l37.842 59.049c.567.887.291 1.686.073 2.086-.218.392-.741 1.061-1.795 1.061h-75.605c-1.054 0-1.577-.661-1.788-1.061-.217-.4-.501-1.193.066-2.079zm15.019 80.287c7.035 4.693 15.477 7.44 24.553 7.44 9.056 0 17.479-2.745 24.499-7.435 25.399 9.612 42.913 32.81 45.051 59.674h-139.173c2.138-26.87 19.658-50.07 45.07-59.679z"/><path d="m198.308 288.066v-4.026c0-3.081-2.5-5.582-5.582-5.582-3.081 0-5.581 2.5-5.581 5.582v4.026c0 3.081 2.5 5.581 5.581 5.581 3.082.001 5.582-2.499 5.582-5.581z"/><path d="m224.508 293.648c3.081 0 5.581-2.5 5.581-5.581v-4.026c0-3.081-2.5-5.582-5.581-5.582s-5.582 2.5-5.582 5.582v4.026c0 3.081 2.5 5.581 5.582 5.581z"/><path d="m225.176 306.562c0-3.081-2.5-5.582-5.581-5.582s-5.582 2.5-5.582 5.582c0 3.023-2.369 5.393-5.393 5.393s-5.393-2.369-5.393-5.393c0-3.081-2.5-5.582-5.581-5.582s-5.582 2.5-5.582 5.582c0 9.128 7.427 16.556 16.556 16.556s16.556-7.428 16.556-16.556z"/></g></g></svg>