<svg width="41" height="41" viewBox="0 0 41 41" fill="none" xmlns="http://www.w3.org/2000/svg">
<g clip-path="url(#clip0_2424_3846)">
<path fill-rule="evenodd" clip-rule="evenodd" d="M15.1416 8L15.1416 4.25L26.3916 4.25L26.3916 8L15.1416 8ZM11.3916 8L11.3916 3C11.3916 2.33696 11.655 1.70107 12.1238 1.23223C12.5927 0.763392 13.2286 0.5 13.8916 0.5L27.6416 0.5C28.3046 0.5 28.9405 0.763392 29.4094 1.23223C29.8782 1.70107 30.1416 2.33696 30.1416 3L30.1416 8L36.3916 8C36.8889 8 37.3658 8.19754 37.7174 8.54917C38.0691 8.90081 38.2666 9.37772 38.2666 9.875C38.2666 10.3723 38.0691 10.8492 37.7174 11.2008C37.3658 11.5525 36.8889 11.75 36.3916 11.75L35.4791 11.75L33.6216 35.8825C33.5252 37.1386 32.9582 38.3121 32.034 39.1682C31.1098 40.0243 29.8964 40.4999 28.6366 40.5L12.8966 40.5C11.6368 40.4999 10.4234 40.0243 9.49921 39.1682C8.57498 38.3121 8.00798 37.1386 7.9116 35.8825L6.0541 11.75L5.1416 11.75C4.64432 11.75 4.16741 11.5525 3.81578 11.2008C3.46415 10.8492 3.2666 10.3723 3.2666 9.875C3.2666 9.37772 3.46415 8.90081 3.81578 8.54917C4.16741 8.19754 4.64432 8 5.1416 8L11.3916 8ZM9.8166 11.75L31.7166 11.75L29.8816 35.595C29.8577 35.9089 29.7162 36.2023 29.4854 36.4164C29.2545 36.6305 28.9514 36.7497 28.6366 36.75L12.8966 36.75C12.5818 36.7497 12.2787 36.6305 12.0478 36.4164C11.817 36.2023 11.6755 35.9089 11.6516 35.595L9.8166 11.75Z" fill="white"/>
</g>
<defs>
<clipPath id="clip0_2424_3846">
<rect width="40" height="40" fill="white" transform="translate(0.766602 0.5)"/>
</clipPath>
</defs>
</svg>
