<?xml version="1.0" encoding="utf-8"?>
<!-- Generator: Adobe Illustrator 27.5.0, SVG Export Plug-In . SVG Version: 6.00 Build 0)  -->
<svg version="1.1" id="Layer_1" xmlns="http://www.w3.org/2000/svg" xmlns:xlink="http://www.w3.org/1999/xlink" x="0px" y="0px"
	 viewBox="0 0 5000 5000" style="enable-background:new 0 0 5000 5000;" xml:space="preserve">
<rect style="fill:none;" width="5000" height="5000"/>
<g>
	<g>
		<g>
			<g>
				<g>
					<path style="fill:#385D98;" d="M1522.665,4766.342h-46.487c-52.515,0-105.028,0.282-157.552,0
						c-173.875-0.936-334.813-99.141-418.279-258.311c-35.677-68.037-49.335-142.36-52.066-222.449L728.27,765.687
						c-0.916-26.87-1.953-53.742-2.748-80.609c-4.554-153.867,68.712-299.854,194.979-381.845
						c73.264-47.574,153.599-70.684,241.047-71.151c14.247-0.076,28.502,0,42.752,0h108.865
						c-1.755-38.109-4.148-76.18-7.569-114.159h-110.261c-119.952,0-234.987,21.246-335.833,86.72
						C699.473,308.541,605.722,490.231,611.271,684.036c2.474,86.41,5.872,172.852,8.808,259.296l113.755,3348.698
						c3.595,105.815,29.049,208.706,84.759,301.394c106.468,177.137,301.425,287.15,503.752,288.242
						c67.848,0.366,135.691,0.437,203.53,0.395C1524.665,4843.481,1523.608,4804.907,1522.665,4766.342z"/>
				</g>
			</g>
			<g>
				<g>
					<path style="fill:#3EA5F9;" d="M2870.531,4824H1436.353c-282.233,0-518.882-229.917-528.565-513.376L783.898,683.752
						c-9.6-281.047,210.257-508.753,491.06-508.753h1426.907c280.803,0,516.826,227.707,527.179,508.753l133.604,3626.872
						C3373.089,4594.083,3152.764,4824,2870.531,4824z"/>
				</g>
			</g>
			<g>
				<g>
					<path style="fill:#133560;" d="M2868.439,4766.342c-166.484,0-332.968,0-499.452,0c-258.921,0-517.842,0-776.763,0
						c-52.515,0-105.028,0.283-157.552,0c-173.875-0.936-334.826-99.141-418.311-258.311
						c-35.686-68.038-49.353-142.36-52.094-222.449c-1.56-45.601-3.121-91.197-4.681-136.789
						c-6.273-183.318-12.544-366.563-18.813-549.735c-8.948-261.477-17.891-522.804-26.829-783.983
						c-9.609-280.801-19.213-561.429-28.811-841.885c-8.458-247.15-16.911-494.166-25.36-741.049
						c-5.323-155.538-10.644-311.023-15.963-466.456c-0.92-26.87-1.96-53.742-2.759-80.609
						c-4.573-153.867,68.674-299.854,194.93-381.845c73.258-47.574,153.59-70.684,241.038-71.151c14.247-0.076,28.502,0,42.752,0
						c88.596,0,177.192,0,265.788,0c268.621,0,537.243,0,805.864,0c89.894,0,179.787,0,269.681,0c14.25,0,28.499-0.076,42.752,0
						c87.527,0.467,169.131,23.377,246.089,71.151c131.976,81.928,215.668,228.109,222.033,381.65
						c1.096,26.43,1.944,52.866,2.916,79.299c5.734,155.933,11.471,311.92,17.209,467.96
						c9.024,245.396,18.054,490.924,27.088,736.584c10.368,281.943,20.743,564.059,31.125,846.35
						c9.558,259.917,19.122,519.982,28.691,780.195c6.782,184.433,13.568,368.941,20.356,553.522
						c1.677,45.592,3.353,91.188,5.03,136.789c0.294,7.997,0.626,15.996,0.882,23.993c0.011,0.349,0.028,0.697,0.039,1.045
						c0.342,10.912,0.464,21.81,0.182,32.703c-0.167,6.463-0.455,12.919-0.864,19.363c0.013-0.207-1.754,19.093-0.777,10.176
						c-2.629,23.981-7.198,47.724-13.314,70.925c-6.352,24.095-11.958,40.42-19.97,58.685
						c-34.686,79.076-87.761,143.479-155.124,188.699C3040.331,4741.596,2958.096,4765.776,2868.439,4766.342
						c-73.781,0.466-69.769,115.792,4.184,115.325c206.197-1.302,397.359-115.705,488.816-299.015
						c45.291-90.777,61.574-189.875,57.801-292.146c-4.513-122.302-9.025-244.571-13.535-366.807
						c-8.54-231.433-17.075-462.749-25.607-693.948c-10.403-281.928-20.8-563.682-31.19-845.263
						c-10.113-274.069-20.22-547.973-30.321-821.713c-7.685-208.261-15.366-416.427-23.044-624.498
						c-3.13-84.81-5.806-169.619-9.387-254.397c-8.346-197.591-119.585-383.613-292.78-485.635
						c-104.364-61.477-217.708-80.32-334.706-80.32c-224.865,0-449.731,0-674.596,0c-224.428,0-448.855,0-673.283,0
						c-119.953,0-234.985,21.246-335.822,86.72C814.954,308.541,721.226,490.231,726.8,684.036
						c2.485,86.41,5.894,172.852,8.841,259.296c7.129,209.084,14.261,418.263,21.397,627.539
						c9.347,274.133,18.7,548.43,28.058,822.892c9.593,281.35,19.192,562.873,28.797,844.569
						c7.854,230.339,15.711,460.795,23.573,691.366c4.117,120.746,8.235,241.523,12.354,362.333
						c3.608,105.815,29.075,208.706,84.797,301.394c106.491,177.137,301.461,287.15,503.788,288.242
						c170.973,0.922,341.912,0,512.854,0c259.95,0,519.9,0,779.849,0c47.171,0,94.343,0,141.514,0
						C2946.452,4881.667,2942.382,4766.342,2868.439,4766.342z"/>
				</g>
			</g>
		</g>
		<g>
			<g>
				<path style="fill:#133560;" d="M2418.365,545.841h-734.57c-72.788,0-134.427-59.578-136.976-132.384l-7.797-222.725
					c-0.303-8.653,6.528-15.732,15.18-15.732h967.385c8.652,0,15.987,7.079,16.299,15.732l8.04,222.725
					C2548.556,486.263,2491.153,545.841,2418.365,545.841z"/>
			</g>
		</g>
	</g>
</g>
<g>
	<path style="fill:#EBF4F7;" d="M2951.084,2851.28c0,0.541-0.043,1.056-0.12,1.545c-0.163,2.164-0.326,4.336-0.489,6.499
		c-5.254,69.131-9.676,138.373-15.771,207.427c-4.018,45.555-8.912,91.041-13.368,136.544
		c-9.118,93.024-18.227,186.049-27.336,279.073c-8.98,91.659-17.952,183.318-26.933,274.986
		c-4.052,41.408-10.958,101.612-15.011,143.029c-0.498,5.083-3.967,9.418-9.418,9.418c-0.824,0-1.648-0.017-2.472,0
		c-19.215,0.507-38.506,0-57.721,0l-1409.507,6.858c-5.581,0-12.969-29.998-13.544-35.063c-0.155-1.288,3.825,23.078,3.679,21.799
		c-3.331-28.959-10.788-83.554-14.119-112.505c-6.551-56.965-13.102-113.922-19.661-170.887
		c-8.285-72.059-16.579-144.117-24.864-216.175c-8.543-74.196-17.077-148.401-25.611-222.597
		c-7.289-63.387-14.587-126.774-21.876-190.161c-4.568-39.708-9.135-79.425-13.711-119.133
		c-6.963-60.562,4.001-123.503,22.288-181.249c35.536-112.204,108.599-210.518,205.237-277.571
		c90.895-63.069,198.79-94.295,309.028-94.295h165.006c5.1,0,9.418,4.327,9.418,9.418v117.459
		c25.825,21.653,60.03,40.936,91.977,55.48c59.678,27.165,129.736,43.374,195.261,32.677c39.416-6.439,77.699-25.061,96.398-61.936
		c3.494-6.903,5.649-14.089,7.761-22.649c0.017-0.069,0.026-0.12,0.043-0.18c-0.034-0.318-0.077-0.773-0.103-1.425
		c-0.301-6.13,0-12.346,0-18.476V2328.24c0-5.1,4.327-9.418,9.418-9.418c43.357,0,86.885-1.288,129.994,4.164
		c129.848,16.433,250.895,80.953,336.484,180.116c82.988,96.158,128.86,219.61,129.625,346.513
		C2951.11,2850.147,2951.127,2850.696,2951.084,2851.28z"/>
</g>
<g>
	<path style="fill:#14262D;" d="M2365.121,2272.229v172.174c0,40.764-35.973,77.012-70.479,93.033
		c-48.397,22.469-105.534,21.43-157.013,12.2c-49.367-8.843-96.956-27.611-140.313-52.647
		c-14.183-8.191-27.972-17.094-41.167-26.795c-5.572-4.087-12.621-8.208-17.223-13.462c-4.19-4.799-2.825-12.887-2.825-18.837
		v-197.794c28.813,2.163,57.618,4.319,86.431,6.473c98.819,7.401,197.648,14.802,296.467,22.202
		C2334.376,2269.927,2349.744,2271.078,2365.121,2272.229z"/>
</g>
<g>
	<path d="M3413.506,3483.135l-234.348,386.152c-5.445,7.009-9.666,14.451-12.737,22.101
		c-29.411-55.149-40.452-120.509-26.868-186.51c24.776-120.377,123.976-206.387,239.718-219.897
		C3390.538,3483.662,3401.975,3483.021,3413.506,3483.135z"/>
	<path d="M3166.476,3892.403l-0.434-0.813c-14.938-28.01-24.898-58.063-29.603-89.324c-4.868-32.344-3.962-65.14,2.695-97.475
		c12.029-58.445,41.726-110.403,85.879-150.256c21.253-19.183,45.234-34.933,71.28-46.815
		c26.362-12.027,54.263-19.821,82.929-23.167c11.43-1.337,22.969-1.958,34.289-1.849l0.754,0.008l-0.391,0.645l-234.348,386.152
		c-5.31,6.84-9.575,14.241-12.706,22.038L3166.476,3892.403z M3410.931,3483.551c-10.458,0-21.078,0.623-31.61,1.856
		c-118.99,13.888-215.177,102.122-239.348,219.557c-12.955,62.94-3.578,128.75,26.396,185.412
		c3.126-7.559,7.31-14.738,12.449-21.352l233.928-385.467C3412.143,3483.553,3411.537,3483.551,3410.931,3483.551z"/>
</g>
<g>
	<path style="fill:#14262D;" d="M1689.339,2747.456c13.364,23.617,26.728,47.233,40.092,70.85
		c31.925,56.417,63.85,112.834,95.775,169.251c38.597,68.208,77.195,136.417,115.792,204.625
		c33.381,58.991,66.763,117.982,100.144,176.973c11.053,19.532,22.106,39.065,33.159,58.597c4.98,8.8,9.308,19.792,15.673,27.698
		c0.292,0.363,0.489,0.863,0.72,1.272c0-3.17,0-6.34,0-9.51c-29.58,39.314-58.964,78.777-88.244,118.316
		c-48.028,64.856-96.133,129.745-142.105,196.083c-8.45,12.194-16.86,24.434-24.813,36.96c-4.243,6.684-9.344,13.824-11.656,21.499
		c5.249-1.386,10.497-2.771,15.745-4.157c-20.935-25.819-41.87-51.637-62.805-77.456
		c-50.274-62.002-100.548-124.005-150.822-186.007c-60.817-75.004-121.634-150.009-182.451-225.013
		c-52.563-64.826-105.127-129.651-157.69-194.477c-17.313-21.352-34.625-42.703-51.938-64.055
		c-7.918-9.765-15.382-21.744-24.602-30.342c-0.395-0.368-0.712-0.878-1.054-1.3c-4.441,4.441-8.882,8.882-13.323,13.323
		c16.974,14.146,31.599-14.691,38.177-26.37c11.184-19.858,20.034-42.542,34.35-60.431c0.968-1.209,2.116-2.373,3.206-3.528
		c0.794-0.842,1.372-1.104,1.244-1.203c0.28,0.215-3.265-0.272-3.264-0.359c-0.013,1.516,9.093,5.988,10.841,7.018
		c9.407,5.545,19.743,9.786,30.325,12.476c22.114,5.621,45.209,4.774,67.469,0.502c52.031-9.985,100.312-37.881,143.47-67.544
		c43.634-29.99,84.316-64.293,122.814-100.589c20.853-19.66,41.424-39.845,60.569-61.195c8.075-9.004-5.207-22.373-13.323-13.323
		c-47.427,52.89-101.366,101.717-158.495,143.822c-41.625,30.679-87.005,59.689-136.842,74.86
		c-21.506,6.547-44.203,10.459-66.707,7.898c-9.639-1.097-19.363-3.54-28.306-7.322c-4.426-1.872-8.694-4.163-12.8-6.653
		c-5.13-3.112-10.082-8.066-16.407-8.282c-9.241-0.316-15.943,8.236-20.814,14.924c-7.198,9.882-12.911,20.854-18.658,31.615
		c-6.19,11.589-12.123,23.348-18.883,34.621c-2.464,4.109-5.136,8.295-7.935,11.758c-1.246,1.541-2.499,2.662-2.484,2.541
		c-0.14,1.133-2.218-1.123,0.548-0.127c-1.023,0.254-0.716,0.216,0.921-0.114c1.733-0.026,3.169,0.535,4.308,1.684
		c-9.396-7.83-20.959,3.905-13.323,13.323c20.935,25.819,41.87,51.637,62.805,77.456c50.274,62.002,100.548,124.005,150.822,186.007
		c60.817,75.004,121.634,150.009,182.451,225.013c52.563,64.825,105.127,129.651,157.69,194.477
		c17.313,21.352,34.626,42.703,51.938,64.055c8.135,10.032,15.814,20.865,24.602,30.342c0.376,0.406,0.705,0.869,1.054,1.3
		c4.678,5.77,13.877,2.044,15.745-4.157c0.808-2.683-0.528,0.878,0.186-0.586c0.672-1.377,1.38-2.731,2.119-4.074
		c1.955-3.554,4.099-7.009,6.255-10.444c6.565-10.458,13.509-20.68,20.494-30.859c20.813-30.33,42.317-60.187,63.902-89.97
		c46.163-63.695,93.02-126.887,140.104-189.903c10.601-14.188,21.21-28.37,31.858-42.522c1.981-2.633,1.517-6.828,0-9.51
		c-13.364-23.617-26.728-47.233-40.092-70.85c-31.925-56.417-63.85-112.834-95.775-169.251
		c-38.597-68.208-77.195-136.417-115.792-204.625c-33.381-58.991-66.763-117.982-100.144-176.973
		c-16.218-28.66-31.339-58.384-48.832-86.295c-0.258-0.411-0.48-0.849-0.72-1.272
		C1699.637,2727.394,1683.354,2736.878,1689.339,2747.456z"/>
</g>
<g>
	<path style="fill:#EBF4F7;" d="M3403.422,3497.042c-0.266-0.403-0.524-0.815-0.799-1.219c-0.781-1.125-1.554-2.258-2.327-3.391
		c1.039-1.631,2.087-3.263,3.125-4.894c4.327-6.774,12.972-4.877,16.373,0.163c-0.034-0.052-0.069-0.112-0.103-0.163
		c-15.72-23.962-31.44-47.925-47.16-71.896c-37.75-57.549-75.501-115.098-113.252-172.646
		c-45.675-69.62-91.342-139.249-137.017-208.869c-39.485-60.185-78.97-120.378-118.446-180.562
		c-19.163-29.217-37.699-58.974-57.549-87.727c-0.275-0.395-0.532-0.816-0.807-1.219c-3.142-4.8-10.543-6.654-14.793-1.906
		c-7.555,8.431-2.824,19.712-1.666,30.058c1.632,14.527,2.627,29.114,3.04,43.718c0.206,7.495,0.206,14.664-0.352,22.073
		c-1.52,19.961-3.031,39.914-4.55,59.867c-3.597,47.323-7.186,94.647-10.783,141.979c-5.074,66.744-12.938,133.385-19.463,200
		c-5.306,54.166-10.612,108.341-15.918,162.507c-3.005,30.71-7.478,61.661-9.058,92.492c-0.309,6.096,3.022,9.882,6.585,14.449
		c8.028,10.285,16.046,20.571,24.074,30.856c29.655,38.008,59.309,76.008,88.964,114.016
		c54.209,69.474,108.409,138.948,162.619,208.414c0.979,1.262,1.958,2.516,2.936,3.769c3.932,5.04,11.891,2.653,14.802-1.906
		c27.852-43.597,55.694-87.203,83.546-130.8c44.576-69.784,89.144-139.567,133.72-209.35c10.114-15.84,20.236-31.689,30.358-47.538
		C3415.931,3501.961,3407.68,3503.532,3403.422,3497.042z M2929.199,2774.122c4.525,0.584,9.058,1.167,13.591,1.751
		c0.627-2.352,1.245-4.705,1.872-7.066c1.769,11.788,3.254,23.619,4.327,35.484
		C2942.387,2794.238,2935.793,2784.176,2929.199,2774.122z M2890.513,3517.973c-0.927-2.224-1.846-4.439-2.764-6.663l3.039,3.889
		C2890.693,3516.127,2890.607,3517.046,2890.513,3517.973z M3155.626,3875.501c2.447-3.82,4.885-7.649,7.332-11.47
		c2.49,3.185,4.971,6.379,7.461,9.564C3165.491,3874.23,3160.554,3874.866,3155.626,3875.501z"/>
</g>
<g>
	<path style="fill:#14262D;" d="M2934.333,3445.527c-52.435,31.892-104.869,63.783-157.304,95.675
		c-24.892,15.139-49.785,30.276-74.677,45.414c-62.868,38.232-125.736,76.464-188.604,114.696
		c-67.703,41.172-135.407,82.345-203.11,123.517c-24.493,14.895-48.986,29.79-73.48,44.685
		c-11.717,7.125-25.455,13.439-36.195,22.011c-0.48,0.383-1.089,0.663-1.616,0.983c4.296,4.296,8.593,8.593,12.889,12.889
		c72.895-107.846,71.849-253.558-4.568-359.433c-22.447-31.1-50.147-57.576-82.026-78.878c0,5.423,0,10.846,0,16.269
		c30.242-13.924,60.485-27.844,90.729-41.764c62.224-28.639,124.448-57.278,186.672-85.917
		c61.3-28.214,122.599-56.427,183.899-84.641c24.377-11.22,48.755-22.44,73.133-33.66c56.538-26.021,113.076-52.042,169.614-78.064
		c1.417-0.652,2.835-1.305,4.252-1.957c-3.805-4.932-7.611-9.864-11.416-14.796c-31.249,39.653-23.878,98.428-12.445,144.01
		c12.959,51.665,36.2,105.458,72.698,144.996c14.619,15.836,33.801,30.997,56.311,31.52c12.129,0.282,12.125-18.559,0-18.841
		c-14.989-0.349-29.026-11.682-39.552-22.389c-16.144-16.423-28.665-36.252-39.353-56.542
		c-23.262-44.156-40.073-95.323-40.658-145.59c-0.251-21.604,2.464-46.256,16.322-63.842c6.633-8.416-1.36-19.424-11.416-14.796
		c-51.73,23.809-103.461,47.617-155.191,71.426c-25.37,11.676-50.74,23.353-76.11,35.03
		c-58.015,26.702-116.03,53.404-174.045,80.106c-64.523,29.697-129.046,59.395-193.569,89.092
		c-30.69,14.125-61.382,28.249-92.07,42.378c-5.771,2.657-11.542,5.314-17.313,7.971c-6.882,3.169-5.329,12.708,0,16.269
		c104.454,69.799,154.287,201.37,121.327,322.722c-8.723,32.118-22.869,62.258-41.493,89.812
		c-5.363,7.934,5.101,17.625,12.889,12.889c30.16-18.341,60.32-36.682,90.48-55.023c66.078-40.184,132.157-80.368,198.235-120.553
		c65.396-39.769,130.791-79.538,196.187-119.307c28.301-17.21,56.602-34.42,84.902-51.631
		c53.317-32.427,106.633-64.856,159.95-97.284c1.745-1.061,3.49-2.122,5.234-3.183
		C2954.188,3455.504,2944.73,3439.204,2934.333,3445.527z"/>
</g>
<g>
	<path style="fill:#EBF4F7;" d="M2887.749,3511.311l3.039,3.889c-0.094,0.927-0.18,1.846-0.275,2.773
		C2889.586,3515.75,2888.667,3513.535,2887.749,3511.311z"/>
</g>
<g>
	<path style="fill:#EBF4F7;" d="M2944.662,2768.808c1.769,11.788,3.254,23.619,4.327,35.484
		c-6.602-10.054-13.196-20.116-19.79-30.169c4.525,0.584,9.058,1.167,13.591,1.751
		C2943.417,2773.521,2944.035,2771.168,2944.662,2768.808z"/>
</g>
<g>
	<path style="fill:#EBF4F7;" d="M3162.958,3864.031c2.49,3.185,4.971,6.379,7.461,9.564c-4.928,0.635-9.865,1.271-14.793,1.906
		C3158.073,3871.681,3160.511,3867.852,3162.958,3864.031z"/>
</g>
<g>
	<path style="fill:#EBF4F7;" d="M3419.52,3497.316c-3.589,4.645-11.839,6.216-16.098-0.275c-0.266-0.403-0.524-0.815-0.799-1.219
		c-0.781-1.125-1.554-2.258-2.327-3.391c1.039-1.631,2.087-3.263,3.125-4.894c4.327-6.774,12.972-4.877,16.373,0.163
		c0.103,0.155,0.189,0.309,0.283,0.464c0.352,0.584,0.627,1.202,0.807,1.854c0.052,0.154,0.094,0.309,0.129,0.455
		C3421.675,3493.041,3420.979,3495.428,3419.52,3497.316z"/>
</g>
<g>
	<path style="fill:#14262D;" d="M1729.865,2695.585c-17.676-41.792-42.981-79.324-75.212-111.555
		c-32.231-32.231-69.763-57.536-111.554-75.212c-43.268-18.301-89.229-27.58-136.607-27.58s-93.339,9.279-136.607,27.58
		c-41.791,17.676-79.323,42.98-111.554,75.212c-32.231,32.231-57.536,69.763-75.212,111.555
		c-18.3,43.267-27.58,89.228-27.58,136.606s9.279,93.339,27.58,136.607c17.676,41.792,42.981,79.324,75.212,111.554
		c32.231,32.231,69.763,57.536,111.554,75.212c43.268,18.301,89.229,27.579,136.607,27.579s93.339-9.279,136.607-27.579
		c41.791-17.677,79.324-42.981,111.554-75.212c32.231-32.23,57.536-69.762,75.212-111.554c18.301-43.267,27.58-89.229,27.58-136.607
		S1748.166,2738.852,1729.865,2695.585z"/>
</g>
<g>
	<path style="fill:#14262D;" d="M3022.873,2804.765c0,99.407-41.376,189.148-107.848,252.945l16.335-215.017
		c0-146.208-59.972-278.38-156.665-373.265C2918.36,2513.196,3022.873,2646.781,3022.873,2804.765z"/>
</g>
<g>
	<path style="fill:#14262D;" d="M3444.928,3291.798c23.434,12.272,52.971-6.725,62.106-22.398
		c12.416-21.302,7.99-49.176-4.682-70.328c-15.305-25.548-111.476-115.721-138.533-137.228
		c-111.42-88.564-263.061-108.781-393.13-50.987c-166.48,73.973-313.043,224.227-237.408,364.756
		c36.965,61.522,150.375,114.147,219.264,85.735c28.031-11.561,52.916-45.685,85.124-28.12
		c40.706,22.198,98.688,65.664,141.253,43.985c37.541-19.12,46.272-89.36,10.108-99.33c88.457,24.387,119.151-75.354,56.568-116.164
		c94.582,2.612,109.721-62.02,42.347-106.213C3301.718,3164.539,3417.083,3277.215,3444.928,3291.798z"/>
</g>
<g>
	<path style="fill:#14262D;" d="M2598.571,3049.997c0,140.033-99.247,300.072-275.311,300.072
		c-165.725,0-300.071-134.347-300.071-300.072c0-165.725,134.346-300.071,300.071-300.071
		C2464.256,2749.925,2598.571,2873.003,2598.571,3049.997z"/>
</g>
<g>
	<path style="fill:#FFFFFF;" d="M2280.339,2926.017l-92.039,247.96h60.168l16.377-48.529h88.178l16.377,48.529h61.36l-92.337-247.96
		H2280.339z M2282.178,3074.084l26.756-79.284l26.756,79.284H2282.178z"/>
</g>
<g>
	<rect x="2447.266" y="2926.017" style="fill:#FFFFFF;" width="55.999" height="247.96"/>
</g>
<g>
	<g>
		<path style="fill:#133560;" d="M1140.818,3941.916c17.624,0,35.249,0,52.873,0c47.534,0,95.067,0,142.601,0
			c70.473,0,140.946,0,211.418,0c85.98,0,171.959,0,257.939,0c93.843,0,187.687,0,281.53,0c95.371,0,190.743,0,286.114,0
			c88.319,0,176.637,0,264.956,0c74.902,0,149.804,0,224.706,0c53.852,0,107.703,0,161.555,0c25.438,0,50.927,0.735,76.361,0
			c1.112-0.032,2.226,0,3.338,0c19.188,0,19.22-46.251,0-46.251c-17.625,0-35.249,0-52.874,0c-47.533,0-95.067,0-142.601,0
			c-70.473,0-140.946,0-211.418,0c-85.979,0-171.959,0-257.939,0c-93.843,0-187.687,0-281.53,0c-95.371,0-190.743,0-286.114,0
			c-88.319,0-176.637,0-264.956,0c-74.902,0-149.804,0-224.706,0c-53.852,0-107.703,0-161.555,0c-25.438,0-50.927-0.735-76.361,0
			c-1.112,0.032-2.226,0-3.339,0C1121.63,3895.665,1121.598,3941.916,1140.818,3941.916L1140.818,3941.916z"/>
	</g>
</g>
<g>
	<path style="fill:#14262D;" d="M2305.126,3746.97c-21.948,106.629-102.291,186.312-200.806,212.509
		c-40.274,10.716-83.595,12.494-127.203,3.518c-150.238-30.924-246.951-177.772-216.027-328.009
		c24.778-120.378,123.987-206.392,239.724-219.907c28.701-3.364,58.425-2.267,88.285,3.88
		c105.135,21.641,184.045,100.036,211.365,196.646c3.83,13.542,6.645,27.433,8.369,41.581
		C2312.409,3686.355,2311.378,3716.594,2305.126,3746.97z"/>
</g>
<g>
	<path style="fill:#FDC655;" d="M4787.273,2976.423c-4.327,7.057-8.663,14.115-12.99,21.172
		c-31.105,50.672-62.22,101.352-93.325,152.024c-49.427,80.524-98.854,161.039-148.272,241.563
		c-53.437,87.049-106.873,174.098-160.3,261.138c-43.083,70.178-86.156,140.365-129.239,210.543
		c-18.682,30.435-36.205,62.09-56.261,91.651c-29.989,44.198-86.053,68.435-138.158,68.538c-17.738,0.034-35.467,0-53.205,0
		h-740.546c-3.666,0-7.341,0.043-11.007,0c-30.608-0.395-57.978-15.231-75.458-40.283c-18.485-26.478-23.25-62.545-11.616-92.741
		c4.756-12.346,12.543-22.889,19.352-34.11c42.833-70.573,85.667-141.155,128.5-211.736c33.543-55.274,67.096-110.548,100.64-165.83
		c27.912-45.993,55.823-91.977,83.735-137.969c51.822-85.401,103.653-170.801,155.475-256.201
		c31.612-52.08,61.953-105.224,94.948-156.446c28.736-44.619,85.761-69.775,137.455-70.075c14.398-0.086,28.796,0,43.194,0h768.629
		c14.277,0,28.581-0.206,42.859,0C4791.36,2858.535,4822.242,2929.812,4787.273,2976.423z"/>
</g>
<g>
	<path style="fill:#14262D;" d="M4548.93,3348.115c-1.475-4.973-6.556-7.825-11.589-6.58
		c-75.615,18.713-156.621,44.92-217.253,95.854c-19.589,16.457-37.459,37.129-45.027,62.021
		c-6.944,22.841-2.905,46.883,8.959,67.344c19.232,33.167,53.61,56.045,86.459,74.115c2.005,1.731,4.807,2.519,8.178,1.456
		c53.044-16.708,102.537-45.391,136.676-90.09c28.114-36.809,43.138-82.131,44.121-128.339
		C4559.997,3398.31,4556.197,3372.625,4548.93,3348.115z"/>
</g>
<g>
	<g>
		<path style="fill:#EBF4F7;" d="M1562.874,953.758c-29.109,7.288-57.907,16.575-85.911,27.886
			c-73.545,29.674-141.667,73.275-195.895,131.173c-34.162,36.473-62.369,78.437-81.752,124.56
			c-17.047,40.581-25.643,82.807-28.924,126.559l-3.315,44.334c-0.742,9.92,12.475,11.531,17.25,4.665
			c45.237-65.093,120.123-104.527,198.417-105.733c11.969-0.177,24.015,0.531,36.043,2.176c5.98,0.818,11.91,1.864,17.773,3.121
			c0.531-3.922,1.054-7.811,1.577-11.666c2.606-19.426,5.145-38.084,7.845-56.085c16.718-111.908,38.978-198.392,118.47-291.38
			C1563.928,953.497,1563.396,953.623,1562.874,953.758z M1185.583,1408.272c-5.744-1.56-11.497-3.121-17.241-4.673
			c5.98-8.604,12.408-16.777,19.266-24.512C1186.924,1388.829,1186.308,1398.563,1185.583,1408.272z"/>
		<path style="fill:#EBF4F7;" d="M2795.714,2229.634c-27.574-22.454-83.068-37.806-147.09-37.806
			c-91.486,0-165.647,31.311-165.647,69.943c0,6.782,2.286,13.344,6.563,19.544c98.378,6.833,196.317-0.801,290.343-32.534
			c31.049-10.476,61.609-23.441,90.938-38.86C2846.231,2218.896,2821.01,2225.762,2795.714,2229.634z"/>
		<path style="fill:#EBF4F7;" d="M3148.501,1500.627c7.414-105.607-32.306-207.367-99.179-288.048
			c-11.253-13.58-23.197-26.528-35.74-38.852c-30.712-30.181-65.042-56.608-101.786-79.214
			c-47.186-29.059-98.336-51.842-150.903-68.282c-64.199-20.075-130.077-28.316-196.781-33.31
			c-55.41-4.15-110.828-8.3-166.238-12.45c-77.94-5.837-155.879-11.674-233.819-17.503c-74.777-5.601-149.553-11.202-224.322-16.794
			c-45.878-3.441-91.748-6.875-137.626-10.308c-79.888-5.98-159.684-1.814-237.657,17.503
			c-79.492,92.988-101.752,179.472-118.47,291.38c-2.699,18-5.238,36.659-7.845,56.085c-0.523,3.855-1.046,7.743-1.577,11.666
			c72.229,15.512,134.708,63.819,168.034,130.178c36.726,73.115,33.378,162.535-8.089,232.959
			c-40.463,68.703-114.168,114.767-193.871,119.997c-99.643,6.537-193.348-48.67-237.328-137.963
			c-4.386-8.891-16.625-3.712-17.25,4.673c-3.484,46.485-7.634,92.068-0.439,138.503c9.439,60.884,34.44,118.943,69.429,169.452
			c78.007,112.616,201.15,188.675,331.539,225.823c67.565,19.249,136.344,24.976,205.891,30.18
			c52.146,3.906,104.299,7.811,156.445,11.708c28.308,2.125,56.608,4.243,84.916,6.36c97.087,7.271,194.183,14.542,291.27,21.813
			c15.107,1.13,30.206,2.26,45.313,3.391c50.535,3.779,101.077,7.566,151.612,11.345c1.839,0.135,3.669,0.27,5.508,0.396
			c-4.277-6.199-6.563-12.762-6.563-19.544c0-38.633,74.161-69.943,165.647-69.943c64.022,0,119.516,15.352,147.09,37.806
			c25.297-3.872,50.518-10.738,75.106-19.713c86.24-45.313,161.776-111.806,207.502-198.502
			c8.84-16.769,16.389-34.078,22.614-51.816c6.107-17.401,10.94-35.216,14.474-53.335c2.91-14.837,4.943-29.885,6.099-45.077
			c2.126-28.013,4.192-56.026,6.292-84.038c6.445-86.08,12.889-172.151,19.333-258.222c0.447-5.964,0.894-11.927,1.341-17.891
			c-0.844,11.834-19.359,11.885-18.515,0C3130.838,1489.35,3148.931,1489.156,3148.501,1500.627z M1164.242,1693.326
			c-5.457-8.427-10.443-17.208-14.922-26.309c5.744-1.56,11.497-3.112,17.241-4.673
			C1165.786,1672.668,1165.01,1683.001,1164.242,1693.326z"/>
	</g>
	<g>
		<path style="fill:#EBF4F7;" d="M1166.562,1662.344c-0.776,10.325-1.552,20.657-2.32,30.982
			c-5.457-8.427-10.443-17.208-14.922-26.309C1155.065,1665.456,1160.817,1663.904,1166.562,1662.344z"/>
	</g>
	<g>
		<path style="fill:#EBF4F7;" d="M1187.607,1379.087c-0.683,9.743-1.299,19.477-2.024,29.185c-5.744-1.56-11.497-3.121-17.241-4.673
			C1174.322,1394.995,1180.749,1386.822,1187.607,1379.087z"/>
	</g>
	<g>
		<path style="fill:#EBF4F7;" d="M3148.501,1500.627c-0.008,0.135-0.017,0.278-0.025,0.413c-0.844,11.834-19.359,11.885-18.515,0
			C3130.838,1489.35,3148.931,1489.156,3148.501,1500.627z"/>
	</g>
	<g>
		<path style="fill:#14262D;" d="M2940.13,1352.175c-31.4-20.95-67.775-32.821-105.307-35.798
			c-7.953-0.631-15.912-1.191-23.867-1.787c-43.583-3.263-87.166-6.526-130.749-9.789c-62.032-4.644-124.065-9.288-186.098-13.933
			c-58.086-4.349-116.173-8.698-174.259-13.047c-32.625-2.443-65.25-4.885-97.875-7.328c-67.843-5.079-134.714,19.421-181.156,69.77
			c-29.589,32.078-49.527,72.825-55.789,116.075c-1.927,13.312-2.644,26.784-3.647,40.189
			c-4.082,54.522-8.164,109.044-12.246,163.566c-3.868,51.67-7.737,103.34-11.605,155.01c-1.416,18.908-2.505,37.62-0.192,56.575
			c5.225,42.807,22.824,82.993,50.576,115.997c27.523,32.731,64.902,57.042,105.946,69.022c17.555,5.124,35.561,7.364,53.723,8.724
			c35.716,2.674,71.433,5.348,107.149,8.022c59.575,4.46,119.149,8.92,178.724,13.381c61.271,4.587,122.542,9.175,183.813,13.762
			c40.806,3.055,81.612,6.11,122.418,9.165c5.812,0.435,11.623,0.87,17.435,1.305c87.637,6.016,173.061-42.564,212.039-121.507
			c21.167-42.871,22.714-88.382,26.193-134.846c4.487-59.935,8.974-119.87,13.462-179.806c3.064-40.922,6.205-81.84,9.191-122.768
			C3043.777,1473.097,3006.067,1396.168,2940.13,1352.175z"/>
	</g>
	<g>
		<g>
			<path style="fill:#6EB3ED;" d="M2337.48,1738.09l0.009-0.008c-0.025,0.017-0.042,0.034-0.067,0.051
				C2337.447,1738.124,2337.463,1738.107,2337.48,1738.09z M2348.783,1506.996c-57.688-27.726-127.032-13.445-169.207,34.946
				c-44.63,51.201-53.841,124.122-25.778,185.537c26.621,58.278,88.872,92.929,152.185,83.372
				c72.676-10.974,120.208-77.813,126.77-147.537c0.067-0.582,0.118-1.164,0.16-1.755
				C2436.946,1600.085,2405.795,1534.401,2348.783,1506.996z M2377.378,1661.559c-0.135,1.653-0.287,3.307-0.456,4.96
				c-0.489,3.011-1.054,6.006-1.721,8.983c-1.442,6.385-3.315,12.67-5.609,18.793c-0.219,0.573-0.43,1.147-0.649,1.721
				c-0.228,0.481-0.818,1.847-1.038,2.277c-1.333,2.649-2.606,5.306-4.041,7.895c-2.75,4.977-5.812,9.802-9.177,14.382
				c-0.076,0-2.885,3.467-3.636,4.31c-1.898,2.134-3.846,4.201-5.879,6.208c-2.016,1.991-4.125,3.863-6.233,5.753
				c-0.456,0.405-0.928,0.802-1.4,1.198c-0.017,0.008-0.034,0.025-0.051,0.042c-0.025,0.017-0.042,0.034-0.067,0.051
				c-0.051,0.042-0.11,0.093-0.177,0.152c-0.008,0.008-0.025,0.017-0.042,0.034c-0.034,0.025-0.076,0.059-0.118,0.093
				c-0.042,0.034-0.076,0.068-0.118,0.101c-0.506,0.388-1.215,0.936-1.889,1.4c-4.268,2.944-8.629,5.71-13.218,8.131
				c-0.953,0.498-7.322,3.365-5.812,2.843c-2.404,0.936-4.85,1.788-7.322,2.547c-4.858,1.501-9.793,2.387-14.753,3.441
				c-0.059-0.008-0.101-0.008-0.16-0.017c-1.156-0.067-2.463,0.211-3.627,0.287c-3.256,0.186-6.529,0.236-9.785,0.135
				c-2.792-0.084-5.542-0.363-8.317-0.573c-0.076-0.025-0.152-0.051-0.245-0.076c-1.13-0.346-2.421-0.447-3.585-0.692
				c-5.787-1.223-11.387-2.978-16.921-5.044c-0.093-0.051-0.194-0.101-0.304-0.16c-1.063-0.54-2.151-1.021-3.214-1.561
				c-2.48-1.257-4.901-2.606-7.28-4.04s-4.648-3.037-6.976-4.547c-0.253-0.169-0.708-0.506-1.13-0.827
				c-0.877-0.725-1.771-1.451-2.632-2.193c-4.226-3.678-8.207-7.651-11.893-11.868c-0.801-0.911-1.561-1.856-2.345-2.775
				c-0.084-0.093-0.152-0.177-0.219-0.253c-1.873-2.606-3.695-5.238-5.398-7.963c-3.07-4.917-5.711-10.021-8.19-15.259
				c-0.051-0.101-0.093-0.177-0.135-0.27c-0.464-1.181-0.911-2.362-1.341-3.551c-1.147-3.188-2.185-6.419-3.096-9.675
				c-1.459-5.23-2.64-10.569-3.467-15.942c0.051-0.026-0.346-3.669-0.43-4.833c-0.287-4.007-0.405-8.022-0.363-12.037
				c0.034-3.18,0.169-6.352,0.405-9.523c0.076-1.097,0.548-5.221,0.464-5.002c1.012-6.461,2.497-12.872,4.403-19.122
				c0.75-2.488,1.577-4.96,2.471-7.406c0.413-1.139,0.852-2.286,1.299-3.425c0.084-0.169,0.177-0.363,0.303-0.624
				c2.741-5.702,5.652-11.278,9.068-16.609c1.552-2.429,3.197-4.783,4.884-7.119c0.076-0.084,0.152-0.177,0.244-0.287
				c0.802-0.928,1.569-1.889,2.379-2.817c4.015-4.605,8.376-8.806,12.931-12.872c0.312-0.278,1.636-1.375,2.328-1.965
				c0.261-0.203,0.472-0.363,0.548-0.413c2.303-1.577,4.589-3.188,6.959-4.665c2.37-1.468,4.782-2.86,7.246-4.159
				c1.333-0.7,6.115-2.859,5.871-2.859c4.614-1.78,9.346-3.264,14.154-4.412c2.463-0.59,4.96-0.97,7.44-1.476
				c1.805-0.118,3.61-0.32,5.415-0.413c5.559-0.261,10.999,0.059,16.524,0.472c1.392,0.278,2.801,0.498,4.192,0.793
				c3.155,0.666,6.284,1.476,9.363,2.412c2.514,0.776,5.019,1.636,7.474,2.589c-1.147-0.371,4.285,2.1,5.719,2.859
				c2.792,1.493,5.533,3.104,8.191,4.825c1.257,0.81,5.618,4.04,5.356,3.728c4.496,3.703,8.73,7.718,12.644,12.028
				c0.937,1.037,4.218,5.053,4.319,5.053c1.603,2.193,3.146,4.411,4.597,6.697c3.306,5.179,6.175,10.594,8.756,16.162
				c-0.413-0.641,2.412,6.377,2.792,7.549c1.072,3.231,2.016,6.495,2.843,9.802c0.835,3.34,1.552,6.706,2.143,10.105
				c0.118,0.683,0.236,1.358,0.346,2.041c-0.034-0.034,0.211,2.193,0.321,3.585
				C2377.935,1646.309,2377.884,1653.926,2377.378,1661.559z"/>
		</g>
		<g>
			<path style="fill:#FFFFFF;" d="M2377.378,1661.559c-0.135,1.653-0.287,3.307-0.456,4.96c-0.489,3.011-1.054,6.006-1.721,8.983
				c-1.442,6.385-3.315,12.67-5.609,18.793c-0.219,0.573-0.43,1.147-0.649,1.721c-0.228,0.481-0.818,1.847-1.038,2.277
				c-1.333,2.649-2.606,5.306-4.041,7.895c-2.75,4.977-5.812,9.802-9.177,14.382c-0.076,0-2.885,3.467-3.636,4.31
				c-1.898,2.134-3.846,4.201-5.879,6.208c-2.016,1.991-4.125,3.863-6.233,5.753c-0.456,0.405-0.928,0.802-1.4,1.198
				c-0.017,0.008-0.034,0.025-0.051,0.042c-0.025,0.017-0.042,0.034-0.067,0.051c-0.051,0.042-0.11,0.093-0.177,0.152
				c-0.017,0.008-0.025,0.017-0.042,0.034c-0.034,0.025-0.076,0.059-0.118,0.093c-0.042,0.034-0.076,0.068-0.118,0.101
				c-0.506,0.388-1.215,0.936-1.889,1.4c-4.268,2.944-8.629,5.71-13.218,8.131c-0.953,0.498-7.322,3.365-5.812,2.843
				c-2.404,0.936-4.85,1.788-7.322,2.547c-4.858,1.501-9.793,2.387-14.753,3.441c-0.059-0.008-0.101-0.008-0.16-0.017
				c-1.156-0.067-2.463,0.211-3.627,0.287c-3.256,0.186-6.529,0.236-9.785,0.135c-2.792-0.084-5.542-0.363-8.317-0.573
				c-0.076-0.025-0.152-0.051-0.245-0.076c-1.13-0.346-2.421-0.447-3.585-0.692c-5.787-1.223-11.387-2.978-16.921-5.044
				c-0.093-0.051-0.194-0.101-0.304-0.16c-1.063-0.54-2.151-1.021-3.214-1.561c-2.48-1.257-4.901-2.606-7.28-4.04
				s-4.648-3.037-6.976-4.547c-0.253-0.169-0.708-0.506-1.13-0.827c-0.877-0.725-1.771-1.451-2.632-2.193
				c-4.226-3.678-8.207-7.651-11.893-11.868c-0.801-0.911-1.561-1.856-2.345-2.775c-0.084-0.093-0.152-0.177-0.219-0.253
				c-1.873-2.606-3.695-5.238-5.398-7.963c-3.07-4.917-5.711-10.021-8.19-15.259c-0.051-0.101-0.093-0.177-0.135-0.27
				c-0.464-1.181-0.911-2.362-1.341-3.551c-1.147-3.188-2.185-6.419-3.096-9.675c-1.459-5.23-2.64-10.569-3.467-15.942
				c0.051-0.026-0.346-3.669-0.43-4.833c-0.287-4.007-0.405-8.022-0.363-12.037c0.034-3.18,0.169-6.352,0.405-9.523
				c0.076-1.097,0.548-5.221,0.464-5.002c1.012-6.461,2.497-12.872,4.403-19.122c0.75-2.488,1.577-4.96,2.471-7.406
				c0.413-1.139,0.852-2.286,1.299-3.425c0.084-0.169,0.177-0.363,0.303-0.624c2.741-5.702,5.652-11.278,9.068-16.609
				c1.552-2.429,3.197-4.783,4.884-7.119c0.076-0.084,0.152-0.177,0.244-0.287c0.802-0.928,1.569-1.889,2.379-2.817
				c4.015-4.605,8.376-8.806,12.931-12.872c0.312-0.278,1.636-1.375,2.328-1.965c0.261-0.203,0.472-0.363,0.548-0.413
				c2.303-1.577,4.589-3.188,6.959-4.665c2.37-1.468,4.782-2.86,7.246-4.159c1.333-0.7,6.115-2.859,5.871-2.859
				c4.614-1.78,9.346-3.264,14.154-4.412c2.463-0.59,4.96-0.97,7.44-1.476c1.805-0.118,3.61-0.32,5.415-0.413
				c5.559-0.261,10.999,0.059,16.524,0.472c1.392,0.278,2.801,0.498,4.192,0.793c3.155,0.666,6.284,1.476,9.363,2.412
				c2.514,0.776,5.019,1.636,7.474,2.589c-1.147-0.371,4.285,2.1,5.719,2.859c2.792,1.493,5.533,3.104,8.191,4.825
				c1.257,0.81,5.618,4.04,5.356,3.728c4.496,3.703,8.73,7.718,12.644,12.028c0.937,1.037,4.218,5.053,4.319,5.053
				c1.603,2.193,3.146,4.411,4.597,6.697c3.306,5.179,6.175,10.594,8.756,16.162c-0.413-0.641,2.412,6.377,2.792,7.549
				c1.072,3.231,2.016,6.495,2.843,9.802c0.835,3.34,1.552,6.706,2.143,10.105c0.118,0.683,0.236,1.358,0.346,2.041
				c-0.034-0.034,0.211,2.193,0.321,3.585C2377.935,1646.309,2377.884,1653.926,2377.378,1661.559z"/>
		</g>
		<g>
			<path style="fill:#6EB3ED;" d="M2808.029,1795.601c-0.245,0.042-0.498,0.076-0.75,0.101c-0.532,0.059-1.012,0.093-1.173,0.093
				C2805.886,1795.795,2806.291,1795.736,2808.029,1795.601z"/>
		</g>
		<g>
			<path style="fill:#6EB3ED;" d="M2861.709,1545.257c-53.824-28.527-117.331-9.97-154.134,36.735
				c-39.223,49.792-50.306,121.532-26.207,180.577c23.306,57.105,76.151,97.568,139.752,86.864
				c69.969-11.775,109.757-83.397,115.754-148.49c0.059-0.548,0.11-1.088,0.152-1.645
				C2940.914,1640.531,2916.082,1574.08,2861.709,1545.257z M2762.243,1783.21c0.245,0.202,0.472,0.405,0.633,0.557
				C2762.724,1783.64,2762.522,1783.463,2762.243,1783.21z M2762.918,1783.8c0.067,0.059,0.126,0.11,0.16,0.152
				C2763.045,1783.918,2762.994,1783.876,2762.918,1783.8z M2881.49,1699.298c-0.118,1.434-0.262,2.868-0.38,4.302
				c-0.05,0.523-0.076,0.886-0.093,1.122c-0.413,2.767-0.911,5.525-1.476,8.258c-1.291,6.276-2.952,12.458-4.993,18.532
				c-0.835,2.488-1.738,4.951-2.699,7.389c-0.093,0.101-1.594,3.492-2.033,4.386c-2.817,5.761-6.014,11.337-9.582,16.668
				c-0.456,0.683-2.471,3.517-3.079,4.411c-0.346,0.439-0.692,0.869-0.759,0.953c-1.08,1.223-2.109,2.488-3.206,3.703
				c-3.762,4.201-7.887,7.937-12.062,11.708c-0.371,0.329-0.641,0.59-0.844,0.776c-0.236,0.143-0.557,0.346-0.979,0.616
				c-2.269,1.476-4.47,3.028-6.799,4.411c-2.311,1.375-4.724,2.522-7.052,3.838c-0.126,0.068-0.531,0.27-0.945,0.472
				c-0.742,0.312-1.577,0.658-1.814,0.743c-4.673,1.611-9.337,2.733-14.12,3.905c-0.16,0.042-0.346,0.076-0.548,0.11
				c0.354-0.025,0.759-0.059,1.223-0.093c-0.658,0.051-1.316,0.126-1.974,0.194c-0.532,0.059-1.012,0.093-1.173,0.093
				c-0.084,0.009-0.16,0.009-0.236,0.017c-2.674,0.101-5.322,0.261-7.996,0.203c-0.548-0.008-3.5-0.211-5.188-0.295
				c-1.291-0.262-4.639-0.81-5.609-1.046c-2.201-0.523-4.386-1.13-6.537-1.822c-1.105-0.363-2.21-0.801-3.315-1.173
				c1.476,0.557,1.763,1.004-0.54-0.16c-0.051-0.025-0.101-0.051-0.152-0.076c-0.084-0.025-0.168-0.059-0.253-0.084
				c0.084,0.025,0.16,0.051,0.245,0.076c-4.344-2.21-8.519-4.555-12.619-7.203c-0.81-0.523-1.586-1.088-2.37-1.653
				c-0.084-0.076-0.152-0.135-0.245-0.211c-2.016-1.814-4.074-3.568-6.014-5.466c-1.965-1.915-3.855-3.905-5.668-5.964
				c-0.801-0.903-2.573-3.129-2.758-3.298c-2.978-4.125-5.711-8.427-8.174-12.872c-1.417-2.556-2.741-5.162-3.981-7.802
				c-0.43-0.911-0.843-1.83-1.257-2.75c-0.11-0.329-0.245-0.717-0.405-1.172c-1.999-5.786-3.922-11.539-5.339-17.503
				c-0.624-2.598-1.181-5.213-1.67-7.845c-0.245-1.35-0.472-2.708-0.692-4.066c-0.017-0.185-0.034-0.396-0.059-0.675
				c-0.65-6.487-0.979-12.999-0.877-19.527c0.051-3.34,0.194-6.681,0.439-10.012c0.076-0.97,0.557-5.753,0.439-5.28
				c0.852-6.006,2.176-11.969,3.745-17.823c1.518-5.66,3.391-11.202,5.516-16.668c0.017-0.051,0.034-0.093,0.051-0.143
				c0.076-0.152,0.152-0.321,0.253-0.523c0.557-1.181,1.097-2.379,1.67-3.551c1.51-3.096,3.138-6.141,4.867-9.127
				c1.282-2.193,2.615-4.361,4.015-6.495c0.692-1.046,1.4-2.092,2.117-3.121c0.203-0.295,1.029-1.426,1.611-2.235
				c0.818-0.97,2.708-3.273,3.205-3.846c2.134-2.421,4.361-4.766,6.681-7.018c1.721-1.662,3.5-3.239,5.289-4.825
				c0.295-0.262,1.383-1.139,2.092-1.712c0.295-0.219,0.548-0.405,0.633-0.455c4.547-2.944,9.152-5.576,13.851-8.249
				c0.118-0.068,0.497-0.253,0.894-0.447c0.725-0.312,1.552-0.658,1.873-0.768c2.134-0.742,4.26-1.468,6.436-2.083
				c2.539-0.725,5.112-1.24,7.676-1.822c0.076-0.017,0.194-0.042,0.346-0.068c0.86-0.101,2.05-0.236,2.37-0.253
				c2.666-0.126,5.314-0.261,7.988-0.202c0.675,0.017,3.467,0.202,5.137,0.295c1.215,0.228,3.897,0.65,4.555,0.793
				c2.952,0.658,5.82,1.569,8.714,2.438c0.708,0.211,1.392,0.489,2.083,0.751c-1.333-0.531-1.51-0.903,0.7,0.219
				c0.051,0.025,0.101,0.051,0.16,0.076c0.076,0.025,0.16,0.059,0.244,0.084c-0.076-0.025-0.152-0.042-0.219-0.067
				c2.632,1.333,5.263,2.632,7.802,4.142c2.134,1.265,4.184,2.64,6.208,4.057c-1.341-0.894,2.615,2.067,3.821,3.146
				c2.32,2.075,4.538,4.26,6.672,6.529c0.81,0.86,1.611,1.729,2.387,2.615c0.279,0.312,2.008,2.404,2.708,3.222
				c0.194,0.253,0.346,0.455,0.388,0.523c0.911,1.341,1.864,2.649,2.75,4.007c1.805,2.741,3.501,5.55,5.086,8.418
				c1.628,2.927,3.079,5.93,4.521,8.941c0.042,0.084,0.236,0.548,0.447,1.038c0.329,0.877,1.021,2.682,1.122,2.961
				c2.252,6.158,4.083,12.475,5.5,18.878c0.7,3.172,1.299,6.368,1.797,9.574c-0.304-1.695,0.506,5.694,0.607,7.305
				C2882.105,1684.199,2881.987,1691.748,2881.49,1699.298z"/>
		</g>
		<g>
			<path style="fill:#FFFFFF;" d="M2881.49,1699.298c-0.118,1.434-0.262,2.868-0.38,4.302c-0.05,0.523-0.076,0.886-0.093,1.122
				c-0.413,2.767-0.911,5.525-1.476,8.258c-1.291,6.276-2.952,12.458-4.993,18.532c-0.835,2.488-1.738,4.951-2.699,7.389
				c-0.093,0.101-1.594,3.492-2.033,4.386c-2.817,5.761-6.014,11.337-9.582,16.668c-0.456,0.683-2.471,3.517-3.079,4.411
				c-0.346,0.439-0.692,0.869-0.759,0.953c-1.08,1.223-2.109,2.488-3.206,3.703c-3.762,4.201-7.887,7.937-12.062,11.708
				c-0.371,0.329-0.641,0.59-0.844,0.776c-0.236,0.143-0.557,0.346-0.979,0.616c-2.269,1.476-4.47,3.028-6.799,4.411
				c-2.311,1.375-4.724,2.522-7.052,3.838c-0.126,0.068-0.531,0.27-0.945,0.472c-0.742,0.312-1.577,0.658-1.814,0.743
				c-4.673,1.611-9.337,2.733-14.12,3.905c-0.16,0.042-0.346,0.076-0.548,0.11c-1.738,0.135-2.143,0.194-1.923,0.194
				c-0.084,0.009-0.16,0.009-0.236,0.017c-2.674,0.101-5.322,0.261-7.996,0.203c-0.548-0.008-3.5-0.211-5.188-0.295
				c-1.291-0.262-4.639-0.81-5.609-1.046c-2.201-0.523-4.386-1.13-6.537-1.822c-1.105-0.363-2.21-0.801-3.315-1.173
				c-0.11-0.042-0.211-0.084-0.321-0.118c-0.118-0.042-0.244-0.084-0.371-0.118l-0.008-0.008c-4.344-2.21-8.519-4.555-12.619-7.203
				c-0.81-0.523-1.586-1.088-2.37-1.653c-0.084-0.076-0.152-0.135-0.245-0.211c-2.016-1.814-4.074-3.568-6.014-5.466
				c-1.965-1.915-3.855-3.905-5.668-5.964c-0.801-0.903-2.573-3.129-2.758-3.298c-2.978-4.125-5.711-8.427-8.174-12.872
				c-1.417-2.556-2.741-5.162-3.981-7.802c-0.43-0.911-0.843-1.83-1.257-2.75c-0.11-0.329-0.245-0.717-0.405-1.172
				c-1.999-5.786-3.922-11.539-5.339-17.503c-0.624-2.598-1.181-5.213-1.67-7.845c-0.245-1.35-0.472-2.708-0.692-4.066
				c-0.017-0.185-0.034-0.396-0.059-0.675c-0.65-6.487-0.979-12.999-0.877-19.527c0.051-3.34,0.194-6.681,0.439-10.012
				c0.076-0.97,0.557-5.753,0.439-5.28c0.852-6.006,2.176-11.969,3.745-17.823c1.518-5.66,3.391-11.202,5.516-16.668
				c0.017-0.051,0.034-0.093,0.051-0.143c0.076-0.152,0.152-0.321,0.253-0.523c0.557-1.181,1.097-2.379,1.67-3.551
				c1.51-3.096,3.138-6.141,4.867-9.127c1.282-2.193,2.615-4.361,4.015-6.495c0.692-1.046,1.4-2.092,2.117-3.121
				c0.203-0.295,1.029-1.426,1.611-2.235c0.818-0.97,2.708-3.273,3.205-3.846c2.134-2.421,4.361-4.766,6.681-7.018
				c1.721-1.662,3.5-3.239,5.289-4.825c0.295-0.262,1.383-1.139,2.092-1.712c0.295-0.219,0.548-0.405,0.633-0.455
				c4.547-2.944,9.152-5.576,13.851-8.249c0.118-0.068,0.497-0.253,0.894-0.447c0.725-0.312,1.552-0.658,1.873-0.768
				c2.134-0.742,4.26-1.468,6.436-2.083c2.539-0.725,5.112-1.24,7.676-1.822c0.076-0.017,0.194-0.042,0.346-0.068
				c0.86-0.101,2.05-0.236,2.37-0.253c2.666-0.126,5.314-0.261,7.988-0.202c0.675,0.017,3.467,0.202,5.137,0.295
				c1.215,0.228,3.897,0.65,4.555,0.793c2.952,0.658,5.82,1.569,8.714,2.438c0.708,0.211,1.392,0.489,2.083,0.751
				c0.135,0.051,0.278,0.101,0.413,0.152c0,0.008,0,0.008,0.009,0c0.143,0.059,0.295,0.11,0.464,0.16
				c2.632,1.333,5.263,2.632,7.802,4.142c2.134,1.265,4.184,2.64,6.208,4.057c-1.341-0.894,2.615,2.067,3.821,3.146
				c2.32,2.075,4.538,4.26,6.672,6.529c0.81,0.86,1.611,1.729,2.387,2.615c0.279,0.312,2.008,2.404,2.708,3.222
				c0.194,0.253,0.346,0.455,0.388,0.523c0.911,1.341,1.864,2.649,2.75,4.007c1.805,2.741,3.501,5.55,5.086,8.418
				c1.628,2.927,3.079,5.93,4.521,8.941c0.042,0.084,0.236,0.548,0.447,1.038c0.329,0.877,1.021,2.682,1.122,2.961
				c2.252,6.158,4.083,12.475,5.5,18.878c0.7,3.172,1.299,6.368,1.797,9.574c-0.304-1.695,0.506,5.694,0.607,7.305
				C2882.105,1684.199,2881.987,1691.748,2881.49,1699.298z"/>
		</g>
		<g>
			<path style="fill:#6EB3ED;" d="M2829.825,1591.287c-0.169-0.051-0.321-0.101-0.464-0.16c0.143,0.051,0.287,0.101,0.439,0.143
				C2829.808,1591.279,2829.817,1591.279,2829.825,1591.287z"/>
		</g>
	</g>
	<g>
		<path style="fill:#FFFFFF;" d="M2656.215,1894.863c-2.478,5.124-5.149,10.137-8.137,14.984c-1.37,2.222-2.795,4.408-4.275,6.559
			c-0.985,1.431-1.997,2.84-3.025,4.24c-2.619,3.568,2.395-2.85-0.448,0.533c-3.619,4.307-7.347,8.495-11.364,12.44
			c-1.848,1.814-3.743,3.582-5.678,5.304c-1.281,1.14-7.978,6.546-4.406,3.85c-9.329,7.042-19.515,12.978-30.19,17.726
			c-2.933,1.305,0.118-0.079,0.607-0.266c-1.224,0.469-2.446,0.942-3.677,1.392c-2.882,1.054-5.793,2.027-8.732,2.907
			c-5.947,1.78-11.978,3.105-18.076,4.244c-5.198,0.971,2.035-0.016-3.263,0.46c-2.702,0.243-5.403,0.473-8.113,0.606
			c-6.425,0.315-12.875,0.217-19.29-0.259c-1.804-0.134-3.601-0.324-5.402-0.498c0.528,0.051,3.992,0.608,0.716,0.112
			c-2.635-0.4-5.258-0.874-7.869-1.411c-6.006-1.237-11.933-2.829-17.75-4.77c-2.873-0.959-5.71-2.009-8.528-3.122
			c4.193,1.657-1.472-0.713-2.8-1.35c-5.375-2.583-10.603-5.479-15.644-8.665c-2.148-1.358-4.265-2.77-6.344-4.232
			c-1.381-0.971-2.76-1.961-4.102-2.985c0.403,0.308,3.053,2.457,0.644,0.426c-4.517-3.806-8.903-7.722-13.023-11.96
			c-2.052-2.112-4.048-4.279-5.979-6.502c-1.167-1.343-6.288-8.094-3.536-4.237c-3.678-5.154-7.167-10.404-10.273-15.927
			c-1.45-2.579-2.832-5.197-4.133-7.855c-0.746-1.524-1.451-3.062-2.16-4.602c1.187,2.581,0.62,1.652-0.161-0.415
			c-2.427-6.421-4.504-12.909-6.19-19.563c-3.685-14.538-19.91-23.308-34.156-19.393c-14.745,4.052-23.09,19.571-19.393,34.156
			c14.498,57.195,55.755,103.412,110.097,125.674c53.928,22.092,118.736,15.711,167.335-16.512
			c27.483-18.222,50.279-43.3,64.67-73.057c6.525-13.493,3.689-30.005-9.961-37.99
			C2682.035,1877.783,2662.771,1881.306,2656.215,1894.863L2656.215,1894.863z"/>
	</g>
	<g>
		<path style="fill:#1F262D;" d="M1629.477,1570.638c-0.81,11.699,17.115,11.834,18.464,0.548
			c-1.021,12.602-2.767,25.162-5.474,37.519c-21.602,98.547-101.457,178.3-200.02,199.843
			c-107.218,23.424-220.079-23.593-278.964-116.176c-67.691-106.416-47.928-251.128,45.642-335.563
			c82.343-74.304,205.807-89.099,303.155-35.706c89.268,48.957,142.645,147.748,135.737,249.095
			C1648.481,1558.762,1630.413,1558.964,1629.477,1570.638z"/>
	</g>
	<g>
		<path style="fill:#1F262D;" d="M1648.017,1570.199c-0.008,0.143-0.017,0.295-0.025,0.439c-0.017,0.186-0.034,0.363-0.051,0.548
			c-1.349,11.286-19.274,11.151-18.464-0.548C1630.413,1558.964,1648.481,1558.762,1648.017,1570.199z"/>
	</g>
	<g>
		
			<ellipse transform="matrix(0.7071 -0.7071 0.7071 0.7071 -691.3495 1434.3218)" style="fill:#12323F;" cx="1385.705" cy="1551.693" rx="200.112" ry="200.112"/>
	</g>
	<g>
		<path style="fill:#12323F;" d="M1576.003,1566.634c-6.459,79.463-63,148.199-140.037,169.234
			c-76.667,20.933-161.048-9.25-206.54-74.554c-45.981-66.004-45.539-155.346,1.136-220.889
			c46.339-65.07,131.242-94.08,207.838-72.208C1525.222,1393.009,1582.125,1477.209,1576.003,1566.634
			c-0.814,11.89,17.7,11.84,18.511,0c5.927-86.576-43.538-170.768-123.251-206.028c-80.059-35.413-175.974-17.185-236.687,46.192
			c-60.998,63.674-75.305,161.328-35.443,239.925c39.384,77.656,126.081,123.651,212.463,112.697
			c85.765-10.876,158.39-75.364,177.959-159.876c2.505-10.819,4.059-21.846,4.959-32.91
			C1595.479,1554.76,1576.963,1554.823,1576.003,1566.634z"/>
	</g>
	<g>
		<path style="fill:#1F262D;" d="M3013.582,1173.727c-30.712-30.181-65.042-56.608-101.786-79.214
			c-166.558-260.584-536.831-348.696-812.724-352.703c-164.88,0.422-341.408,38.447-476.091,153.256
			c-14.652,12.459-28.806,25.845-42.394,40.201c0,0.017,0,0.017-0.025,0.008c-5.618,6.065-10.991,12.096-16.111,18.093
			c-79.492,92.988-101.752,179.472-118.47,291.38c-2.699,18-5.238,36.659-7.845,56.085c-0.523,3.855-1.046,7.743-1.577,11.666
			c-0.354,2.666-0.717,5.348-1.08,8.039l-53.191-7.912c0.152-1.813,0.304-3.619,0.455-5.424c0.607-6.951,1.265-13.834,1.991-20.666
			c1.94-18.667,4.31-36.903,7.119-54.718c0.16-1.004,0.312-1.999,0.481-2.995c15.057-94.042,42.319-176.267,84.629-247.18
			c14.205-23.829,30.113-46.376,47.835-67.674c3.087-3.72,6.233-7.372,9.413-10.999l0.008-0.008
			c49.151-55.874,111.368-102.705,188.726-140.983C2102.809,578.618,2850.87,713.512,3013.582,1173.727z"/>
	</g>
	<g>
		<path style="fill:#1F262D;" d="M3177.526,2004.739c-1.367,21.611-15.554,51.656-29.793,66.949
			c-6.689,7.187-86.358,82.334-177.481,137.668c0,0,0,0-0.017,0.017c-46.89,28.468-96.817,51.681-141.38,57.67
			c-5.263,0.717-10.443,1.771-15.664,2.59c-9.27,34.921-79.407,62.056-164.568,62.056c-75.409,0-139.052-21.273-159.085-50.374
			c-4.277-6.199-6.563-12.762-6.563-19.544c0-38.633,74.161-69.943,165.647-69.943c64.022,0,119.516,15.352,147.09,37.806
			c25.297-3.872,50.518-10.738,75.106-19.713c63.381-23.121,122.612-60.26,168.161-96.336l0.025-0.025
			c41.129-32.593,71.133-64.326,82.942-84.131c8.781-14.652,13.066-34.474,1.274-49.994c-5.778-7.6-14.803-13.673-22.285-19.831
			c6.107-17.401,10.94-35.216,14.474-53.335c19.679,19.088,42.816,41.5,45.709,44.579
			C3172.068,1962.505,3178.656,1986.815,3177.526,2004.739z"/>
	</g>
</g>
</svg>
