<svg width="41" height="41" viewBox="0 0 41 41" fill="none" xmlns="http://www.w3.org/2000/svg">
<path d="M17.4007 23.8333L35.734 5.5M17.4007 23.8333L23.234 35.5C23.3071 35.6596 23.4245 35.7948 23.5723 35.8896C23.72 35.9844 23.8918 36.0348 24.0673 36.0348C24.2429 36.0348 24.4147 35.9844 24.5624 35.8896C24.7101 35.7948 24.8275 35.6596 24.9007 35.5L35.734 5.5M17.4007 23.8333L5.734 18C5.57443 17.9269 5.43921 17.8095 5.34441 17.6618C5.24961 17.514 5.19922 17.3422 5.19922 17.1667C5.19922 16.9911 5.24961 16.8193 5.34441 16.6716C5.43921 16.5239 5.57443 16.4065 5.734 16.3333L35.734 5.5" stroke="white" stroke-width="3.33333" stroke-linecap="round" stroke-linejoin="round"/>
</svg>
