<svg clip-rule="evenodd" fill-rule="evenodd" height="1.707in" image-rendering="optimizeQuality" shape-rendering="geometricPrecision" text-rendering="geometricPrecision" viewBox="0 0 1706.66 1706.66" width="1.707in" xmlns="http://www.w3.org/2000/svg" xmlns:xodm="http://www.corel.com/coreldraw/odm/2003"><g id="Layer_x0020_1"><g id="_2615459399968"><path d="m1126.94 567.2c-21.12 0-62.27 1.41-63.12-22.1-49.24-19.02-88.26-46.83-118.48-75.69-53.99-51.57-79.96-106.53-86.17-120.89-5.27-2.39-9.52-7.16-10.81-14.44-48.47-271.72 283.74-446.16 479.28-250.61 178.34 178.34 50.46 483.73-200.69 483.73z" fill="#b3b3b3"/><path d="m807.39 1706.66c-13.98 0-23.94-14.44-18.46-27.65.47-1.14 43.43-108.03-7.07-200.93-36.46-67.07-112.59-111.88-226.3-133.19-118.56-17.62-276.73-91.29-225.37-284.77 6.75-25.45 45.39-15.16 38.64 10.29-46.04 173.54 104.25 218.53 193.28 235.03 126.74 23.61 212.55 75.41 255.05 153.93 59.51 109.93 10.78 229.94 8.68 234.99-3.18 7.66-10.62 12.3-18.45 12.3z" fill="#b3b3b3"/><path d="m383.13 1118.89c-15.44 0-61.37-53.1-81.37-73.09-7.82-7.82-7.82-20.48 0-28.29 74.85-74.77 49.4-75.62 143.88 18.85 7.82 7.82 7.82 20.48 0 28.29-17.83 17.81-47.89 54.24-62.51 54.24z" fill="#4a5254"/><path d="m491.11 1113.2c-16.21 0-31.43-6.26-42.83-17.67l-129-129c-23.59-23.6-23.76-61.4-.36-86.04l527.59-556.67 246.8 242.2-558.97 529.89c-11.8 11.15-27.15 17.29-43.22 17.29z" fill="#ffb800"/><path d="m416.94 777.14 312.34-329.28 237.68 237.68-329.27 312.34z" fill="#ffd11a"/><path d="m650.84 837.45c-61.68 0-99.5-77.13-52.7-123.94l75.96-75.96c66.68-66.68 169.79 36.43 103.11 103.09l-75.96 75.97c-13.42 13.45-31.32 20.84-50.41 20.84z" fill="#4a5254"/><path d="m616.94 694.71 30.77-30.77c35.02 18.01 84.88 60.63 104.79 101.42l-31.07 31.07c-10.21-21.75-56.31-84.58-104.48-101.72z" fill="#b3b3b3"/><g fill="#4a5254"><circle cx="1302.31" cy="325.96" r="19.99"/><circle cx="1248.01" cy="271.68" r="19.99"/><circle cx="1193.74" cy="217.4" r="19.99"/><circle cx="1139.46" cy="163.11" r="19.99"/><circle cx="1085.17" cy="108.83" r="19.99"/><circle cx="1302.85" cy="162.57" r="19.99"/><circle cx="1248.57" cy="108.28" r="19.99"/><circle cx="1261.87" cy="203.55" r="19.99"/><circle cx="1207.58" cy="149.26" r="19.99"/><circle cx="1153.3" cy="94.99" r="19.99"/><circle cx="1316.15" cy="257.83" r="19.99"/><path d="m929.76 81.35c9.72-9.25 20.03-17.83 30.89-25.66l395.03 395.02c-7.81 10.85-16.38 21.19-25.67 30.89l-400.25-400.26z"/></g></g></g></svg>